<?xml version="1.0" encoding="UTF-8"?>
<svg width="64px" height="64px" viewBox="0 0 64 64" version="1.1" xmlns="http://www.w3.org/2000/svg" xmlns:xlink="http://www.w3.org/1999/xlink">
    <title>icon/alert@2x</title>
    <g id="Landing---Medical-Profile" stroke="none" stroke-width="1" fill="none" fill-rule="evenodd">
        <g id="Landing-Page---Delete---Alert" transform="translate(-688.000000, -104.000000)">
            <g id="alert" transform="translate(509.000000, 64.000000)">
                <g id="icon/alert" transform="translate(179.000000, 40.000000)">
                    <circle id="Oval" fill="#FF3B30" cx="32" cy="32" r="32"></circle>
                    <g id="Icons/Universal-Icon-Set/Medicine/Solid/Medical-Chart" transform="translate(16.000000, 16.000000)">
                        <rect id="bouding-box" x="0" y="0" width="32" height="32"></rect>
                        <path d="M2.66666667,16.006564 C2.66666667,8.642764 8.6362,2.67323066 16,2.67323066 C23.3637333,2.67323066 29.3333333,8.642764 29.3333333,16.006564 C29.3333333,23.3702973 23.3637333,29.3398973 16,29.3398973 C8.6362,29.3398973 2.66666667,23.3702973 2.66666667,16.006564 Z M16,9.33989733 C16.7364,9.33989733 17.3333333,9.93685733 17.3333333,10.6732307 L17.3333333,16.006564 C17.3333333,16.742964 16.7364,17.3398973 16,17.3398973 C15.2636,17.3398973 14.6666667,16.742964 14.6666667,16.006564 L14.6666667,10.6732307 C14.6666667,9.93685733 15.2636,9.33989733 16,9.33989733 Z M14.6666667,21.3398973 C14.6666667,20.6034973 15.2636,20.006564 16,20.006564 C16.7364,20.006564 17.3333333,20.6034973 17.3333333,21.3398973 C17.3333333,22.0762973 16.7364,22.6732307 16,22.6732307 C15.2636,22.6732307 14.6666667,22.0762973 14.6666667,21.3398973 Z" id="Shape" fill="#FFFFFF"></path>
                    </g>
                </g>
            </g>
        </g>
    </g>
</svg>