<?xml version="1.0" encoding="UTF-8"?>
<svg width="32px" height="32px" viewBox="0 0 32 32" version="1.1" xmlns="http://www.w3.org/2000/svg" xmlns:xlink="http://www.w3.org/1999/xlink">
    <title>icon/medical-condition copy 9@2x</title>
    <g id="Scan-View" stroke="none" stroke-width="1" fill="none" fill-rule="evenodd">
        <g id="Info-Page---Filter" transform="translate(-72.000000, -224.000000)">
            <g id="icon/medical-condition-copy-9" transform="translate(72.000000, 224.000000)">
                <circle id="Oval" fill="#9B9B9B" cx="16" cy="16" r="16"></circle>
                <g id="Icons/Universal-Icon-Set/Medicine/Solid/Medical-Chart" transform="translate(8.000000, 8.000000)">
                    <rect id="bounding-box" x="0" y="0" width="16" height="16"></rect>
                    <path d="M8,14.6666667 C11.6818667,14.6666667 14.6666667,11.6818667 14.6666667,8 C14.6666667,4.3181 11.6818667,1.33333333 8,1.33333333 C4.3181,1.33333333 1.33333333,4.3181 1.33333333,8 C1.33333333,11.6818667 4.3181,14.6666667 8,14.6666667 Z M5.13807333,6.86193333 C4.87772,6.60158 4.45561333,6.60158 4.19526,6.86193333 C3.93491333,7.12226667 3.93491333,7.5444 4.19526,7.80473333 L4.86192667,8.4714 C5.12228,8.73173333 5.54438667,8.73173333 5.80474,8.4714 C6.06508667,8.21106667 6.06508667,7.78893333 5.80474,7.5286 L5.13807333,6.86193333 Z M9.5286,4.86192667 C9.78893333,4.60158 10.2110667,4.60158 10.4714,4.86192667 C10.7317333,5.12228 10.7317333,5.54438667 10.4714,5.80474 L8.4714,7.80473333 C8.21106667,8.06506667 7.78893333,8.06506667 7.5286,7.80473333 C7.26826667,7.5444 7.26826667,7.12226667 7.5286,6.86193333 L9.5286,4.86192667 Z M6.66666667,6 C7.03486667,6 7.33333333,5.70152 7.33333333,5.33333333 C7.33333333,4.96514667 7.03486667,4.66666667 6.66666667,4.66666667 C6.29848,4.66666667 6,4.96514667 6,5.33333333 C6,5.70152 6.29848,6 6.66666667,6 Z M6.66666667,10.6666667 C6.66666667,11.0348667 6.36818667,11.3333333 6,11.3333333 C5.63181333,11.3333333 5.33333333,11.0348667 5.33333333,10.6666667 C5.33333333,10.2984667 5.63181333,10 6,10 C6.36818667,10 6.66666667,10.2984667 6.66666667,10.6666667 Z M12,7.66666667 C12,7.29846667 11.7015333,7 11.3333333,7 C10.9651333,7 10.6666667,7.29846667 10.6666667,7.66666667 L10.6666667,8 C10.6666667,8.3682 10.3682,8.66666667 10,8.66666667 C8.8954,8.66666667 8,9.56206667 8,10.6666667 L8,11 C8,11.3682 8.29846667,11.6666667 8.66666667,11.6666667 C9.03486667,11.6666667 9.33333333,11.3682 9.33333333,11 L9.33333333,10.6666667 C9.33333333,10.2984667 9.6318,10 10,10 C11.1046,10 12,9.1046 12,8 L12,7.66666667 Z" id="Allergies" fill="#FFFFFF"></path>
                </g>
            </g>
        </g>
    </g>
</svg>