<?xml version="1.0" encoding="UTF-8"?>
<svg width="24px" height="24px" viewBox="0 0 24 24" version="1.1" xmlns="http://www.w3.org/2000/svg" xmlns:xlink="http://www.w3.org/1999/xlink">
    <title>icon/allergies</title>
    <g id="Landing" stroke="none" stroke-width="1" fill="none" fill-rule="evenodd">
        <g id="Landing-Page---Start-State" transform="translate(-551.000000, -138.000000)">
            <g id="cards/risen-devices/medical-condition-section" transform="translate(535.000000, 114.000000)">
                <g id="icon/allergies" transform="translate(16.000000, 24.000000)">
                    <circle id="Oval" fill="#0C8C87" cx="12" cy="12" r="12"></circle>
                    <g id="Icons/Universal-Icon-Set/Medicine/Solid/Medical-Chart" transform="translate(6.000000, 6.000000)">
                        <rect id="bounding-box" x="0" y="0" width="12" height="12"></rect>
                        <path d="M6,11 C8.7614,11 11,8.7614 11,6 C11,3.238575 8.7614,1 6,1 C3.238575,1 1,3.238575 1,6 C1,8.7614 3.238575,11 6,11 Z M3.853555,5.14645 C3.65829,4.951185 3.34171,4.951185 3.146445,5.14645 C2.951185,5.3417 2.951185,5.6583 3.146445,5.85355 L3.646445,6.35355 C3.84171,6.5488 4.15829,6.5488 4.353555,6.35355 C4.548815,6.1583 4.548815,5.8417 4.353555,5.64645 L3.853555,5.14645 Z M7.14645,3.646445 C7.3417,3.451185 7.6583,3.451185 7.85355,3.646445 C8.0488,3.84171 8.0488,4.15829 7.85355,4.353555 L6.35355,5.85355 C6.1583,6.0488 5.8417,6.0488 5.64645,5.85355 C5.4512,5.6583 5.4512,5.3417 5.64645,5.14645 L7.14645,3.646445 Z M5,4.5 C5.27615,4.5 5.5,4.27614 5.5,4 C5.5,3.72386 5.27615,3.5 5,3.5 C4.72386,3.5 4.5,3.72386 4.5,4 C4.5,4.27614 4.72386,4.5 5,4.5 Z M5,8 C5,8.27615 4.77614,8.5 4.5,8.5 C4.22386,8.5 4,8.27615 4,8 C4,7.72385 4.22386,7.5 4.5,7.5 C4.77614,7.5 5,7.72385 5,8 Z M9,5.75 C9,5.47385 8.77615,5.25 8.5,5.25 C8.22385,5.25 8,5.47385 8,5.75 L8,6 C8,6.27615 7.77615,6.5 7.5,6.5 C6.67155,6.5 6,7.17155 6,8 L6,8.25 C6,8.52615 6.22385,8.75 6.5,8.75 C6.77615,8.75 7,8.52615 7,8.25 L7,8 C7,7.72385 7.22385,7.5 7.5,7.5 C8.32845,7.5 9,6.82845 9,6 L9,5.75 Z" id="Allergies" fill="#FFFFFF"></path>
                    </g>
                </g>
            </g>
        </g>
    </g>
</svg>