<?xml version="1.0" encoding="UTF-8"?>
<svg width="8px" height="16px" viewBox="0 0 8 16" version="1.1" xmlns="http://www.w3.org/2000/svg" xmlns:xlink="http://www.w3.org/1999/xlink">
    <title>icon/attachment</title>
    <g id="Landing---Documents" stroke="none" stroke-width="1" fill="none" fill-rule="evenodd">
        <g id="Landing-Page---Document---Delete---Success-Toast-Notification" transform="translate(-287.000000, -356.000000)" fill="#7DC3BF" fill-rule="nonzero">
            <g id="cards/risen-devices/medical-condition-section" transform="translate(255.000000, 114.000000)">
                <g id="document" transform="translate(32.000000, 212.000000)">
                    <g transform="translate(0.000000, 26.000000)" id="icon/attachment">
                        <path d="M2.90909091,4 C1.31102989,4 0,5.31102989 0,6.90909091 L0,16 C0,18.2004196 1.79958051,20 4,20 C6.20041964,20 8,18.2004196 8,16 L8,7.63636364 L6.54545455,7.63636364 L6.54545455,16 C6.54545455,17.4141258 5.41412582,18.5454545 4,18.5454545 C2.58587418,18.5454545 1.45454545,17.4141258 1.45454545,16 L1.45454545,6.90909091 C1.45454545,6.09697011 2.09697011,5.45454545 2.90909091,5.45454545 C3.72121164,5.45454545 4.36363636,6.09697011 4.36363636,6.90909091 L4.36363636,14.5454545 C4.36363636,14.754136 4.20868145,14.9090909 4,14.9090909 C3.79131855,14.9090909 3.63636364,14.754136 3.63636364,14.5454545 L3.63636364,7.63636364 L2.18181818,7.63636364 L2.18181818,14.5454545 C2.18181818,15.5411367 3.00431782,16.3636364 4,16.3636364 C4.99568218,16.3636364 5.81818182,15.5411367 5.81818182,14.5454545 L5.81818182,6.90909091 C5.81818182,5.31102989 4.507152,4 2.90909091,4 Z"></path>
                    </g>
                </g>
            </g>
        </g>
    </g>
</svg>