<?xml version="1.0" encoding="UTF-8"?>
<svg width="8px" height="16px" viewBox="0 0 8 16" version="1.1" xmlns="http://www.w3.org/2000/svg" xmlns:xlink="http://www.w3.org/1999/xlink">
    <title>icon/attachment</title>
    <g id="Scan-View" stroke="none" stroke-width="1" fill="none" fill-rule="evenodd">
        <g id="Info-Page" transform="translate(-284.000000, -232.000000)" fill="#FFFFFF" fill-rule="nonzero">
            <g id="icon/medical-condition-copy-7" transform="translate(272.000000, 224.000000)">
                <path d="M14.9090909,8 C13.3110299,8 12,9.31102989 12,10.9090909 L12,20 C12,22.2004196 13.7995805,24 16,24 C18.2004196,24 20,22.2004196 20,20 L20,11.6363636 L18.5454545,11.6363636 L18.5454545,20 C18.5454545,21.4141258 17.4141258,22.5454545 16,22.5454545 C14.5858742,22.5454545 13.4545455,21.4141258 13.4545455,20 L13.4545455,10.9090909 C13.4545455,10.0969701 14.0969701,9.45454545 14.9090909,9.45454545 C15.7212116,9.45454545 16.3636364,10.0969701 16.3636364,10.9090909 L16.3636364,18.5454545 C16.3636364,18.754136 16.2086815,18.9090909 16,18.9090909 C15.7913185,18.9090909 15.6363636,18.754136 15.6363636,18.5454545 L15.6363636,11.6363636 L14.1818182,11.6363636 L14.1818182,18.5454545 C14.1818182,19.5411367 15.0043178,20.3636364 16,20.3636364 C16.9956822,20.3636364 17.8181818,19.5411367 17.8181818,18.5454545 L17.8181818,10.9090909 C17.8181818,9.31102989 16.507152,8 14.9090909,8 Z" id="icon/attachment"></path>
            </g>
        </g>
    </g>
</svg>