<?xml version="1.0" encoding="UTF-8"?>
<svg width="32px" height="32px" viewBox="0 0 32 32" version="1.1" xmlns="http://www.w3.org/2000/svg" xmlns:xlink="http://www.w3.org/1999/xlink">
    <title>icon/medical-condition copy 6@2x</title>
    <g id="Scan-View" stroke="none" stroke-width="1" fill="none" fill-rule="evenodd">
        <g id="Info-Page---Filter" transform="translate(-272.000000, -224.000000)">
            <g id="icon/medical-condition-copy-6" transform="translate(272.000000, 224.000000)">
                <circle id="Oval" fill="#9B9B9B" cx="16" cy="16" r="16"></circle>
                <g id="Icons/Universal-Icon-Set/Medicine/Solid/Heart-Rate" transform="translate(8.000000, 8.000000)">
                    <rect id="Rectangle" x="0" y="0" width="16" height="16"></rect>
                    <g id="Stethoscope" transform="translate(1.333333, 1.333333)" fill="#FFFFFF">
                        <path d="M2.22222222,0 C2.63131852,0 2.96296296,0.331644444 2.96296296,0.740740741 C2.96296296,1.14983704 2.63131852,1.48148148 2.22222222,1.48148148 L1.85185185,1.48148148 C1.6473037,1.48148148 1.48148148,1.6473037 1.48148148,1.85185185 L1.48148148,4.44444444 C1.48148148,5.67177778 2.47640741,6.66666667 3.7037037,6.66666667 C4.931,6.66666667 5.92592593,5.67177778 5.92592593,4.44444444 L5.92592593,1.85185185 C5.92592593,1.6473037 5.76007407,1.48148148 5.55555556,1.48148148 L5.18518519,1.48148148 C4.77608889,1.48148148 4.44444444,1.14983704 4.44444444,0.740740741 C4.44444444,0.331644444 4.77608889,0 5.18518519,0 L5.55555556,0 C6.5782963,0 7.40740741,0.829103704 7.40740741,1.85185185 L7.40740741,4.44444444 C7.40740741,6.2361711 6.13509097,7.73076248 4.44466191,8.07401477 L4.44444444,8.88888889 C4.44444444,10.5252593 5.77103704,11.8518519 7.40740741,11.8518519 C9.04377778,11.8518519 10.3703704,10.5252593 10.3703704,8.88888889 L10.370267,8.76241201 C9.50720088,8.45733032 8.88888889,7.63422927 8.88888889,6.66666667 C8.88888889,5.43933333 9.88377778,4.44444444 11.1111111,4.44444444 C12.3384444,4.44444444 13.3333333,5.43933333 13.3333333,6.66666667 C13.3333333,7.63422927 12.7150213,8.45733032 11.8519552,8.76241201 L11.8518519,8.88888889 C11.8518519,11.3434815 9.862,13.3333333 7.40740741,13.3333333 C4.95280741,13.3333333 2.96296296,11.3434815 2.96296296,8.88888889 L2.96274127,8.07401477 C1.27230507,7.73076248 0,6.2361711 0,4.44444444 L0,1.85185185 C0,0.829103704 0.829103704,0 1.85185185,0 L2.22222222,0 Z" id="Combined-Shape"></path>
                    </g>
                </g>
            </g>
        </g>
    </g>
</svg>