<?xml version="1.0" encoding="UTF-8"?>
<svg width="24px" height="24px" viewBox="0 0 24 24" version="1.1" xmlns="http://www.w3.org/2000/svg" xmlns:xlink="http://www.w3.org/1999/xlink">
    <title>icon/care-giver</title>
    <g id="Landing" stroke="none" stroke-width="1" fill="none" fill-rule="evenodd">
        <g id="Landing-Page---Start-State" transform="translate(-1111.000000, -1321.000000)">
            <g id="cards/risen-devices/medical-condition-section" transform="translate(1095.000000, 1297.000000)">
                <g id="icon/care-giver" transform="translate(16.000000, 24.000000)">
                    <circle id="Oval" fill="#0C8C87" cx="12" cy="12" r="12"></circle>
                    <g id="Icons/Universal-Icon-Set/Medicine/Solid/Heart-Rate" transform="translate(6.000000, 6.000000)">
                        <rect id="Rectangle" x="0" y="0" width="12" height="12"></rect>
                        <g id="Stethoscope" transform="translate(1.000000, 1.000000)" fill="#FFFFFF">
                            <path d="M1.66666667,0 C1.97348889,0 2.22222222,0.248733333 2.22222222,0.555555556 C2.22222222,0.862377778 1.97348889,1.11111111 1.66666667,1.11111111 L1.38888889,1.11111111 C1.23547778,1.11111111 1.11111111,1.23547778 1.11111111,1.38888889 L1.11111111,3.33333333 C1.11111111,4.25383333 1.85730556,5 2.77777778,5 C3.69825,5 4.44444444,4.25383333 4.44444444,3.33333333 L4.44444444,1.38888889 C4.44444444,1.23547778 4.32005556,1.11111111 4.16666667,1.11111111 L3.88888889,1.11111111 C3.58206667,1.11111111 3.33333333,0.862377778 3.33333333,0.555555556 C3.33333333,0.248733333 3.58206667,0 3.88888889,0 L4.16666667,0 C4.93372222,0 5.55555556,0.621827778 5.55555556,1.38888889 L5.55555556,3.33333333 C5.55555556,4.67710103 4.601357,5.79802632 3.3335737,6.05549539 L3.33333333,6.66666667 C3.33333333,7.89394444 4.32827778,8.88888889 5.55555556,8.88888889 C6.78283333,8.88888889 7.77777778,7.89394444 7.77777778,6.66666667 L7.77741703,6.57170885 C7.13026538,6.34281765 6.66666667,5.7255661 6.66666667,5 C6.66666667,4.0795 7.41283333,3.33333333 8.33333333,3.33333333 C9.25383333,3.33333333 10,4.0795 10,5 C10,5.72594758 9.53591367,6.34346667 8.88822874,6.57206956 L8.88888889,6.66666667 C8.88888889,8.50761111 7.3965,10 5.55555556,10 C3.71460556,10 2.22222222,8.50761111 2.22222222,6.66666667 L2.22197869,6.05549539 C0.954190034,5.79802632 0,4.67710103 0,3.33333333 L0,1.38888889 C0,0.621827778 0.621827778,0 1.38888889,0 L1.66666667,0 Z" id="Combined-Shape"></path>
                        </g>
                    </g>
                </g>
            </g>
        </g>
    </g>
</svg>