<?xml version="1.0" encoding="UTF-8"?>
<svg width="400px" height="348px" viewBox="0 0 400 348" version="1.1" xmlns="http://www.w3.org/2000/svg" xmlns:xlink="http://www.w3.org/1999/xlink">
    <title>illustrations/rise-devices/connect-device</title>
    <g id="Landing---Medical-Profile" stroke="none" stroke-width="1" fill="none" fill-rule="evenodd">
        <g id="Landing-Page---Connect-Device" transform="translate(-300.000000, -131.000000)">
            <g id="illustrations/rise-devices/connect-device" transform="translate(300.000000, 105.000000)">
                <rect id="bounding-box" x="0" y="0" width="400" height="400"></rect>
                <g id="Group" transform="translate(0.000000, 26.000000)">
                    <g id="Shape" transform="translate(0.000000, 45.000000)" fill="#0C8C87">
                        <path d="M60.1290025,141.898945 C58.4785714,141.898945 57.6078756,142.814336 57.6078756,144.553578 C57.6078756,152.17661 65.67154,163.473849 79.6082323,171.306258 C79.6365312,170.959319 79.6617981,170.804057 79.6617981,170.668013 C79.6617981,170.435372 79.3990228,164.90813 79.2994714,161.644584 C79.2165961,158.92471 70.3226628,141.898945 60.1290025,141.898945" id="Fill-1"></path>
                        <path d="M376.029839,65.7933434 C376.327483,68.7918808 376.469988,71.7995216 376.469988,74.0652406 C376.469988,78.7382859 375.854993,92.7437671 365.178735,97.6934527 C365.963018,110.837151 366.748818,124.00108 367.538154,137.229237 C369.696449,136.970298 369.905153,136.929839 370.532782,136.929839 L370.586348,136.929839 C371.143229,136.929839 375.560886,137.004183 375.560886,140.144328 C375.560886,140.150396 375.561392,140.165569 375.561392,140.189338 C375.561392,140.59646 375.4391,143.561618 370.989101,148.395489 C371.279165,149.656301 371.419143,150.888792 371.419143,152.094478 C371.419143,157.872567 368.606942,160.203021 368.606942,161.926586 C368.606942,161.976148 369.642378,189.767619 369.642378,190.256165 C369.642378,191.836605 368.63423,192.054579 368.212274,193.107026 C367.900481,193.884349 367.605364,193.45801 354.075468,194.959554 C352.327507,200.128226 352.268888,203.401886 342.935817,220.176804 C354.38524,219.260402 400,211.328868 400,150.282408 C400,112.759978 385.644383,82.118152 376.029839,65.7933434" id="Fill-3"></path>
                        <path d="M38.0185327,176.909158 L38.0185327,176.908652 C38.0185327,172.61289 43.757141,174.456821 75.1067398,173.116607 C76.7420107,173.044286 76.640438,172.987138 76.8466155,172.86576 C72.9348009,170.433652 68.5590868,167.246473 64.7781545,163.391717 C64.6609163,163.274385 63.6563061,162.254811 62.5698313,160.982367 C62.2802731,160.646555 61.5237834,159.745325 60.7182761,158.653937 C58.1314554,155.467769 55.0392975,149.069136 55.01302,144.754155 C55.01302,144.752132 55.01302,144.731903 55.01302,144.706616 C55.01302,141.931616 56.2930389,140.73655 56.3213378,140.704688 C56.6230241,140.383037 57.7473992,139.235005 59.9344982,139.235005 C70.8674668,139.235005 78.5319148,153.466047 78.8770601,153.953581 C78.8770601,153.392209 78.8866615,152.946145 78.8866615,152.526381 C78.8866615,151.391498 76.4014135,97.2418261 76.4014135,96.0791279 C76.4014135,95.9825314 76.4009082,95.8945325 76.4009082,95.8004647 C76.4009082,93.2419218 76.9355549,93.809363 107.341184,92.4737015 C112.168164,75.3371788 126.311539,41.2097868 162.181379,41.2097868 C180.187551,41.2097868 204.373491,52.598059 216.318649,82.9485785 C218.969143,89.682012 228.811088,104.003581 228.811088,113.009308 C228.811088,114.945284 227.722087,116.921214 227.722087,117.952419 C227.722087,118.764639 237.149656,165.877433 237.149656,168.48655 C237.149656,169.888464 236.683735,169.656329 225.795742,172.718589 C225.895798,173.278445 226.32584,175.682231 226.330894,175.710552 C230.779376,174.083078 235.454755,172.907736 242.13986,172.907736 C242.785681,172.907736 243.684676,172.922403 244.712026,172.994218 C244.724659,172.979552 244.767613,172.938081 244.801976,172.897116 C244.770645,171.758693 244.823706,171.818371 244.370924,167.589872 C243.54874,160.138792 241.427335,141.266061 236.001025,92.7665254 C233.050361,92.9162247 231.344343,93.0138327 230.331648,93.0553034 C229.895036,93.0770503 229.823279,93.079579 229.742425,93.079579 C229.722211,93.079579 229.701492,93.0790733 229.674204,93.0790733 C229.544332,93.0790733 229.424062,93.0841307 229.311372,93.0841307 C229.130461,93.0841307 228.97027,93.0714872 228.825743,93.0037179 C227.221298,92.3128759 227.604343,85.3164571 224.225659,16.720298 C209.242414,8.43424002 185.442552,0 155.959668,0 C140.509996,0 123.499338,2.31578732 105.378455,8.18339256 C110.056866,12.8124385 113.11365,18.9460634 113.11365,26.3561782 C113.11365,33.7015582 109.562141,39.0320667 107.983467,41.4459677 C107.539276,42.2672909 107.241127,42.7366184 107.241127,42.7806178 C107.241127,43.1184527 107.475098,43.4522417 107.954663,44.0576134 C111.549631,48.597649 115.564029,48.0468972 115.564029,49.9388737 C115.564029,51.4014762 111.184778,53.5402542 107.19312,53.5402542 L107.19312,53.5402542 C102.303478,53.5402542 98.5685315,50.6089803 98.1465751,50.3181793 C96.3379735,51.1233188 88.9747064,55.2304401 78.9048536,55.2304401 C78.3883991,55.2304401 77.8689125,55.2167851 77.34791,55.1930153 C72.4143037,55.0114543 68.3109663,53.9812603 64.8953927,52.4230727 C60.2922769,50.5381766 56.7726039,48.029702 54.2353062,45.5768589 C53.6410297,45.0038546 53.1548954,44.4768726 52.9704474,44.2740705 C52.602562,43.8694779 51.9693745,43.1579005 51.2300663,42.1626025 C47.2379031,36.7698879 46.780573,31.9688901 46.5749008,31.1445325 C35.8526578,40.6084609 0,85.4241799 0,137.460867 C0,199.649289 33.5442779,219.353458 39.1449292,222 C38.540546,200.031124 38.0200487,177.253062 38.0185327,176.909158" id="Fill-6"></path>
                    </g>
                    <g id="Line" transform="translate(38.000000, 0.000000)" fill="#000000">
                        <path d="M312.011879,204.019781 C312.011879,204.542979 312.42974,205.421365 313.373964,205.421365 C315.06408,205.421365 329.253687,195.482631 330.137857,194.960442 C330.196397,195.342371 330.221631,195.710678 330.221631,196.070408 C330.221631,208.566604 311.160513,217.744003 301.501265,221.543618 C294.754931,216.106299 288.007588,210.667971 281.181517,205.166578 C286.092897,172.998256 290.61619,171.77578 291.245505,171.77578 C292.652001,171.77578 292.724672,173.413989 292.724672,174.898315 C292.724672,175.069856 292.723663,175.238873 292.723663,175.402845 C292.723663,178.47846 291.933361,182.642345 291.933361,184.304266 C291.933361,186.948508 293.295446,187.471705 294.617663,187.471705 C299.064247,187.471705 305.234256,179.301348 319.9149,179.301348 C320.744061,179.301348 324.284272,179.509719 324.284272,181.158018 C324.284272,184.424344 305.673313,191.542757 304.476757,192.431234 C304.088167,192.719825 303.908507,193.097213 303.908507,193.484188 C303.908507,194.165303 304.419226,194.843896 305.272611,194.843896 C309.234214,194.843896 325.006949,184.318898 332.072734,184.318898 C332.780776,184.318898 333.40353,184.500528 334.083816,184.790129 C332.144396,193.799519 312.011879,201.486536 312.011879,204.019781 M299.35241,237.872223 C300.113946,235.519601 304.890076,225.888629 304.890076,225.073309 C304.890076,224.576347 304.640268,224.136397 304.281453,223.698465 C312.37776,219.734374 320.407956,215.766246 327.286007,209.480308 C327.608991,218.114833 327.9239,226.523833 328.242343,235.035252 C318.579562,235.983768 309.021751,236.922194 299.35241,237.872223 M268.216727,304.274917 C268.157177,304.226482 268.098132,304.178047 268.039086,304.129107 C268.576552,302.653862 272.611837,297.533893 280.469943,278.616544 C295.238903,243.061313 297.839935,240.845418 298.421812,240.845418 C298.505081,240.845418 298.546968,240.890321 298.577248,240.890321 C298.841186,240.890321 312.126437,239.571985 312.302565,239.571985 C312.398955,239.571985 312.501402,239.57703 312.618484,239.57703 C312.402993,240.5427 300.202767,280.192696 268.216727,304.274917 M272.345879,198.501738 C270.317134,198.501738 271.25934,202.061701 245.357516,227.488998 C245.180884,227.334612 237.320255,222.669224 237.320255,206.567152 C237.320255,169.467051 274.861624,188.817286 284.062133,153.805939 C284.256428,153.066298 290.184704,133.412336 305.530998,132.486523 C307.78129,132.3503 313.010607,131.998643 313.310377,131.998643 C314.942456,131.998643 312.931879,133.259463 322.233321,133.259463 C322.528045,133.259463 322.844468,133.256436 323.218423,133.256436 C324.112686,148.174881 325.000893,162.996455 325.889604,177.824084 C325.791195,177.824084 325.718019,177.836193 325.665029,177.836193 C325.400081,177.836193 323.955231,176.313522 320.088504,176.313522 C306.273357,176.313522 297.765245,183.922337 294.884125,184.479843 C295.345891,179.168152 295.687043,177.374044 295.687043,175.568836 C295.687043,171.838846 294.976478,170.801028 294.09029,169.934246 C293.286867,169.149197 292.319428,168.747592 291.338868,168.747592 C283.492369,168.747592 279.623118,195.25307 278.720276,203.062688 C275.332474,200.776663 273.540416,198.501738 272.345879,198.501738 M188.519857,302.309773 C174.83794,281.189142 136.483055,270.032977 100.040337,231.857218 C102.701929,231.525742 105.224235,231.317876 107.719793,231.317876 C108.023095,231.317876 108.325388,231.320903 108.627681,231.327462 C110.179015,233.642749 123.985583,258.00448 155.468473,258.00448 C159.30593,258.00448 193.166288,257.542835 201.752623,220.337791 L207.085396,220.337791 C209.11414,240.66076 208.392472,243.720229 210.810312,243.720229 C211.00057,243.720229 232.398782,241.470026 232.612759,241.470026 C232.708645,241.470026 232.831278,241.490207 233.097236,241.509379 C200.100356,280.514586 199.347904,283.16034 188.519857,302.309773 M195.000738,323.182679 C195.000738,324.402632 194.455702,329.211811 191.44892,329.211811 C188.718189,329.211811 185.767425,325.930853 185.767425,321.165064 C185.767425,316.403311 188.778749,308.803072 189.365167,308.114389 C192.103468,311.437728 195.000738,317.995103 195.000738,323.182679 M65.2973241,246.70856 C64.9556673,245.826137 64.7593534,244.780751 64.7593534,243.093603 C64.7593534,227.240265 84.3756006,219.711165 84.8202086,219.711165 C84.8742075,219.711165 84.945365,219.719742 85.0503349,219.719742 C88.1333206,226.445126 88.0076595,228.08838 89.6528606,228.08838 C90.5360207,228.08838 114.994508,224.966853 117.510253,224.754446 C117.715146,226.022834 117.911965,227.240265 118.128465,228.583828 C117.886227,228.583828 117.666699,228.585342 117.455749,228.585342 C115.623318,228.585342 111.465905,228.379493 108.353649,228.379493 C81.9794611,228.379493 70.7880565,240.189529 65.2973241,246.70856 M71.3073546,216.532627 C70.7264876,215.820735 70.3182153,215.463024 69.9225596,215.463024 C69.5203433,215.463024 69.1322575,215.833349 68.5907542,216.578539 C63.2690839,216.730907 57.8989659,216.885293 52.2628906,217.046743 C57.9998985,212.138676 70.5634815,205.106538 70.5634815,196.777759 C70.5634815,193.837863 69.1479021,190.819765 66.4242364,190.819765 C63.7283271,190.819765 53.1167802,194.583558 46.6929261,211.943928 C46.6818235,211.975208 46.6424598,211.99539 46.5319386,212.100332 C42.0656719,200.407852 41.0477668,141.809731 41.0477668,141.761296 C41.0477668,141.536781 41.0528134,141.294102 41.0528134,141.00097 C42.2453319,140.816312 43.3994959,140.904605 44.5995843,140.832457 C47.3994541,150.33225 50.0131033,158.125724 50.0131033,162.637734 C50.0131033,163.198772 49.9873655,163.949008 49.9873655,164.273925 C49.9873655,164.979258 50.1150452,165.930801 51.1622208,165.930801 C52.2063683,165.930801 52.5000821,164.823863 52.5000821,162.769921 C52.5000821,155.687331 48.5591695,145.167882 47.2561299,140.688666 C51.4801584,140.494422 55.5421901,140.307241 59.6834539,140.116529 C61.7490392,145.908028 60.885561,150.401875 63.1308062,150.401875 C63.7732421,150.401875 64.4237526,149.953348 64.4237526,149.170823 C64.4237526,148.626435 62.7295992,142.023147 62.3627093,140.006541 C64.4762375,139.90614 66.5392995,139.807757 68.7371065,139.703319 C68.2874518,143.017071 67.499673,147.836845 67.499673,154.745878 C67.499673,159.44406 69.0979404,166.711813 69.3255434,170.468543 C69.017699,170.430703 68.7149013,170.413045 68.4166455,170.413045 C56.5066009,170.413045 56.00648,184.846131 50.5581393,189.187611 C49.8142661,189.779929 49.3363504,190.190112 49.3363504,190.837424 C49.3363504,191.257193 49.6623626,192.088154 50.6146615,192.088154 C51.7405644,192.088154 54.8775491,189.266822 56.3324922,185.96871 C56.5575719,185.458631 60.2587696,172.894323 68.2263876,172.894323 C68.5635024,172.894323 68.8193665,172.855474 69.0298109,172.855474 C70.3924008,172.855474 69.8281877,174.46997 76.8737865,198.625347 C73.7539604,202.205996 70.317206,204.893122 70.317206,210.201786 C70.317206,210.267879 70.3146827,210.359704 70.3146827,210.468682 C70.3146827,211.085722 70.3979521,212.241096 71.5092198,212.241096 C71.5112385,212.241096 71.5188084,212.2416 71.5294063,212.2416 C71.6893845,212.2416 72.6977009,212.191147 72.6977009,210.644259 C72.6977009,210.602887 72.6971963,210.586742 72.6971963,210.547389 C72.6971963,206.410244 75.4037034,204.19788 77.8467766,201.63285 C79.7892241,206.420839 80.9327902,211.430821 83.5257483,216.114372 C79.3092897,216.3848 75.2825844,216.319211 71.3073546,216.532627 M48.2311386,216.124967 C51.931327,200.935085 62.3223363,193.506892 66.343995,193.506892 C67.4986637,193.506892 67.9377204,195.643576 67.9377204,196.50279 C67.9377204,203.901721 50.013608,215.563425 48.2311386,216.124967 M44.5556787,216.957946 C44.3553275,216.697608 44.290226,216.419108 44.290226,216.131526 C44.290226,215.72992 44.4168964,215.310656 44.4809885,214.899464 C44.5905004,215.573011 44.6995076,216.246559 44.8090194,216.920106 C44.7242361,216.933224 44.6399574,216.945332 44.5556787,216.957946 M41.5342618,215.668872 C27.6161635,207.855722 19.5632576,196.585533 19.5632576,188.980249 C19.5632576,187.245171 20.4327917,186.331972 22.0810208,186.331972 C32.2610809,186.331972 41.1431481,203.316971 41.2259128,206.030333 C41.3253314,209.286064 41.5877561,214.800071 41.5877561,215.032155 C41.5877561,215.168378 41.562523,215.322764 41.5342618,215.668872 M95.0017827,148.950343 C102.232088,148.950343 100.29065,163.126624 103.600229,163.126624 C104.218946,163.126624 104.877026,162.632689 104.877026,161.806774 C104.877026,161.168543 104.246703,158.360835 103.720844,155.98803 C103.768282,155.965327 116.877406,153.406351 122.138012,140.354163 C132.500255,114.642815 135.103307,125.947311 147.795579,113.425888 C148.195776,113.031346 148.558629,112.825498 149.061778,112.825498 C167.372967,112.825498 187.758825,146.722339 187.758825,158.416837 C187.758825,158.820461 187.630641,159.191795 187.337431,159.51419 C181.872941,165.520618 175.689811,164.991366 175.689811,168.452442 C175.689811,170.03162 186.166613,225.799832 186.166613,226.101541 C186.166613,228.240748 176.137952,241.607763 152.095811,241.607763 C140.158515,241.607763 122.384287,236.607367 120.830935,226.748853 C119.41586,217.764689 112.128528,184.302248 110.026607,180.729167 C109.394769,179.655528 108.560561,179.129808 107.559814,179.129808 C106.63073,179.129808 105.919155,179.528891 104.592901,180.126254 C103.430158,177.524898 103.167733,176.505748 101.954524,176.505748 C101.123848,176.505748 100.506646,177.194431 100.506646,177.929531 C100.506646,178.418421 100.742323,178.776132 101.718846,180.917357 C100.867984,181.52582 99.974731,181.826015 99.1248787,181.826015 C92.5047107,181.826015 88.8771937,156.460775 88.8771937,154.135901 C88.8771937,150.486132 92.8857312,148.950343 95.0017827,148.950343 M204.003924,163.729537 C203.929234,163.729537 203.864132,163.691697 203.647127,163.626109 C202.70694,155.203486 201.759688,146.724357 200.794268,138.082264 C208.667009,137.661991 216.396931,137.249286 224.203561,136.832544 C224.227785,137.055546 224.279261,137.243231 224.279261,137.417294 C224.279261,147.168848 212.817357,163.729537 204.003924,163.729537 M302.370799,125.806548 C302.370799,128.508305 302.019553,129.309499 301.991797,129.408387 C288.930616,130.059735 275.933023,130.707551 262.969242,131.354863 C262.325797,129.294867 262.018458,127.190978 262.018458,125.112314 C262.018458,114.860267 269.749389,104.658168 281.918325,104.658168 C291.563443,104.658168 302.370799,112.45265 302.370799,125.806548 M192.23468,134.884554 C191.952574,132.076341 189.613966,79.9765655 187.405056,36.2444186 C188.266011,35.9603683 242.937153,34.4336608 251.081908,34.4336608 C251.571935,34.4336608 251.89391,34.4392107 252.024618,34.4508149 C251.368556,35.0794591 244.014104,41.111114 244.014104,49.3758182 C244.014104,55.0643928 249.14703,62.6535315 249.14703,67.581275 C249.14703,70.1205739 247.959558,71.6836076 244.832667,74.6346029 C244.028739,75.3934159 242.401201,75.0468038 242.401201,76.4731099 C242.401201,77.4503843 243.049693,77.868135 244.188212,77.868135 C245.930309,77.868135 251.860098,73.0599651 251.860098,67.5338492 C251.860098,62.3144874 246.69134,54.1052815 246.69134,49.3778363 C246.69134,42.0081682 254.044279,36.1419991 255.39072,34.8196262 C255.474998,34.8640248 255.559782,34.9079189 255.644565,34.951813 C259.753026,61.4880674 277.137149,90.7286021 308.966238,90.7286021 C317.175085,90.7286021 323.678676,88.4380363 323.893158,88.4380363 C323.921419,88.4380363 323.952708,88.4486315 323.981474,88.4511541 C324.200497,89.0919071 324.347354,91.6650095 324.347354,94.0014875 C324.347354,95.0705863 324.31657,96.0897367 324.247936,96.8520814 C317.502611,97.7279453 310.632635,99.9710852 310.632635,109.039506 C310.632635,110.412331 310.95461,111.011713 310.95461,111.224625 C310.95461,111.476385 310.285427,113.758878 310.285427,115.331498 C310.285427,117.861715 311.223596,119.909602 313.830684,121.009982 C312.373722,122.764232 311.713623,124.745017 311.713623,126.934676 C311.713623,127.409439 311.744912,127.894292 311.805472,128.388732 C309.547105,129.082965 307.250384,129.04563 304.882001,129.266109 C304.971327,127.736879 305.06368,127.287343 305.06368,125.859523 C305.06368,112.055081 293.980778,101.920589 281.899653,101.920589 C269.247249,101.920589 259.31952,112.523284 259.31952,125.023013 C259.31952,128.323647 260.043712,130.940139 260.043712,131.176259 C260.043712,131.238821 260.002329,131.318537 259.952368,131.504708 C237.435318,132.628801 214.876381,133.754407 192.23468,134.884554 M223.699403,19.2316706 C223.699403,17.9567235 225.374379,14.6606297 232.241832,14.6606297 C242.423406,14.6606297 253.186352,23.6205761 253.887329,30.3166969 C247.715806,29.4019842 223.699403,27.6391567 223.699403,19.2316706 M274.476061,2.70226212 C276.644598,2.70226212 278.66981,4.09022386 278.66981,6.90499615 C278.66981,16.6348552 260.920816,24.2840329 257.144928,29.3908845 C256.483819,28.2042302 255.977643,27.0972916 255.977643,25.8162902 C255.977643,18.6005037 266.347961,2.70226212 274.476061,2.70226212 M331.636705,100.807091 C332.444166,100.895889 332.895335,101.313135 333.12647,101.98315 C334.470388,105.875094 335.079516,115.867309 335.079516,118.601356 C335.079516,134.733195 327.161859,138.644815 326.595628,139.02069 C325.190646,128.342819 328.245371,130.900786 317.454668,130.192426 C315.989127,130.095556 314.688611,129.676292 314.688611,126.804508 C314.688611,123.954418 315.912923,120.872245 324.469483,120.872245 C326.415463,120.872245 327.079599,121.407551 327.800258,121.407551 C328.902442,121.407551 329.027094,120.29809 329.027094,120.111414 C329.027094,118.443438 325.552489,118.190164 324.560322,118.190164 C321.622679,118.190164 318.286353,118.613465 317.949743,118.613465 C317.585376,118.613465 317.219496,118.560994 316.848064,118.398535 C315.84227,117.95909 313.214995,118.845044 313.214995,115.236142 C313.214995,112.218548 314.125407,109.246363 323.054913,109.246363 C326.789418,109.246363 328.626896,109.819004 329.124998,109.819004 C330.197911,109.819004 330.45529,108.926491 330.45529,108.499154 C330.45529,106.602626 325.103339,106.370542 321.278499,106.370542 C316.833933,106.370542 316.180899,106.976987 313.652538,108.334173 C313.915972,105.854913 314.448391,103.780286 316.538201,102.391315 C318.959573,100.781865 321.547989,99.9196232 324.347859,99.9196232 C326.403351,99.9196232 328.637494,100.478642 331.636705,100.807091 M68.5034475,314.654106 C53.3196547,295.129808 29.9477062,244.378641 29.652983,243.716698 C29.7105146,243.657163 29.7680462,243.597629 29.8250731,243.538599 C38.29584,248.582889 57.1833539,264.076497 57.4735351,276.514168 C57.8944239,294.575834 68.2637327,313.282793 68.5034475,314.654106 M85.309227,341.884089 C67.5587186,336.16726 50.0378318,330.524598 32.516945,324.881936 C32.519973,324.788093 32.5235056,324.694251 32.5265336,324.599903 C33.9658322,324.256319 37.3233545,323.282576 42.2155568,323.282576 C60.7250782,323.282576 84.2973778,340.393203 85.309227,341.884089 M9.93176599,242.310068 C9.93176599,246.93358 14.544385,256.293114 14.544385,259.184071 C14.544385,263.867622 7.66381089,266.53154 7.66381089,269.614217 C7.66381089,270.287765 8.19269762,271.960786 8.19269762,273.037453 C8.19269762,275.720543 4.64542205,276.903161 4.23462644,277.070665 C3.71230034,258.371273 3.19401153,239.816682 2.6706761,221.075919 C8.01455161,220.922542 13.1903744,220.77421 18.4191867,220.624364 C18.4958955,222.353388 18.3974862,221.636956 18.9132517,222.917453 C19.3457478,223.991597 19.6031259,225.061705 19.6031259,226.1192 C19.6031259,232.34308 9.93176599,235.917675 9.93176599,242.310068 M337.092111,184.581758 C337.092111,181.449132 332.680853,181.374461 332.12421,181.374461 C332.096453,181.374461 332.078285,181.374966 332.070716,181.374966 C331.44342,181.374966 331.235498,181.415328 329.080083,181.673647 C328.2918,168.477163 327.507049,155.344755 326.723812,142.232527 C337.385825,137.294693 338,123.322747 338,118.660891 C338,112.209467 336.849873,99.7253792 334.195346,98.6507305 C333.411605,98.3333812 332.780272,98.2400431 327.095749,97.1280593 C326.608244,91.4515934 326.550713,81.9598725 326.550713,71.8662474 C326.550713,68.7154582 326.556264,65.5061435 326.556264,62.3356777 C326.556264,45.5030468 326.39679,29.7728137 324.388232,29.7728137 C323.036745,29.7728137 261.437086,31.4473484 260.185017,31.4473484 C259.889789,31.4473484 259.591029,31.4029498 259.251895,31.3787323 C261.35634,26.9590504 281.418204,18.6711378 281.418204,7.04222828 C281.418204,2.88944271 278.321593,0 274.535612,0 C267.681785,0 257.664226,8.86156309 253.702622,23.3355167 C253.420011,23.0105995 245.377703,11.923555 232.018266,11.923555 C225.131132,11.923555 220.97927,15.6681759 220.97927,19.2377249 C220.97927,29.1310516 241.497854,31.1673343 244.392601,31.6390698 C239.208199,32.9644698 184.072767,31.8207005 184.072767,34.6258867 C184.072767,35.4351527 184.658176,35.719203 184.716212,36.8342141 C189.800186,135.389588 188.670751,137.634746 191.036106,137.634746 C191.14915,137.634746 191.270269,137.629197 191.399968,137.629197 L191.470116,137.629197 C191.668448,137.629197 191.825903,137.615574 197.718347,137.317397 C206.102817,212.180048 206.587798,216.285407 206.587798,216.905475 C206.587798,216.986704 206.579219,217.008399 206.579219,217.120909 C206.579219,217.200625 206.444474,217.323225 206.417727,217.352993 C205.562828,217.293963 204.706919,217.266718 203.848992,217.266718 C196.627771,217.266718 191.804203,218.695042 188.061118,220.062823 C187.866318,218.977074 187.702807,218.061857 187.52668,217.078024 C198.414782,214.019059 198.865446,214.251143 198.865446,212.856118 C198.865446,210.259807 189.450455,163.273442 189.450455,162.442986 C189.450455,161.440485 190.538004,159.402184 190.538004,157.511711 C190.538004,148.503834 179.432896,131.234785 179.200751,130.575364 C167.487525,97.3394573 141.845098,85.884106 123.99719,85.884106 C117.346238,85.884106 83.5025338,86.4118443 69.2301621,137.025274 C38.8413806,138.357738 38.3311664,137.795187 38.3311664,140.345081 C38.3311664,140.433878 38.331671,140.525703 38.331671,140.622068 C38.331671,141.997921 40.8136032,195.753563 40.8136032,196.934163 C40.8136032,197.348887 40.8045193,197.802459 40.8045193,198.357947 C39.851211,197.013879 32.5502528,183.674613 21.8867256,183.674613 C19.7499828,183.674613 16.9718135,184.860763 16.9718135,189.133122 L16.9718135,189.145735 C16.9718135,189.788002 17.0525596,203.735226 38.7762791,217.224842 C38.2292245,217.547741 40.5920562,217.389319 2.88818581,218.394847 C0.994185925,218.445804 0,219.438719 0,221.258054 C0,221.306489 2.79734649,348 4.83668929,348 C5.98631139,348 6.13871959,346.984381 6.13871959,346.249281 C6.13871959,342.905762 4.32647509,282.83845 4.32647509,281.01962 C4.32647509,280.646773 4.33253105,280.289061 4.33253105,279.970702 C6.44252666,278.924812 10.8608504,277.481352 10.8608504,272.910816 C10.8608504,271.47896 10.3955512,270.24488 10.3955512,269.884645 C10.3955512,268.434626 17.1888186,264.678906 17.1888186,259.310203 C17.1888186,255.92178 12.565097,245.573368 12.565097,242.084544 C12.565097,237.627022 22.1092819,234.021147 22.1092819,226.095487 C22.1092819,223.555179 21.1913001,222.302935 20.5786393,220.572398 C28.2792906,220.356964 35.8668974,220.145061 43.6548554,219.927609 C40.9387596,226.511724 36.8267662,222.467917 30.5472457,227.518261 C28.9999492,228.762936 28.3792139,229.785114 28.3792139,234.7845 C28.3792139,235.653806 29.1745626,236.041284 29.6756929,236.041284 C31.2603344,236.041284 31.2694183,233.08373 31.2694183,232.954571 L31.2694183,232.951039 C31.2694183,232.426832 31.1967469,232.315836 31.1967469,231.846118 C31.1967469,228.80128 36.096519,227.321494 38.375072,227.017263 C44.1807141,226.241296 45.3353828,221.965909 46.0817793,220.588038 C47.4080334,221.141003 47.8894818,221.771665 47.8894818,222.98506 C47.8894818,224.254457 46.78427,228.095443 46.78427,230.867835 C46.78427,239.56593 54.1563858,239.521532 54.1563858,243.509841 C54.1563858,244.421021 53.3620464,247.850311 53.3620464,248.900238 C53.3620464,250.167112 54.4223431,250.323012 54.7402808,250.323012 C56.0816748,250.323012 56.0241432,249.309916 56.7281479,244.842304 C56.7927448,244.432626 56.8250432,244.035056 56.8250432,243.649091 C56.8250432,237.38182 49.4594881,238.379276 49.4594881,231.13574 C49.4594881,228.487967 50.4390388,225.001666 50.4390388,223.232784 C50.4390388,221.094586 49.513487,220.166251 49.513487,219.986639 C49.513487,219.933663 49.5250943,219.861515 49.5250943,219.764646 C59.5310457,219.488163 69.5299319,219.211176 79.528818,218.934694 C79.3945777,219.517426 62.1865819,227.25641 62.1865819,242.631958 C62.1865819,246.486062 63.4280527,248.52739 63.4280527,249.219605 C63.4280527,250.730168 59.9953356,252.782091 57.6052521,267.329706 C57.1646814,266.845862 46.9659487,248.404285 27.1937607,239.482178 C26.8950003,239.347469 26.6376222,239.281375 26.4100192,239.281375 C25.4092727,239.281375 24.7042586,240.952378 24.6896234,242.127429 C24.6800348,242.854456 24.6754928,243.580979 24.6754928,244.308007 C24.6754928,283.980706 35.3874676,302.891496 51.0315131,321.552038 C49.1289339,321.245789 46.206431,320.626731 42.1141195,320.626731 C36.3912422,320.626731 32.430143,321.852738 28.3065424,323.168048 C27.4662787,323.435953 27.0620437,323.906679 27.0620437,324.559541 C27.0620437,325.159427 37.0059216,347.338057 71.9997521,347.338057 C84.452814,347.338057 84.324125,345.325992 86.9286902,345.325992 C88.1873195,345.325992 88.5304903,345.829512 89.1613189,345.829512 C90.0904033,345.829512 90.8953407,344.668085 90.8953407,344.025313 C90.8953407,342.683264 60.2981333,307.883819 60.2981333,273.433509 C60.2981333,247.17525 78.2227504,238.405512 83.1371578,236.348039 C85.8431603,237.995329 95.0305485,244.655628 95.5034177,245.304958 L95.4973617,245.304958 C95.4524467,245.304958 95.4075317,245.307985 95.363626,245.307985 C95.0699122,245.307985 90.6202994,244.522432 89.4999477,244.522432 C88.9054548,244.522432 85.9713447,244.708099 85.9713447,246.498171 C85.9713447,246.813502 86.0647073,247.157087 86.2544606,247.51934 C86.3730564,247.51934 86.5062874,247.518331 86.644565,247.518331 C86.9014384,247.518331 86.917083,247.521862 87.1961616,247.521862 C87.7472535,247.521862 88.300364,247.504708 88.8514559,247.504708 C112.641265,247.504708 170.071399,283.858105 187.222873,305.239578 C184.623354,311.438232 182.80354,316.775654 182.80354,321.136306 C182.80354,329.012017 188.176686,332.169365 191.498882,332.169365 C196.39714,332.169365 197.955539,326.336495 197.955539,323.266935 C197.955539,314.231814 191.835997,306.37477 190.717159,304.807196 C202.000917,275.898137 265.925558,210.524685 266.115311,210.409148 C271.55911,214.411583 271.675687,214.595737 272.340833,214.595737 C273.230553,214.595737 273.632265,213.796561 273.632265,213.322303 C273.632265,212.38085 273.061996,212.242609 267.714083,208.234119 C269.321434,206.112571 270.869236,204.071748 272.473559,201.954236 C282.305906,209.879896 292.051956,217.735931 301.828286,225.616688 C301.008714,227.41685 300.231533,229.124684 299.402372,230.945533 C293.670915,226.861868 293.590169,226.596989 292.796334,226.596989 C291.943454,226.596989 291.555873,227.40121 291.555873,227.853773 C291.555873,228.887051 292.030256,228.899664 298.16292,233.348104 C270.807667,289.119343 264.719413,318.175724 231.303159,339.955775 C230.499231,340.479982 229.722555,340.955754 229.722555,341.901747 C229.722555,342.722617 230.375589,343.354289 231.094229,343.354289 C231.179517,343.354289 246.103913,337.937656 264.892008,308.939295 C264.924811,308.888842 297.320132,293.359412 315.635359,239.265735 C329.147203,237.767786 329.441926,238.193104 329.753303,237.417642 C330.174697,236.367715 331.181499,236.150263 331.181499,234.573607 C331.181499,234.086231 330.147445,206.361304 330.147445,206.31186 C330.147445,204.592422 332.955894,202.267549 332.955894,196.503295 C332.955894,195.300495 332.816103,194.070956 332.526426,192.813163 C336.970488,187.990362 337.092616,185.032807 337.092616,184.626661 C337.092616,184.602948 337.092111,184.587812 337.092111,184.581758" id="Fill-1"></path>
                        <path d="M69.1408873,95.5025144 C63.2035282,95.5025144 61.4669831,91.8562768 60.3062584,91.8562768 C59.1677389,91.8562768 52.7590247,97.1609042 41.1593478,97.1609042 C22.9162884,97.1609042 10.8805827,84.8054715 10.8805827,71.7467243 C10.8805827,57.6693311 24.8980996,45.6963322 42.3564082,45.6963322 C57.904063,45.6963322 72.3298522,56.3242544 72.3298522,71.0222193 C72.3298522,76.923201 69.311968,83.0794748 67.6183193,84.062299 C66.6640017,84.6162728 66.272888,85.3564182 66.272888,86.4002905 C66.272888,89.0556314 67.7515503,91.328034 72.9929792,94.719484 C71.7010422,95.3829408 70.4202077,95.5025144 69.1408873,95.5025144 M69.8428734,88.7251643 C69.3639483,88.121242 69.1302893,87.7882523 69.1302893,87.4512263 C69.1302893,86.5879757 74.994977,80.4872002 74.994977,71.0656089 C74.994977,53.4615518 57.7208703,43.0460366 42.3488382,43.0460366 C20.1552776,43.0460366 8.21848589,59.1077458 8.21848589,71.7729598 C8.21848589,89.6131369 25.6278422,99.8712388 40.8318215,99.8712388 C50.8917719,99.8712388 58.2517757,95.7694107 60.047871,94.9707399 C60.546478,95.3138202 64.2426291,98.1845953 69.0823464,98.1845953 C72.9389803,98.1845953 77.4420874,96.1129956 77.4420874,94.5923425 C77.4420874,92.6948055 73.4507085,93.277033 69.8428734,88.7251643" id="Fill-4"></path>
                        <path d="M159.036188,170.639982 L158.872677,170.461379 C155.623153,171.537541 155.022604,171.922497 153.707452,172.011799 C140.187028,172.930043 138.191087,172.476976 138.191087,174.491563 C138.191087,175.921906 140.994489,182.006032 146.673461,182.006032 C150.149074,182.006032 155.253739,179.079254 159.036188,170.639982 M146.596247,184.980235 C139.715169,184.201746 135.166137,178.912759 135.166137,174.644436 C135.166137,168.622872 140.17643,170.004275 153.197238,169.068372 C157.599917,168.751527 159.080094,166.937742 160.370012,166.937742 C161.394478,166.937742 162.237769,167.725313 162.237769,168.932653 C162.237769,174.862897 154.288319,184.888916 146.596247,184.980235" id="Fill-6"></path>
                        <path d="M97.1935337,170.643968 C98.7822126,176.459684 98.8851638,176.762402 98.8851638,176.966737 C98.8851638,176.997513 98.8826405,177.025262 98.8826405,177.068652 C98.8826405,178.183663 97.8612028,178.41171 97.4927988,178.41171 C96.3875871,178.41171 95.907148,176.982377 95.8980641,176.952105 C94.381552,172.034452 94.2584143,171.115199 94.2584143,170.873529 C94.2584143,170.826608 94.2629562,170.804913 94.2629562,170.784732 C94.2629562,168.586495 96.3406534,167.80296 96.986622,167.486115 C95.5125016,162.913056 93.8461047,157.043356 93.8461047,156.99593 C93.8461047,155.909677 94.7630772,155.633195 95.1476303,155.633195 C95.6321067,155.633195 96.1130505,155.909677 96.4108016,156.417234 C96.6520304,156.827921 100.470815,168.190944 100.470815,169.00475 C100.470815,169.963862 99.7905291,170.362945 98.2921849,170.412893 C97.9444721,170.423993 97.6013014,170.554666 97.1935337,170.643968" id="Fill-8"></path>
                        <path d="M130.364522,139.954323 C130.305981,139.954323 128.924214,139.880661 128.924214,138.407434 C128.924214,133.503403 133.87092,129.595819 136.869122,129.595819 C138.374027,129.595819 138.561761,130.650287 138.561761,131.018089 C138.561761,131.827355 137.829496,132.394951 137.235507,132.457008 C131.28755,133.078085 132.951424,139.954323 130.364522,139.954323" id="Fill-10"></path>
                        <path d="M156.243989,124.995818 C161.980997,125.340917 163.636291,129.210661 163.636291,130.028 C163.636291,130.851392 162.973669,131.439674 162.23131,131.439674 C160.352954,131.439674 160.602258,128.018457 156.671438,128.018457 C155.47892,128.018457 155.202365,128.337825 154.644712,128.337825 C153.312907,128.337825 153.159994,127.125944 153.159994,126.88276 C153.159994,125.532134 154.612918,125.448382 156.243989,124.995818" id="Fill-12"></path>
                        <path d="M133.269261,157.034425 C133.329316,157.034425 133.39038,157.036444 133.452958,157.04048 C137.727957,157.874972 139.078435,157.84016 139.078435,159.323478 C139.078435,159.609546 138.904327,160.773497 137.575549,160.773497 C137.47714,160.773497 137.375703,160.765929 137.271237,160.749279 C132.726243,160.037892 131.565519,159.857775 131.565519,158.485958 C131.565519,157.688296 132.160516,157.034425 133.269261,157.034425" id="Fill-14"></path>
                        <path d="M163.529353,155.522349 C162.506906,155.509736 161.869517,154.866461 161.869517,154.129342 C161.869517,153.624308 162.184931,153.157113 162.53113,152.793347 C165.662563,149.504317 165.870484,149.37768 166.544209,149.37768 C166.957024,149.37768 167.947172,149.789376 167.947172,150.784814 C167.947172,151.217196 167.747326,151.634947 167.23913,152.163189 C163.891701,155.637887 164.57451,154.860911 163.529353,155.522349" id="Fill-16"></path>
                        <path d="M160.835008,148.107627 C160.821382,149.656533 159.541557,149.659561 159.493614,149.659561 C159.098463,149.659561 158.701798,149.479948 158.440383,149.122236 C157.757069,148.186333 157.02985,143.690467 157.02985,143.632951 C157.02985,142.923077 157.468907,142.233385 158.337936,142.233385 C159.539034,142.233385 159.570828,143.080491 160.835008,148.107627" id="Fill-18"></path>
                        <path d="M142.364548,152.258192 C142.363539,152.820239 142.044592,153.824253 140.97622,153.824253 C140.446829,153.824253 139.934596,153.51649 139.744843,152.949398 C139.725666,152.893395 138.245489,148.369276 138.245489,147.827411 C138.245489,147.107951 138.884392,146.580213 139.525819,146.580213 C139.936615,146.580213 140.331261,146.796152 140.613368,147.210371 C140.962594,147.722973 142.112216,151.110387 142.364548,152.258192" id="Fill-20"></path>
                        <path d="M226.971234,114.087327 C221.796925,114.087327 217.554728,109.932019 217.554728,104.764624 C217.554728,96.9080842 224.693185,95.2491899 227.004541,95.2491899 C232.238905,95.2491899 236.403888,99.4973316 236.403888,104.713162 C236.403888,109.92546 232.179859,114.087327 226.971234,114.087327" id="Fill-22"></path>
                        <path d="M211.877927,81.7920154 C203.406655,81.7920154 196.892971,74.3829939 196.892971,65.8211215 C196.892971,57.8571171 202.952963,50.4511228 211.055326,50.4511228 C220.33103,50.4511228 226.333996,57.9529778 226.368313,66.8649939 C226.126075,75.9783174 218.9099,81.7920154 211.877927,81.7920154 M211.38689,47.7675283 C203.277462,47.7675283 194.469075,54.4636491 194.228856,65.1864229 C194.31919,77.5030067 203.15937,84.4281841 211.855722,84.4281841 C222.545996,84.4281841 229.020316,75.1670333 229.020316,66.3569323 C229.020316,57.2622764 222.058492,47.7675283 211.38689,47.7675283" id="Fill-24"></path>
                        <path d="M62.8165526,155.41443 C62.8165526,154.552693 63.5962568,154.267129 64.0701353,154.267129 C64.7009639,154.267129 65.627525,154.676303 65.627525,155.547626 C65.627525,156.427022 64.7574862,156.701486 64.2841124,156.701486 C63.9924172,156.701486 62.8165526,156.508251 62.8165526,155.41443" id="Fill-26"></path>
                        <path d="M50.1189311,170.429644 C49.3841419,170.429644 48.7851071,169.821685 48.7851071,169.024023 C48.7851071,167.897408 49.7646578,167.890849 49.8337966,167.890849 L49.8358152,167.890849 C50.533764,167.890849 51.3023656,168.6204 51.3023656,169.300001 C51.3023656,169.925114 50.7770116,170.429644 50.1189311,170.429644" id="Fill-28"></path>
                        <path d="M47.80162,195.924145 C46.5298695,195.924145 46.5238135,194.79652 46.5238135,194.747077 C46.5238135,193.828328 47.3580213,193.593721 47.8207972,193.593721 C48.5838475,193.593721 49.1137436,194.063439 49.1137436,194.753131 C49.1137436,195.762191 48.1382302,195.924145 47.80162,195.924145" id="Fill-30"></path>
                        <path d="M42.6394231,64.139372 C43.1238995,63.5692533 46.0413558,59.6535967 50.925988,59.6535967 C57.7349,59.6535967 57.8302813,66.1060296 57.8302813,66.619641 C57.8302813,66.6342724 57.8302813,66.644363 57.8302813,66.6489037 C57.8302813,69.9046352 55.6193531,74.4716398 52.7528678,77.1506935 C45.1687936,84.2393385 45.2021014,84.3276313 43.9308555,84.3276313 C39.3253018,84.3276313 27.6600188,76.4786597 27.6600188,66.7528369 C27.6600188,62.2221584 30.8474697,60.5234063 33.6362369,60.5234063 C37.5685703,60.5234063 40.6041176,62.8069086 42.6394231,64.139372" id="Fill-32"></path>
                    </g>
                </g>
            </g>
        </g>
    </g>
</svg>