<?xml version="1.0" encoding="UTF-8"?>
<svg width="24px" height="25px" viewBox="0 0 24 25" version="1.1" xmlns="http://www.w3.org/2000/svg" xmlns:xlink="http://www.w3.org/1999/xlink">
    <title>icon/contact</title>
    <g id="Landing" stroke="none" stroke-width="1" fill="none" fill-rule="evenodd">
        <g id="Landing-Page---Start-State" transform="translate(-1111.000000, -137.000000)">
            <g id="cards/risen-devices/medical-condition-section" transform="translate(1095.000000, 114.000000)">
                <g id="icon/contact" transform="translate(16.000000, 23.763158)">
                    <ellipse id="Oval" fill="#0C8C87" cx="12" cy="11.8815789" rx="12" ry="11.8815789"></ellipse>
                    <g id="Icons/Universal-Icon-Set/Medicine/Solid/Medical-Chart" transform="translate(6.000000, 5.940789)">
                        <rect id="bounding-box" x="0" y="0" width="12" height="11.8815789"></rect>
                        <path d="M10.7136672,10.0770948 L10.4456709,10.3424252 C9.61790443,11.1619575 6.55689089,11.4425235 3.50140504,8.4174045 C0.445891416,5.39228551 0.723609827,2.36711701 1.55693172,1.54208456 L1.82973909,1.27199093 C2.2635498,0.842495536 2.98553434,0.913552831 3.32585189,1.41894021 L4.4481476,3.08558827 C4.70522185,3.46735829 4.65437811,3.97571028 4.32666594,4.30014605 L3.74415171,4.87686023 C3.5953482,5.02415603 3.54550999,5.24157958 3.64263643,5.42638685 C3.81969512,5.7633301 4.18902894,6.3480581 4.89024709,7.04235041 C5.59151525,7.73658772 6.1820627,8.1022421 6.52233581,8.277534 C6.70905546,8.37367778 6.92860801,8.32434084 7.0774393,8.17704505 L7.6599313,7.60034736 C7.98764903,7.2758896 8.50108643,7.22556262 8.88669225,7.48005763 L10.5643914,8.58741619 C11.0777733,8.92622952 11.1499945,9.6451628 10.7136672,10.0770948 Z" id="Path" fill="#FFFFFF"></path>
                    </g>
                </g>
            </g>
        </g>
    </g>
</svg>