<?xml version="1.0" encoding="UTF-8"?>
<svg width="32px" height="32px" viewBox="0 0 32 32" version="1.1" xmlns="http://www.w3.org/2000/svg" xmlns:xlink="http://www.w3.org/1999/xlink">
    <title>icon/medical-condition copy 3@2x</title>
    <g id="Scan-View" stroke="none" stroke-width="1" fill="none" fill-rule="evenodd">
        <g id="Info-Page---Filter" transform="translate(-152.000000, -224.000000)">
            <g id="icon/medical-condition-copy-3" transform="translate(152.000000, 224.000000)">
                <circle id="Oval" fill="#9B9B9B" cx="16" cy="16" r="16"></circle>
                <g id="Icons/Universal-Icon-Set/Medicine/Solid/Medical-Chart" transform="translate(8.000000, 8.000000)">
                    <rect id="bounding-box" x="0" y="0" width="16" height="16"></rect>
                    <path d="M14.2848896,13.5700413 L13.9275611,13.9273412 C12.8238726,15.0309416 8.74252118,15.4087581 4.66854005,11.3350652 C0.594521888,7.26137229 0.964813102,3.18761272 2.07590897,2.07660556 L2.43965212,1.71289144 C3.01806641,1.13452334 3.98071246,1.23021068 4.43446919,1.91077663 L5.93086347,4.15512219 C6.27362914,4.66922223 6.20583747,5.3537804 5.76888792,5.79067286 L4.99220228,6.56728908 C4.79379759,6.76564089 4.72734665,7.05842831 4.85684858,7.30729392 C5.09292682,7.76102924 5.58537192,8.54843705 6.52032946,9.4833866 C7.45535366,10.4182621 8.24275026,10.9106605 8.69644774,11.1467125 C8.94540729,11.2761818 9.23814401,11.2097436 9.43658573,11.0113918 L10.2132417,10.2347978 C10.6501987,9.79787569 11.3347819,9.73010426 11.848923,10.0728129 L14.0858553,11.5640067 C14.7703644,12.0202603 14.8666594,12.988392 14.2848896,13.5700413 Z" id="Path" fill="#FFFFFF"></path>
                </g>
            </g>
        </g>
    </g>
</svg>