<?xml version="1.0" encoding="UTF-8"?>
<svg width="24px" height="24px" viewBox="0 0 24 24" version="1.1" xmlns="http://www.w3.org/2000/svg" xmlns:xlink="http://www.w3.org/1999/xlink">
    <title>Icons/Universal Icon Set/User Interface/Solid/Delete@2x</title>
    <g id="Symbols" stroke="none" stroke-width="1" fill="none" fill-rule="evenodd">
        <g id="Icons/Universal-Icon-Set/User-Interface/Solid/Delete">
            <rect id="bounding-box" x="0" y="0" width="24" height="24"></rect>
            <g id="Trash-Can" transform="translate(4.000000, 2.000000)" fill="#272727">
                <path d="M1,8 C1,6.89543 1.89543,6 3,6 L13,6 C14.1046,6 15,6.89543 15,8 L15,17 C15,18.6569 13.6569,20 12,20 L4,20 C2.34315,20 1,18.6569 1,17 L1,8 Z M5,11 C5,10.4477 5.44772,10 6,10 C6.5523,10 7,10.4477 7,11 L7,15 C7,15.5523 6.5523,16 6,16 C5.44772,16 5,15.5523 5,15 L5,11 Z M9,11 C9,10.4477 9.4477,10 10,10 C10.5523,10 11,10.4477 11,11 L11,15 C11,15.5523 10.5523,16 10,16 C9.4477,16 9,15.5523 9,15 L9,11 Z M6,0 C4.89543,0 4,0.89543 4,2 L1,2 C0.44772,2 0,2.44772 0,3 C0,3.55228 0.44772,4 1,4 L15,4 C15.5523,4 16,3.55228 16,3 C16,2.44772 15.5523,2 15,2 L12,2 C12,0.89543 11.1046,0 10,0 L6,0 Z" id="Combined-Shape"></path>
            </g>
        </g>
    </g>
</svg>