<?xml version="1.0" encoding="UTF-8"?>
<svg width="24px" height="24px" viewBox="0 0 24 24" version="1.1" xmlns="http://www.w3.org/2000/svg" xmlns:xlink="http://www.w3.org/1999/xlink">
    <title>Icons/Universal Icon Set/User Interface/Solid/Edit@2x</title>
    <g id="Symbols" stroke="none" stroke-width="1" fill="none" fill-rule="evenodd">
        <g id="Icons/Universal-Icon-Set/User-Interface/Solid/Edit">
            <rect id="bounding-box" x="0" y="0" width="24" height="24"></rect>
            <g id="Edit" transform="translate(4.000000, 2.000000)" fill="#272727">
                <path d="M0,19.0019538 C0,18.4496538 0.44772,18.0019538 1,18.0019538 L15,18.0019538 C15.5523,18.0019538 16,18.4496538 16,19.0019538 C16,19.5542538 15.5523,20.0019538 15,20.0019538 L1,20.0019538 C0.44772,20.0019538 0,19.5542538 0,19.0019538 Z M1.52524365,9.30547543 C1.59632578,9.19126469 1.76494375,9.18101625 1.87039,9.28645375 L1.87039,9.28645375 L6.7154,14.1314538 C6.8359,14.2519538 6.8052,14.4549538 6.641,14.5006538 L6.641,14.5006538 L1.39825,15.9579538 C0.57358,16.1872538 -0.1854,15.4282538 0.04383,14.6035538 L0.04383,14.6035538 L1.50122,9.36075375 Z M7.2322,3.35543375 C7.4275,3.16017375 7.7441,3.16017375 7.9394,3.35543375 L7.9394,3.35543375 L12.6465,8.06255375 C12.8417,8.25775375 12.8417,8.57435375 12.6465,8.76965375 L12.6465,8.76965375 L8.7678,12.6482538 C8.5725,12.8435538 8.2559,12.8435538 8.0606,12.6482538 L8.0606,12.6482538 L3.35354,7.94119375 C3.15828,7.74593375 3.15828,7.42934375 3.35354,7.23408375 L3.35354,7.23408375 Z M13.9513,0.87868375 L15.1229,2.05025375 C16.2945,3.22183375 16.2945,5.12133375 15.1229,6.29290375 L14.7678,6.64799375 C14.5725,6.84325375 14.256,6.84325375 14.0607,6.64799375 L9.3536,1.94089375 C9.1583,1.74562375 9.1583,1.42904375 9.3536,1.23378375 L9.7087,0.87866375 C10.8803,-0.29289625 12.7798,-0.29288625 13.9513,0.87868375 Z" id="Combined-Shape"></path>
            </g>
        </g>
    </g>
</svg>