<?xml version="1.0" encoding="UTF-8"?>
<svg width="391px" height="400px" viewBox="0 0 391 400" version="1.1" xmlns="http://www.w3.org/2000/svg" xmlns:xlink="http://www.w3.org/1999/xlink">
    <title>illustrations/rise-devices/empty-state</title>
    <defs>
        <polygon id="path-1" points="0 0 391 0 391 288.712531 0 288.712531"></polygon>
    </defs>
    <g id="Landing---Documents" stroke="none" stroke-width="1" fill="none" fill-rule="evenodd">
        <g id="Landing-Page---Document---Empty-State" transform="translate(-633.000000, -140.000000)">
            <g id="illustrations/rise-devices/empty-state" transform="translate(628.000000, 140.000000)">
                <rect id="bounding-box" x="0" y="0" width="400" height="400"></rect>
                <path d="M214.130074,61.7485748 C214.108754,61.774844 214.11422,61.8235516 214.082514,61.9882816 C215.024969,62.0796766 223.666151,61.5997158 223.666151,70.5558833 C223.666151,70.8426558 223.31191,78.4798888 214.492515,78.4798888 C207.004256,78.4798888 205.581279,72.3099021 205.141758,72.0844245 C202.545085,75.082401 200.787001,80.0292264 200.787001,81.5096073 C200.787001,81.725234 200.796294,81.9545425 200.796294,82.0672813 C200.796294,83.4157687 199.981759,84.5666896 198.461475,84.5666896 C197.476379,84.5666896 196.660751,84.0019011 196.296123,82.9204842 C195.688775,82.4903255 195.119693,81.6710537 195.119693,80.1151487 C195.119693,79.808127 195.149213,79.5038417 195.22356,79.2203529 C198.484982,66.726595 205.120985,67.201083 206.08476,64.2124102 C209.171795,54.6454829 217.380015,49.9651808 221.794359,49.9651808 L221.812399,49.9651808 C222.17976,49.9651808 224.209539,49.975579 225.267888,50.7910199 C226.003703,50.9727154 227.044559,51.4981001 227.044559,53.0255467 C227.044559,56.8564769 220.51297,54.0051703 214.130074,61.7485748 M112.460209,167.077264 C112.460209,171.767965 112.83741,175.324162 112.83741,175.413368 C112.83741,176.98405 111.734234,177.549933 110.928445,177.549933 C110.348977,177.549933 109.932963,177.387392 109.629015,177.031663 C108.983947,177.551575 108.174878,177.596999 108.102171,177.596999 C106.484581,177.596999 105.321271,177.253857 105.321271,167.174132 C105.321271,166.614269 105.331658,166.054406 105.331658,165.494543 L105.331658,165.427775 C105.331658,105.691533 160.802062,90.9791195 164.476764,90.9791195 C165.786034,90.9791195 166.70881,92.1059603 166.70881,93.3192706 C166.70881,93.5617137 166.510369,93.8151024 166.151208,94.0870985 C166.439302,94.062471 166.683116,94.050431 166.87445,94.050431 C168.782322,94.050431 168.898215,95.602505 168.898215,95.9193776 C168.898215,99.6879184 112.460209,102.163794 112.460209,167.077264 M128.102568,80.9125295 C128.676022,80.3674429 129.374117,80.0505702 130.022466,80.0505702 C131.397882,80.0505702 132.606565,81.2091529 132.606565,82.596497 C132.606565,82.9336188 132.214058,84.6290791 131.143135,85.5682042 C130.611227,86.6419592 129.657838,87.7408889 128.262741,87.7408889 C126.172829,87.7408889 124.92916,86.045976 124.92916,84.0467777 C124.92916,82.7606797 125.649668,81.0318356 128.102568,80.9125295 M93.4099218,119.113471 C91.5441438,119.113471 86.6645851,117.028898 83.0472828,117.028898 C82.9062425,117.028898 82.7794155,117.034918 82.6908553,117.034918 C82.5164682,119.977619 83.0204961,124.291247 78.1983375,127.37624 C76.9431877,128.178546 75.6060378,128.598854 74.1890742,128.598854 C71.2638537,128.598854 66.1399343,127.573259 66.1399343,121.61069 C66.1399343,119.205961 67.1545502,117.861304 68.2254728,116.617346 C68.3829132,116.366694 68.5485536,116.131913 68.7169274,115.90534 C58.870343,118.490671 59.3432109,124.791457 56.4934305,124.791457 C55.0239868,124.791457 54.3346385,123.660785 54.1006646,122.774746 C53.4468496,122.472102 52.7706213,121.806068 52.7706213,120.477829 C52.7706213,115.859369 61.1685354,109.010761 70.462985,109.010761 C74.4968483,109.010761 75.6273578,110.819507 76.7824673,110.819507 C77.3477221,110.819507 79.0527796,110.096556 82.0468803,110.096556 C86.1261171,110.096556 93.225148,112.27143 93.9079364,114.659194 C94.9597256,115.211395 95.5883938,115.909171 95.5883938,116.817649 C95.5883938,117.164622 95.3128732,119.113471 93.4099218,119.113471 M372.727759,211.449287 C372.782973,210.714296 373,210.123785 373,197.643162 C373,197.061408 372.679653,133.18393 364.648553,104.600813 C364.412392,104.881565 364.172405,105.158487 363.928591,105.433219 C364.024804,105.683871 364.075098,105.916464 364.075098,106.144678 C364.075098,109.016781 348.701153,126.495673 320.235603,126.495673 C294.192338,126.495673 283.278111,113.94281 281.495974,113.94281 C281.205693,113.94281 280.302597,114.082365 278.680633,114.082365 C266.712977,114.082365 258.700464,106.531054 258.700464,103.636513 C258.700464,102.291309 259.850653,101.460545 260.828643,101.374622 C261.066443,101.269545 261.350711,101.204967 261.692378,101.204967 C262.102379,101.204967 262.565954,101.364224 263.694276,101.364224 C266.904858,101.364224 269.628904,99.8444393 272.295551,97.8912121 C270.899361,95.0026908 268.594062,89.697947 268.594062,82.4843054 C268.594062,63.2076119 287.948296,40.865627 321.725273,40.865627 C325.85207,40.865627 329.915453,41.2728002 333.839436,42.0428171 C306.476515,11.7193628 279.891503,0 209.945877,0 C208.833407,0 207.652058,0 206.408388,0 C186.333098,0 149.912435,0.54891757 118.322677,19.271768 C127.663593,25.3394142 127.297326,34.8724103 127.59198,38.648613 C127.402833,47.4203486 124.241451,58.3182504 124.241451,62.7878514 C124.241451,68.1960303 126.933245,71.4473955 126.933245,73.5730145 C126.933245,75.1327504 125.667162,76.3892955 124.114624,76.3892955 C123.945704,76.3892955 123.781704,76.3646681 123.620437,76.3280006 C122.956235,77.0219462 122.009953,77.2988678 121.386204,77.2988678 C117.604355,77.2988678 114.739815,68.2764799 114.739815,63.0784549 C114.739815,50.7050976 118.224276,46.2524621 118.224276,38.6929423 C118.224276,34.8521611 118.21881,28.4758515 111.852314,28.4758515 C107.247183,28.4758515 100.795953,34.451008 100.795953,48.7699306 C100.795953,48.8870476 100.797047,48.939586 100.797047,48.9680444 C100.797047,50.6667883 99.4708301,51.9572645 97.8171594,51.9572645 C94.988699,51.9572645 94.8175919,49.221433 94.8175919,48.1985747 C94.8175919,48.0573775 94.8208719,47.9490169 94.8208719,47.8849857 C94.8208719,47.2260657 94.842192,46.5731657 94.8793654,45.930664 C92.9807874,45.0730829 92.7528268,41.7385318 92.7528268,39.2462381 C92.7528268,38.5796562 92.7807069,37.9158107 92.8342804,37.2568908 C63.975129,60.9276612 28,118.70575 28,179.256339 C28,183.608823 28.5094946,185.552199 29.6241507,190.652809 C35.693259,188.603261 43.1957309,187.338507 52.4934606,187.338507 C82.3885479,187.338507 109.692975,200.810247 116.279778,203.477669 C119.901454,164.17725 120.097708,170.524554 120.496229,163.602611 C122.435807,129.923261 155.348502,101.947073 195.917282,101.947073 C215.680971,101.947073 230.304887,108.209002 238.032039,112.247349 C281.466454,134.951084 279.646049,175.059281 279.788729,175.663473 C280.068623,175.663473 280.334304,175.674966 280.593425,175.674966 C281.304093,175.674966 283.832433,175.373417 288.246777,175.373417 C299.415751,175.373417 353.257085,180.512337 368.639776,228 L369.373404,228 C370.25518,228 371.101969,228 371.923064,228 C372.152118,223.023622 372.377345,218.153962 372.611866,213.07196 C372.215531,213.554109 371.642077,214.572042 370.337727,214.572042 C369.574032,214.572042 339.47285,171.460943 301.144316,171.460943 C298.360682,171.460943 296.25929,171.873589 295.440928,171.873589 C294.99758,171.873589 293.117042,171.586269 293.117042,169.589807 C293.117042,168.45421 293.60631,167.668869 295.469902,167.231049 C295.427808,167.038955 295.423981,166.88736 295.423981,166.828254 L295.423981,166.805268 C295.423981,164.894729 297.349346,164.838359 299.213484,164.838359 C299.330471,164.838359 299.446911,164.838359 299.562805,164.838359 C300.099633,164.838359 300.635914,164.846021 301.172742,164.846021 C345.335318,165.37852 372.659426,204.85954 372.659426,209.96617 C372.659426,210.339412 372.549546,210.671061 372.375158,210.952361 C372.604759,211.273064 372.724479,211.446551 372.727759,211.449287" id="Fill-1" fill="#0C8C87"></path>
                <g id="Line" transform="translate(5.000000, 18.000000)">
                    <g id="Group-3" transform="translate(0.000000, 83.861231)">
                        <mask id="mask-2" fill="white">
                            <use xlink:href="#path-1"></use>
                        </mask>
                        <g id="Clip-2"></g>
                        <path d="M334.951957,125.606941 C333.006486,115.464928 330.310486,108.865498 312.488572,108.865498 C311.635822,108.865498 311.346106,108.891695 306.619907,108.891695 L305.697735,108.891695 C281.848632,108.891695 280.474394,111.25378 277.030598,111.65492 C276.809212,100.254365 276.284989,88.9116623 276.236886,77.4128696 C279.277265,77.2180303 280.706167,77.0188249 284.372442,77.0188249 C326.126001,77.0188249 356.216027,105.304359 360.874443,125.606941 L334.951957,125.606941 Z M328.635599,145.195657 C327.239495,149.888719 323.005267,152.009575 318.884738,152.009575 C317.391334,152.009575 317.384774,151.777077 316.175073,151.408684 C317.273261,147.768409 317.616547,144.138504 317.616547,140.514602 C317.616547,140.507507 317.618733,140.375977 317.618733,140.127653 C317.618733,138.524731 317.521433,132.073204 316.075585,123.233394 C315.913781,122.244462 315.27094,121.6463 314.401245,121.6463 C312.820925,121.6463 312.703399,122.980158 312.703399,124.298734 C312.703399,126.65045 313.720685,130.450635 313.720685,139.674665 C313.720685,149.573811 313.01498,153.294859 304.930807,153.294859 C301.881135,153.294859 300.56812,153.074914 299.329993,151.552767 C298.82053,150.926225 298.529174,150.296408 298.529174,149.50559 C298.529174,148.552132 299.076355,147.190986 299.076355,142.717323 C299.076355,134.534619 297.895079,129.502635 297.208506,123.703847 C297.122138,122.97088 296.610488,122.047986 295.544005,122.047986 C293.866385,122.047986 293.8396,123.810272 293.8396,124.620192 C293.8396,126.796716 295.293647,137.414093 295.293647,143.092812 C295.293647,154.024551 291.758017,154.599245 287.694338,154.599245 C287.217126,154.599245 286.732809,154.591059 286.245758,154.591059 C276.934391,154.591059 278.06155,132.108133 277.352566,128.458034 C276.858409,125.909296 275.819257,123.912876 268.933306,123.912876 C268.541369,123.912876 268.121008,123.975094 267.510964,124.016572 C272.367809,117.209204 275.678225,112.641123 305.297599,112.641123 C306.111537,112.641123 306.907983,112.640031 307.68639,112.640031 C322.94623,112.640031 331.274749,113.049903 331.274749,129.952348 C331.274749,135.156249 330.120804,140.205152 328.635599,145.195657 L328.635599,145.195657 Z M248.204391,93.8759709 C247.960046,96.0372134 246.995783,97.9146564 245.859877,99.8406728 C245.670742,99.3096402 245.265139,97.6914372 243.790867,97.6914372 C243.648742,97.6914372 243.503337,97.7094475 243.356839,97.746014 C242.4456,97.9730536 241.851409,98.7387666 241.851409,99.7331564 C241.851409,100.310034 242.072795,101.885121 242.072795,102.189114 C242.072795,102.350661 242.05093,102.528582 242.039997,102.775815 C231.239599,106.135565 233.449641,102.163463 231.891734,125.331328 L153.591853,125.331328 C152.519356,114.003906 153.504391,119.168512 138.124292,115.371602 C136.535226,114.979194 128.943571,112.494311 127.759014,107.695916 C126.684878,103.346688 126.166669,98.9619858 126.166669,94.5445371 C126.166669,59.6612093 153.228888,42.1485956 156.130422,40.6952145 C174.377618,63.0771732 187.199469,58.2525813 192.077633,61.0960342 C191.131956,61.4535125 190.180265,61.7018371 189.196324,61.7018371 C187.995915,61.7018371 187.610538,61.3787422 186.926699,61.3787422 C185.824138,61.3787422 185.166537,62.1881166 185.166537,63.0438813 C185.166537,64.9573451 188.326082,65.2198596 189.483853,65.2198596 C193.864033,65.2198596 195.965842,63.4390176 197.596451,62.229595 C213.962679,68.90325 218.916278,84.1623864 229.713396,84.1623864 C233.92084,84.1623864 233.933412,82.007693 233.933412,81.0542358 L233.933412,81.0367712 C233.933412,80.8599423 233.913734,80.0150929 233.913734,78.6528552 C233.913734,49.1387962 240.437813,47.6373875 242.493157,47.6373875 C242.726023,47.6373875 242.901493,47.6564894 243.00426,47.6564894 C243.805079,47.6564894 250.410607,48.1100229 250.950681,54.4867799 C251.13763,56.6949585 251.228371,58.9009541 251.228371,61.1053123 C251.228371,65.7334276 250.998238,69.1515746 248.204391,93.8759709 L248.204391,93.8759709 Z M78.2580088,124.48375 C72.286577,129.217744 66.9579869,132.384838 60.8143653,132.384838 C58.405895,132.384838 55.6453924,132.122323 52.1278014,128.833523 C51.7200123,128.452031 51.5308769,127.996314 51.5308769,127.471831 C51.5308769,124.804116 55.6076746,121.197133 63.6896611,121.197133 C68.1430898,121.197133 70.4630053,122.138037 78.2580088,124.48375 L78.2580088,124.48375 Z M112.005564,125.121207 C111.627839,125.150133 111.27526,125.200343 110.922681,125.200343 C96.4035307,125.200343 94.8844343,125.133214 94.8330506,125.133214 C94.473912,125.133214 94.3066419,125.418105 93.5030897,125.418105 C92.740535,125.418105 92.4131011,125.260378 86.1246214,123.172268 C86.9358265,122.039799 97.5547423,111.046934 97.5547423,108.676116 C97.5547423,107.72375 96.6506093,107.048635 95.8700157,107.048635 C94.1295325,107.048635 95.6059914,107.459053 82.8245908,120.864214 C82.4184416,121.289913 82.0423573,121.478203 81.580998,121.478203 C80.0815805,121.478203 70.2328723,117.310717 63.8388922,117.310717 C55.1987923,117.310717 47.7115438,121.307924 47.7115438,127.549876 C47.7115438,132.341722 54.888304,136.240145 60.7247173,136.240145 C72.358186,136.240145 81.1972608,126.145614 82.9749152,126.145614 C100.732873,126.145614 193.01511,178.176982 193.067587,178.22501 C186.549521,187.565289 176.941879,199.298762 176.941879,200.729767 C176.941879,201.890616 178.003442,202.32723 178.522745,202.32723 C180.373101,202.32723 185.322327,193.641328 195.652074,180.403171 C200.528597,183.555529 205.331872,186.660405 210.23518,189.830227 C206.681512,194.635718 159.306367,253.899607 156.334863,257.107088 C152.476172,255.098115 148.702757,253.133349 144.810721,251.107457 C148.018917,246.55302 165.08429,227.036345 165.08429,225.552947 C165.08429,224.553645 164.218421,223.970765 163.502877,223.970765 C161.705544,223.970765 153.882115,235.250704 141.753943,249.445592 C-1.11928816,186.571445 4.04695154,125.769034 4.04695154,123.323992 C4.04695154,99.1300824 24.2724165,88.9826121 48.8162915,88.9826121 C79.1993129,88.9826121 109.364774,103.957949 112.33901,105.459903 C112.228044,112.020039 112.117624,118.521231 112.005564,125.121207 L112.005564,125.121207 Z M249.091032,200.92024 C250.628167,200.92024 250.988399,201.505303 250.988399,203.312342 C250.988399,214.730907 227.284701,218.222733 227.284701,221.916493 C227.284701,222.497736 227.725288,223.668955 229.078754,223.668955 C229.282649,223.668955 229.958835,223.584906 231.163617,223.584906 C239.036789,223.584906 258.023034,229.432268 265.400409,235.62783 C263.987907,238.364858 262.867307,238.367041 261.349303,238.367041 C253.457546,238.367041 235.357394,235.265986 231.589992,235.265986 C231.533688,235.265986 231.373525,235.258345 231.142845,235.258345 C229.8752,235.258345 226.483335,235.492479 226.483335,238.531317 C226.483335,245.51224 253.464105,257.347226 253.464105,266.384058 C253.464105,267.997349 252.971588,268.149618 252.254404,268.282786 C251.09062,268.500002 249.891304,268.630986 248.705655,268.630986 C236.720153,268.630986 220.352286,253.52139 213.782836,253.52139 C210.02582,253.52139 209.870029,257.454742 209.870029,258.527723 C209.870029,265.362925 224.384806,278.160101 224.384806,283.633611 C224.384806,284.092602 224.106023,284.44244 223.617879,284.556505 C223.056485,284.68749 222.457374,284.837576 221.887235,284.837576 C206.829649,284.837576 179.220797,253.025287 171.860914,244.503114 C203.56351,203.641986 198.165498,200.92024 249.091032,200.92024 L249.091032,200.92024 Z M382.838752,125.640778 C379.1036,125.640778 373.662403,125.705725 365.738941,125.705725 L365.005358,125.705725 C349.623618,78.3488623 295.785617,73.2240978 284.617334,73.2240978 C280.203263,73.2240978 277.67508,73.5242703 276.964456,73.5242703 C276.705351,73.5242703 276.439687,73.513355 276.15981,73.513355 C276.017139,72.9108267 277.83743,32.9131041 234.405704,10.2719055 C226.679577,6.24413531 212.056019,0 192.293007,0 C151.727284,0 118.816079,27.8991306 116.877168,61.4857128 C116.478671,68.3885905 116.28243,62.0587695 112.660978,101.250938 C106.074583,98.5908634 78.771845,85.1562305 48.8786078,85.1562305 C1.64722746,85.1562305 0.570904745,117.60816 -0.000327980513,120.743599 L-0.000327980513,123.433146 L-0.000327980513,125.660426 C16.756743,200.657725 90.2648287,226.065969 155.890996,260.697152 C156.15666,260.83796 156.433257,260.909456 156.707121,260.909456 C158.431752,260.909456 164.585759,251.895546 169.362249,246.890851 C201.535497,286.099392 217.733908,288.712531 222.069811,288.712531 C224.909575,288.712531 228.239671,287.091599 228.239671,283.742219 C228.239671,277.014533 213.700295,262.880771 213.700295,258.627598 C213.700295,258.246106 213.754411,257.858065 213.863738,257.467295 C214.025542,257.417084 214.180786,257.396345 214.330564,257.396345 C218.142791,257.396345 235.899656,272.510307 248.820448,272.510307 C253.157444,272.510307 257.306397,271.680193 257.306397,266.488299 C257.306397,255.675538 233.158285,243.951343 230.651421,239.000678 C235.733479,239.27902 251.897998,242.169955 262.362763,242.169955 C266.648922,242.169955 269.280965,237.299518 269.280965,235.599996 C269.280965,231.70321 258.211623,224.893113 237.465216,220.411264 C244.012254,216.823383 254.853103,213.646465 254.853103,203.22229 C254.853103,201.408702 254.152864,197.146252 249.665544,197.146252 C249.453997,197.146252 249.437051,197.154984 249.057687,197.154984 C248.902443,197.154984 248.746106,197.153347 248.590862,197.153347 C245.464661,197.153347 244.529916,198.266714 215.843101,199.408461 C210.775802,199.610396 208.200061,200.794167 206.082947,201.332295 C213.326943,192.049321 214.261141,191.333273 214.261141,190.395098 C214.261141,177.374157 103.532734,129.221019 103.48135,129.196459 C103.506495,129.127692 103.53164,129.05838 103.556786,128.989613 C160.211593,129.090034 216.865307,129.190456 273.683557,129.291423 C274.609556,143.281102 275.377577,158.384149 286.136431,158.384149 C294.994638,158.384149 294.215137,156.743023 296.334438,155.217055 C296.731294,155.699514 297.662759,157.169268 303.946866,157.169268 C309.631861,157.169268 312.227827,155.903632 313.774802,154.451888 C315.574868,155.167936 316.698201,155.910727 318.966187,155.910727 C335.473993,155.910727 334.907679,131.997342 335.218714,129.454062 C335.484379,129.454062 335.712325,129.451333 335.925512,129.451333 C336.475426,129.451333 349.046919,129.789709 349.722559,129.789709 C351.490921,129.789709 352.342577,129.486262 353.471923,129.486262 C359.875196,129.486262 386.462936,129.550117 388.166795,129.550117 C388.205606,129.550117 388.246057,129.550117 388.288148,129.550117 C389.281382,129.550117 391,129.512459 391,127.656301 C391,125.922395 390.629382,125.640778 382.838752,125.640778 L382.838752,125.640778 Z" id="Fill-1" fill="#000000" mask="url(#mask-2)"></path>
                    </g>
                    <path d="M316.534047,101.581674 C290.508794,101.581674 279.95766,86.9616321 277.616973,86.9616321 C276.43023,86.9616321 273.772495,88.4395727 269.86406,88.4395727 C266.11251,88.4395727 263.720985,86.8562988 263.290784,86.6205269 C265.231882,85.9574184 268.065087,85.5944824 272.466039,81.5705326 C273.110521,80.9816486 273.422649,80.427148 273.422649,79.8802881 C273.422649,78.625021 272.22388,78.4405513 271.540041,76.8987558 C269.696243,72.7443674 268.785551,68.6178132 268.785551,64.5256423 C268.785551,45.0728222 289.194685,26.7639325 317.986454,26.7639325 C341.465486,26.7639325 365.674821,41.1465649 365.674821,63.873995 C365.674821,83.3235405 345.20829,101.581674 316.534047,101.581674 M318.094141,22.9479204 C284.318708,22.9479204 264.965671,45.2283662 264.965671,64.4519636 C264.965671,71.6457358 267.270828,76.9358681 268.667478,79.8164333 C266.000996,81.7642804 263.276572,83.279879 260.065642,83.279879 C258.937936,83.279879 258.47439,83.1210604 258.064415,83.1210604 C256.785837,83.1210604 256.262162,83.9784624 256.262162,84.7670977 C256.262162,86.8355596 263.302263,92.2757782 269.644313,92.2757782 C272.729517,92.2757782 275.994563,91.1302105 276.757664,91.1302105 C278.514,91.1302105 290.120137,105.369852 316.542793,105.369852 C341.22114,105.369852 369.514379,90.04304 369.514379,63.7048068 C369.514379,40.3191802 345.15144,22.9479204 318.094141,22.9479204" id="Fill-4" fill="#000000"></path>
                    <path d="M92.2773718,28.2113101 C93.1760384,28.2113101 94.8460059,27.6911929 94.8460059,25.48356 C94.8460059,24.8531976 94.6076734,23.7070841 94.6076734,22.3726806 C94.6076734,13.7839246 100.252765,5.83426331 109.153609,5.83426331 C111.55552,5.83426331 118.003617,8.84963326 118.003617,20.6895311 C118.003617,29.1549435 114.744037,38.2621794 114.744037,44.5723527 C114.744037,48.9477773 116.717386,58.3742876 120.495175,58.3742876 C122.047616,58.3742876 123.313621,57.1206578 123.313621,55.5657639 C123.313621,53.445454 120.622541,50.2030444 120.622541,44.8103076 C120.622541,40.3530178 123.78318,29.4845875 123.972315,20.737013 C123.677679,16.9652081 124.046111,7.43391024 114.660402,1.38406845 C112.895867,0.246687279 110.971714,0 108.979779,0 C96.5635305,0 89.1353185,10.3182958 89.1353185,21.332992 C89.1353185,24.2070079 89.4354207,28.2113101 92.2773718,28.2113101" id="Fill-6" fill="#000000"></path>
                    <path d="M104.998861,149.547723 C105.266165,156.712569 105.008154,159.25585 107.310031,159.25585 C108.115769,159.25585 109.218877,158.69098 109.218877,157.12517 C109.218877,157.03621 108.841153,153.489807 108.841153,148.812027 C108.841153,84.0773557 165.276213,81.6082998 165.276213,77.8501392 C165.276213,77.5341393 165.160327,75.9863404 163.252027,75.9863404 C157.404681,75.9863404 105.288577,86.6484702 104.998861,149.547723" id="Fill-8" fill="#000000"></path>
                    <path d="M297.542226,146.587039 C297.005978,146.587039 296.469183,146.579398 295.932935,146.579398 C295.817049,146.579398 295.700069,146.578852 295.583089,146.578852 C293.719613,146.578852 291.793821,146.635612 291.793821,148.54089 L291.793821,148.563812 C291.793821,148.794126 291.845205,150.441255 294.094058,150.441255 C294.422038,150.441255 295.376462,150.366485 297.103826,150.366485 C344.571899,150.366485 364.559578,193.448344 367.170303,193.448344 C368.130192,193.448344 369.025032,192.675536 369.025032,191.582362 C369.025032,186.490344 341.702069,147.118072 297.542226,146.587039" id="Fill-10" fill="#000000"></path>
                    <path d="M71.5148388,97.4122221 C71.9958769,98.3673167 72.2271032,99.2863905 72.2271032,100.130148 C72.2271032,103.286326 69.0473321,104.400785 68.0907223,104.400785 C67.6851197,104.400785 67.1598042,104.238146 67.1598042,102.814783 C67.1598042,100.473437 69.2665324,98.4126154 71.5148388,97.4122221 M51.3915945,104.849953 C52.2323179,104.849953 53.1632359,104.15901 53.1632359,103.247577 C53.1632359,102.677249 52.8664135,102.492234 52.8664135,102.014141 C52.8664135,100.189091 59.7397918,94.7183097 66.55796,94.7183097 C66.9580962,94.7183097 67.3620589,94.7450523 67.7627417,94.7450523 C67.3817377,95.6674008 63.3005669,98.2194134 63.3005669,102.822423 C63.3005669,105.735189 64.9967728,108.254455 67.9633565,108.254455 C70.9080749,108.254455 76.0956333,105.432288 76.0956333,100.295516 C76.0956333,98.8852508 75.7244687,97.7626054 75.3565839,96.2410033 C76.3492716,95.9233661 77.3282934,95.8043886 78.3007556,95.8043886 C83.9677122,95.8043886 86.8703398,98.7313441 88.6075432,98.7313441 C89.6308424,98.7313441 90.3485731,97.7888022 90.3485731,96.9052033 C90.3485731,94.385391 82.7175598,91.9883766 78.4297613,91.9883766 C75.4363925,91.9883766 73.7314404,92.7093365 73.1662207,92.7093365 C72.010636,92.7093365 70.8807432,90.9055722 66.8471295,90.9055722 C57.553255,90.9055722 49.1558606,97.7353169 49.1558606,102.341056 C49.1558606,104.35767 50.7241541,104.849953 51.3915945,104.849953" id="Fill-12" fill="#000000"></path>
                    <path d="M208.296706,49.9053278 C210.495269,49.9053278 212.577399,50.7703706 212.577399,51.9012025 C212.577399,53.1586527 210.071081,54.6775259 208.371595,54.6775259 C205.295685,54.6775259 205.441089,51.3357865 205.339415,50.3686851 C206.375287,50.0646921 207.349389,49.9053278 208.296706,49.9053278 M194.009875,65.3445677 C195.185685,65.3445677 195.730133,64.161342 195.730133,63.6794285 C195.730133,63.0807207 195.346942,62.910441 195.346942,62.0524932 C195.346942,61.9624414 197.003244,54.9968004 201.558347,52.227572 C201.686806,52.7324077 202.68332,58.5415656 208.372142,58.5415656 C211.954782,58.5415656 216.47654,55.4650696 216.47654,51.9017483 C216.47654,48.8339846 213.341593,46.0620273 208.017376,46.0620273 C207.558204,46.0620273 207.087552,46.0773088 206.599954,46.1040514 C209.159295,39.8282616 215.12854,35.5314276 218.762564,35.5314276 C219.85474,35.5314276 220.289314,35.7573757 220.716235,35.7573757 C222.047836,35.7573757 222.286168,34.3782192 222.286168,34.0856873 C222.286168,32.0357815 218.687676,32.0221373 218.186959,32.0221373 L218.16892,32.0221373 C213.754849,32.0221373 205.547136,36.6900937 202.460293,46.2306697 C201.496577,49.2111105 194.860438,48.7373836 191.599765,61.1972742 C191.525423,61.4799822 191.495905,61.7828836 191.495905,62.0896054 C191.495905,65.0214728 193.526651,65.3445677 194.009875,65.3445677" id="Fill-14" fill="#000000"></path>
                    <path d="M175.19172,344.967437 C175.047955,344.751858 174.548878,344.001427 173.538698,344.001427 C172.494627,344.001427 171.685608,344.835361 171.685608,345.820473 C171.685608,353.189436 205.973238,382 220.542132,382 C221.164202,382 222.42966,381.538826 222.42966,380.091448 C222.42966,377.21252 194.215136,373.563513 175.19172,344.967437" id="Fill-16" fill="#000000"></path>
                    <path d="M239.967871,229.947583 C240.000669,229.947583 240.05096,229.948674 240.116009,229.948674 C240.646791,229.948674 242.104118,229.868446 242.104118,228.392689 C242.104118,226.866175 240.565889,226.818147 239.590147,226.818147 C235.036684,226.818147 166.589338,226.910382 166.537408,226.910382 C166.471265,226.910382 166.404575,226.910382 166.337886,226.910382 C166.310008,226.910382 166.235119,226.906561 166.130712,226.906561 C165.560026,226.906561 164.078647,227.01899 164.078647,228.46473 C164.078647,230.011983 165.641474,230.018532 166.628695,230.018532 L166.654934,230.018532 C166.768087,230.018532 166.88124,230.017987 166.994394,230.017987 C168.032999,230.017987 173.089912,230.020715 191.68094,230.020715 L203.070064,230.020715 L203.070064,229.944854 L213.086588,229.944854 C232.359817,229.944854 238.900295,229.943216 239.382973,229.943216 C239.577028,229.943216 239.772723,229.947583 239.967871,229.947583" id="Fill-18" fill="#000000"></path>
                    <path d="M298.727329,246.908479 C282.032028,246.908479 270.824934,246.856085 263.304887,246.856085 C248.559977,246.856085 247.983824,247.056928 247.983824,248.245066 C247.983824,248.346033 247.988197,248.453549 247.988197,248.568706 C247.988197,249.670613 248.963939,250.001348 249.234523,250.051559 C249.527519,250.10559 249.830901,250.114322 250.133737,250.114322 C250.281328,250.114322 250.430012,250.112139 250.577057,250.112139 C251.208966,250.112139 254.528129,250.114868 265.985035,250.114868 L274.330499,250.114868 L274.330499,250.04883 C277.372518,250.04883 280.413991,250.049376 283.45601,250.049376 C288.66434,250.049376 292.327336,250.102861 294.900343,250.102861 C300.261185,250.102861 300.885441,249.873093 300.885441,248.457915 C300.885441,246.960873 299.411715,246.908479 298.727329,246.908479" id="Fill-20" fill="#000000"></path>
                    <path d="M225.434016,277.372666 C225.713346,277.422331 226.004156,277.408687 226.238115,277.42124 C250.407546,274.73988 250.426678,274.815196 250.426678,272.785483 C250.426678,272.418727 250.238636,270.92878 248.425997,270.92878 C247.502185,270.92878 226.952019,273.442043 225.43183,273.7313 C224.507471,273.906492 223.895787,274.71532 223.895787,275.555258 C223.895787,276.419755 224.53043,277.213302 225.434016,277.372666" id="Fill-22" fill="#000000"></path>
                    <path d="M123.282846,65.3466962 C123.282846,67.5728851 125.004743,68.1568572 125.907236,68.1568572 C128.228792,68.1568572 128.986973,65.0334252 128.986973,64.5635186 C128.986973,63.179996 127.778365,62.0251502 126.402487,62.0251502 C125.059953,62.0251502 123.499859,63.3704691 123.283392,65.3106755 C123.282846,65.3226824 123.282846,65.3346893 123.282846,65.3466962" id="Fill-24" fill="#000000"></path>
                    <path d="M242.093568,162.584873 C244.508051,147.421246 244.717958,146.315519 244.717958,145.652411 C244.717958,144.018926 243.167157,143.782608 242.807472,143.782608 C240.646627,143.782608 240.997019,144.832667 238.056674,163.508859 C238.003651,163.848872 237.976865,164.161052 237.976865,164.44376 C237.976865,165.76179 238.555751,166.447275 239.682911,166.447275 C240.128964,166.447275 240.659746,166.339759 241.27471,166.122543 C241.449632,166.949382 241.536001,166.839137 241.536001,167.786045 C241.536001,170.752841 240.861454,174.674187 240.861454,175.589986 C240.861454,175.963837 241.093774,177.575491 242.764288,177.575491 C244.305796,177.575491 244.668215,175.856321 244.677507,175.791374 C244.981983,173.585925 245.287004,171.375563 245.287004,169.152649 C245.287004,164.385362 243.91058,163.199954 242.093568,162.584873" id="Fill-26" fill="#000000"></path>
                    <path d="M173.413027,146.114567 C173.413027,144.328268 171.618427,144.252406 171.119897,144.149801 C162.662372,144.928613 158.796029,152.108195 158.796029,154.188664 C158.796029,155.501782 159.902416,156.003343 160.701049,156.003343 C162.732342,156.003343 162.242011,153.420222 165.305349,150.608969 C169.9337,146.361255 173.413027,149.379899 173.413027,146.114567" id="Fill-28" fill="#000000"></path>
                    <path d="M195.622173,177.439486 L195.612333,177.49952 C185.8571,177.945413 184.076712,184.474439 184.076712,184.979821 C184.076712,185.86342 184.83872,186.729554 185.915043,186.729554 C188.477117,186.729554 188.053476,181.416499 195.175026,181.416499 C196.114144,181.416499 197.265355,181.510917 197.924049,181.510917 C199.867334,181.510917 200.012192,180.000776 200.012192,179.611644 C200.012192,177.535541 197.538672,177.6698 195.622173,177.439486" id="Fill-30" fill="#000000"></path>
                    <path d="M171.346039,157.725734 C169.551439,157.725734 169.233298,160.529346 169.233298,161.548295 C169.233298,162.458637 169.402755,163.376073 169.679898,164.28696 C170.007332,165.364307 171.139958,165.421613 171.420928,165.421613 C173.316655,165.421613 173.233567,163.137027 173.46698,161.457697 C173.011087,159.213498 173.098548,157.725734 171.346039,157.725734" id="Fill-32" fill="#000000"></path>
                    <path d="M184.201563,165.194082 C185.926741,165.194082 186.467362,162.732121 186.467362,161.011859 C186.467362,158.474037 185.180585,157.777636 184.345875,157.777636 C182.543622,157.777636 182.388924,159.402934 182.388924,159.983632 C182.388924,160.103701 182.395484,160.179563 182.395484,160.186112 C182.395484,160.563238 182.413523,160.942001 182.413523,161.319127 L182.34902,161.319127 C182.34902,161.748101 182.321142,162.180349 182.321142,162.609323 C182.321142,165.125861 183.837505,165.194082 184.158379,165.194082 C184.176965,165.194082 184.190631,165.194082 184.201563,165.194082" id="Fill-34" fill="#000000"></path>
                    <path d="M299.279266,73.2374145 C299.503932,73.2374145 301.171167,73.1942988 301.171167,70.9550114 C301.171167,70.9037092 301.036148,62.9218475 301.036148,62.1856061 C301.036148,61.8172125 301.080972,61.44609 301.106664,61.0345807 C302.917116,61.9618411 303.719575,62.3728046 304.524767,62.3728046 C305.164876,62.3728046 305.806625,62.1130189 306.959476,61.646387 C306.959476,61.9263661 306.960569,62.1861519 306.960569,62.4388426 C306.960569,63.4386901 306.908092,67.8168436 306.908092,70.0375749 C306.908092,70.0888771 306.903719,70.1849323 306.903719,70.3115506 C306.903719,71.0570701 307.034912,72.8602886 308.836071,72.8602886 C310.53829,72.8602886 310.783182,71.5739127 310.783182,68.7119036 C310.783182,67.5554206 310.743278,66.1418806 310.743278,64.4521819 C310.743278,62.056259 310.789195,60.0980423 310.789195,58.5235007 C310.789195,54.5939688 310.504399,53.0510818 308.515744,53.0510818 C306.412295,53.0510818 306.533648,55.3711429 304.401775,58.4438185 C302.205945,57.2485859 302.069287,53.512256 299.573902,53.512256 C298.551696,53.512256 298.116028,54.2135683 297.650843,54.4351502 C296.746163,54.8663072 296.428022,55.6145556 296.428022,56.5363582 C296.428022,58.5289584 297.052278,70.6291877 297.580873,72.0672872 C297.851457,72.8035287 298.555522,73.2374145 299.279266,73.2374145" id="Fill-36" fill="#000000"></path>
                    <path d="M283.228282,65.9081826 C283.228282,67.6568243 283.37314,75.4935116 290.379897,75.4935116 C291.703845,75.4935116 296.66783,75.1169314 296.66783,72.5638272 C296.66783,72.3356961 296.510946,70.7747987 294.921881,70.7747987 C294.103023,70.7747987 292.506851,71.6589434 290.412695,71.6589434 C288.7635,71.6589434 288.299954,71.1568365 288.065448,70.6601874 C287.486562,69.436029 287.203953,68.1447412 287.160222,66.7432081 C289.454992,66.4392152 292.984609,66.2225452 292.984609,63.9554236 C292.984609,63.4778763 292.627657,62.2739114 291.288403,62.2739114 C290.557007,62.2739114 291.598345,62.2837352 287.111571,63.1995345 L287.111571,57.6354265 C287.389262,57.6354265 287.603542,57.6305146 287.794317,57.6305146 C288.561245,57.6305146 289.59657,57.7947908 290.560286,57.7947908 C291.297149,57.7947908 293.889289,57.575392 293.889289,55.8567675 C293.889289,54.0508202 292.85123,53.93348 287.700296,53.93348 C286.929542,53.93348 286.066953,53.9356631 285.102144,53.9356631 C282.796441,53.9356631 282.750524,55.4430752 282.750524,55.6117176 L282.750524,55.6259075 C282.750524,56.7076203 283.616392,56.5509848 283.616392,58.098238 C283.616392,58.8475779 283.228282,63.7392993 283.228282,65.9081826" id="Fill-38" fill="#000000"></path>
                    <path d="M317.202362,55.8916967 C318.41425,55.8916967 319.37578,56.8931816 319.37578,57.643613 C319.37578,58.3711222 318.764643,59.3911632 317.335741,60.4150245 C317.262492,58.790818 317.199082,57.38219 317.13294,55.8927882 C317.156445,55.8922425 317.179404,55.8916967 317.202362,55.8916967 M313.680398,57.0372644 C313.680398,57.3718204 313.683131,57.6758133 313.683131,57.9677994 C313.683131,58.7466108 313.627375,60.9727997 313.627375,63.8146154 C313.627375,73.6635504 313.792458,75.2904858 315.856002,75.2904858 C316.39061,75.2904858 317.753369,75.0498019 317.753369,72.8770983 C317.753369,71.9405598 317.402977,65.9562102 317.402977,65.904908 C317.402977,64.168819 323.226271,62.449103 323.226271,57.6605318 C323.226271,54.915863 320.500206,52.2181302 317.046571,52.2181302 C315.229013,52.2181302 312.497482,53.1732247 312.497482,54.976989 C312.497482,55.6471925 312.886139,56.3605117 313.680398,57.0372644" id="Fill-40" fill="#000000"></path>
                    <path d="M339.226308,58.5539 C340.501059,59.1597028 341.042774,59.9559788 341.042774,61.1244688 C341.042774,61.5179677 340.993577,61.6767863 340.993577,61.861256 C340.993577,64.1529371 340.959685,65.9894475 340.959685,67.4466489 C340.959685,71.2850375 341.197471,72.4977347 342.930301,72.4977347 C344.07058,72.4977347 344.988379,71.5601047 344.988379,70.332126 C344.988379,62.6357012 344.627054,61.4306448 344.627054,60.4144242 C344.627054,56.6448024 349.137879,54.6522023 349.137879,52.648141 C349.137879,51.7967424 348.359472,51.0070157 347.497977,51.0070157 C346.487797,51.0070157 346.25821,51.456183 341.943627,55.9685955 C340.564469,55.2683747 339.31213,54.6636634 338.452821,53.385474 C338.142333,52.9242998 337.685346,52.7125417 337.221254,52.7125417 C336.138918,52.7125417 335.463278,53.7183927 335.463278,54.650565 C335.463278,55.1772314 335.682479,55.6575075 336.091361,56.0368165 C337.075303,56.9498869 338.046125,57.9933959 339.226308,58.5539" id="Fill-42" fill="#000000"></path>
                    <path d="M325.147799,56.3071355 C326.231228,56.3071355 326.327436,55.5785348 327.338709,55.5785348 C327.54479,55.5785348 327.765084,55.6101894 328.009976,55.6680409 C328.009976,55.9458369 328.009429,56.2258161 328.009429,56.5068868 C328.009429,60.0287297 327.970072,62.824155 327.970072,65.0279675 C327.970072,71.0155917 328.261974,72.6430728 330.431565,72.6430728 C332.317453,72.6430728 332.82965,70.5871636 332.82965,70.2176784 C332.82965,69.0349985 331.898732,69.2576719 331.865387,67.8506812 C331.793778,64.7927413 331.603549,57.2142025 331.603549,56.9882544 C331.603549,56.6929937 331.648373,56.3977331 331.669692,56.1117505 C332.399449,56.0511702 334.839077,56.2743895 334.839077,54.1846426 C334.839077,52.7552753 333.43532,52.3164776 332.806144,52.2766365 C331.128524,52.1702117 329.450357,51.9977489 327.773283,51.9977489 C326.707893,51.9977489 323.173357,52.0938041 323.173357,54.3254508 C323.173357,55.3078338 323.999868,56.3071355 325.147799,56.3071355" id="Fill-44" fill="#000000"></path>
                </g>
            </g>
        </g>
    </g>
</svg>