<?xml version="1.0" encoding="UTF-8"?>
<svg width="53px" height="53px" viewBox="0 0 24 24" version="1.1" xmlns="http://www.w3.org/2000/svg" xmlns:xlink="http://www.w3.org/1999/xlink">
    <title>Icons/Universal Icon Set/Medicine/Solid/Heart Rate</title>
    <g id="Symbols" stroke="none" stroke-width="1" fill="none" fill-rule="evenodd">
        <g id="Icons/Universal-Icon-Set/Medicine/Solid/Heart-Rate">
            <rect id="bounding-box" x="0" y="0" width="53" height="53"></rect>
            <path d="M22,9.00005 C22,9.55034 21.9626,10.0788 21.8924,10.586 C21.8592,10.8262 21.6504,11 21.408,11 L17.1594,11 L15.9191,8.10608 C15.7616,7.7384 15.4,7.5 15,7.5 C14.6,7.5 14.2384,7.7384 14.0809,8.10608 L12,12.9614 L11.4191,11.6061 C11.2616,11.2384 10.9,11 10.5,11 L2.59201,11 C2.34955,11 2.14082,10.8262 2.10758,10.586 C2.03738,10.0788 2,9.55037 2,9.00009 C2,5.68638 4.68629,3 8,3 C9.53671,3 10.9385,3.57771 12,4.52779 C13.0615,3.57771 14.4633,3 16,3 C19.3137,3 22,5.68634 22,9.00005 Z M3.46018,13 C3.1089,13 2.86843,13.3533 3.01695,13.6716 C4.9804,17.8802 9.26281,20.0527 11.116,20.8254 C11.6855,21.0628 12.3145,21.0628 12.884,20.8254 C14.7372,20.0527 19.0196,17.8802 20.983,13.6716 C21.1316,13.3533 20.8911,13 20.5398,13 L16.5,13 C16.1,13 15.7384,12.7616 15.5809,12.3939 L15,11.0386 L12.9191,15.8939 C12.7616,16.2616 12.4,16.5 12,16.5 C11.6,16.5 11.2384,16.2616 11.0809,15.8939 L9.8406,13 L3.46018,13 Z" id="Shape" fill="#0c8c87"></path>
        </g>
    </g>
</svg>