<?xml version="1.0" encoding="UTF-8"?>
<svg width="32px" height="32px" viewBox="0 0 32 32" version="1.1" xmlns="http://www.w3.org/2000/svg" xmlns:xlink="http://www.w3.org/1999/xlink">
    <title>icon/medical-condition copy 5@2x</title>
    <g id="Scan-View" stroke="none" stroke-width="1" fill="none" fill-rule="evenodd">
        <g id="Info-Page---Filter" transform="translate(-232.000000, -224.000000)">
            <g id="icon/medical-condition-copy-5" transform="translate(232.000000, 224.000000)">
                <circle id="Oval" fill="#9B9B9B" cx="16" cy="16" r="16"></circle>
                <g id="Icons/Universal-Icon-Set/Medicine/Solid/Heart-Rate" transform="translate(8.000000, 8.000000)">
                    <rect id="Rectangle" x="0" y="0" width="16" height="16"></rect>
                    <g id="Hospital-Building" transform="translate(1.333333, 2.666667)" fill="#FFFFFF">
                        <path d="M2,0 C0.895433333,0 0,0.895433333 0,2 L0,9.33333333 C0,10.0697333 0.596953333,10.6666667 1.33333333,10.6666667 L2.66666667,10.6666667 C3.03485333,10.6666667 3.33333333,10.3682 3.33333333,10 L3.33333333,8.66666667 C3.33333333,8.29846667 3.63181333,8 4,8 L5.33333333,8 C5.70153333,8 6,8.29846667 6,8.66666667 L6,10 C6,10.3682 6.29846667,10.6666667 6.66666667,10.6666667 L8,10.6666667 C8.7364,10.6666667 9.33333333,10.0697333 9.33333333,9.33333333 L9.33333333,2 C9.33333333,0.895433333 8.43793333,0 7.33333333,0 L2,0 Z M4.66666667,2.66666667 C4.29848,2.66666667 4,2.96514667 4,3.33333333 L4,4 L3.33333333,4 C2.96514667,4 2.66666667,4.29846667 2.66666667,4.66666667 C2.66666667,5.03486667 2.96514667,5.33333333 3.33333333,5.33333333 L4,5.33333333 L4,6 C4,6.3682 4.29848,6.66666667 4.66666667,6.66666667 C5.03485333,6.66666667 5.33333333,6.3682 5.33333333,6 L5.33333333,5.33333333 L6,5.33333333 C6.3682,5.33333333 6.66666667,5.03486667 6.66666667,4.66666667 C6.66666667,4.29846667 6.3682,4 6,4 L5.33333333,4 L5.33333333,3.33333333 C5.33333333,2.96514667 5.03485333,2.66666667 4.66666667,2.66666667 Z M10.6666667,4 C10.6666667,3.63180667 10.9651333,3.33333333 11.3333333,3.33333333 L11.3333333,3.33333333 C12.4379333,3.33333333 13.3333333,4.22873333 13.3333333,5.33333333 L13.3333333,9.33333333 C13.3333333,10.0697333 12.7364,10.6666667 12,10.6666667 L11.3333333,10.6666667 C10.9651333,10.6666667 10.6666667,10.3682 10.6666667,10 L10.6666667,4 Z" id="Shape"></path>
                    </g>
                </g>
            </g>
        </g>
    </g>
</svg>