<?xml version="1.0" encoding="UTF-8"?>
<svg width="200px" height="198px" viewBox="0 0 200 198" version="1.1" xmlns="http://www.w3.org/2000/svg" xmlns:xlink="http://www.w3.org/1999/xlink">
    <title>no-profile-illustration</title>
    <g id="Scan-View" stroke="none" stroke-width="1" fill="none" fill-rule="evenodd">
        <g id="Info-Page---No-Profile-Connected" transform="translate(-88.000000, -152.000000)">
            <g id="no-profile-illustration" transform="translate(88.000000, 152.000000)">
                <path d="M164.815798,66.2276385 C163.741108,67.4765916 162.583331,67.0794577 157.497533,67.625481 C157.300989,71.3797845 154.372594,76.2192628 150.8666,76.2192628 C150.798697,76.2192628 150.737385,76.2086687 150.676932,76.1969294 C150.608456,76.2175448 150.534537,76.2278526 150.456894,76.2278526 C150.250895,76.2278526 149.185946,76.083258 149.185946,75.0879896 C149.185946,75.0582118 151.325872,69.5876715 150.723632,68.1580469 C149.604247,68.2324916 148.367393,68.3387185 147.345421,68.3387185 C146.26586,68.3387185 144.057172,68.1626281 143.477854,67.2523985 C141.965093,64.8753219 141.205848,46.4130359 141.205848,46.3864076 C141.205848,45.7622174 141.433908,45.3736734 142.162783,43.6826333 C142.202608,43.6860692 142.242719,43.6897915 142.283117,43.6932274 C142.2771,43.6121972 142.273948,43.5669577 142.273948,43.5655261 C142.273948,42.4494282 143.358666,40.7606788 145.059662,40.7016957 C151.612379,40.475212 161.93525,39.9228896 161.962469,39.9228896 C163.320228,39.9228896 165.529489,40.8110721 165.628621,43.1652427 C165.655552,43.8031765 166.153503,61.8852218 166.153503,62.8630244 C166.153503,64.1343108 165.647817,65.2601437 164.815798,66.2276385 M133.052126,21.8113527 C128.473161,21.9943148 130.775536,28.4208969 126.432366,29.4324858 C123.956081,30.0091459 121.446274,30.614725 121.446274,33.1584431 C121.446274,33.2741188 121.451144,33.3059009 121.451144,33.3809183 C121.451144,34.0663822 121.04373,34.2662376 120.699635,34.2662376 C119.880509,34.2662376 119.857588,33.1518576 119.836387,33.0069768 C120.32345,27.1934183 126.549548,28.921967 127.425402,26.4999372 C127.906735,25.169095 128.620712,20.0745005 133.251822,20.0745005 C134.080116,20.0745005 134.197584,20.8086398 134.197584,20.95123 C134.197584,21.7134293 133.269012,21.8027629 133.052126,21.8113527 M53.0972911,68.103645 C51.691971,85.7516205 52.7870033,91.6281707 48.3186298,91.6281707 C47.898896,91.6281707 44.3800089,91.4898753 44.104675,91.4898753 C43.992364,91.4898753 43.8691657,91.4918796 43.7161706,91.4918796 C43.7161706,91.9517188 43.7095809,92.3906562 43.7095809,92.8218629 C43.7095809,97.4514643 45.5363538,98.3175998 45.5363538,99.3045647 C45.5363538,99.4202403 45.5056975,99.5891725 45.432065,99.7578184 C45.4386547,99.811075 45.4389412,99.8491564 45.4389412,99.8591778 L45.4389412,99.861182 C45.4389412,100.166405 45.3217596,100.690954 44.1112647,100.690954 C42.6177002,100.690954 38.0883005,99.3612572 36.6981653,92.7711832 C30.7327892,92.2947371 29.5432094,92.9799147 28.5103492,90.7772105 C28.1525012,90.0141523 27.8442189,89.2124401 27.8442189,88.3494542 C27.8442189,88.0923337 28.4324191,67.7815285 28.4642215,67.2403728 C28.5335564,66.0529798 29.5225808,65.767513 29.9918804,65.767513 C30.0944501,65.767513 30.1892842,65.7803977 30.2798206,65.8001542 C31.0373468,64.4870641 32.4097186,64.0724644 32.8156999,64.0724644 C33.0758489,64.0724644 34.6719831,64.1219988 50.3138691,64.8338047 C51.9475359,64.9082494 53.1078919,66.2199077 53.1078919,67.8324945 C53.1078919,67.9221145 53.1044538,68.0125934 53.0972911,68.103645 M44.0064029,120.623237 C40.872582,122.52129 41.1613817,124.41419 39.1317614,124.41419 C39.1142845,124.41419 39.0968075,124.41419 39.0793305,124.413617 C38.2304083,124.301664 38.0957497,124.274177 37.8186968,124.274177 C36.797297,124.274177 35.9793176,124.796721 35.2346842,125.474168 C34.9791193,125.706378 35.2613294,126.747459 34.29322,126.747459 C33.7216372,126.747459 33.4253882,126.299359 33.4253882,125.730429 C33.4253882,124.434805 35.7094274,122.555936 37.8507857,122.555936 C38.3802518,122.555936 38.5561675,122.631239 38.8484054,122.631239 C39.3022335,122.631239 39.6248411,122.445414 39.9084837,122.027665 C41.03847,120.36268 43.1044767,118.968846 43.7817809,118.968846 C44.3358867,118.968846 44.5189651,119.51487 44.5189651,119.775426 C44.5189651,120.088953 44.3513581,120.414219 44.0064029,120.623237 M36.5437377,33.8691037 C42.0804983,33.8691037 44.3931882,38.5977739 44.3931882,40.9256024 C44.3931882,41.0332609 44.3903231,41.1420647 44.383447,41.2514412 C44.3825874,41.4089203 44.1880487,47.8532546 41.7226503,47.8532546 C41.1871674,47.8532546 40.9072494,47.393988 40.9381923,47.066145 C41.0129708,46.269873 41.993973,46.8107424 42.5240122,42.823656 C42.4647051,42.5588047 42.6919057,36.4174031 36.1546603,36.4174031 C30.0998938,36.4174031 28.3398772,42.1032604 28.0499314,42.3987486 C28.0473528,42.4640308 28.0442013,42.5290268 28.0442013,42.5940227 C28.0442013,45.8146151 30.687521,48.735138 34.0502615,48.735138 C35.7529765,48.735138 38.3642074,47.5551894 38.7690427,45.0429671 C38.0373022,43.2777687 35.9735874,42.7377583 35.341838,42.7377583 C35.3366809,42.7377583 35.3197769,42.7371856 35.2925587,42.7371856 C35.0461621,42.7371856 33.9903814,42.7930191 33.9903814,43.9194247 C33.9903814,44.3477681 34.1221749,44.5381747 34.1221749,44.8067483 C34.1221749,45.2557071 33.7780792,45.4956481 33.4425787,45.4956481 C33.1970416,45.4956481 33.0257101,45.361934 32.9045173,45.172959 C32.7589714,45.2829081 32.5767525,45.3438955 32.4037019,45.3438955 C31.771093,45.3438955 31.3129672,44.4542813 31.3129672,43.6393981 C31.3129672,43.6365349 31.3126807,43.6299494 31.3126807,43.619928 C31.3126807,43.3264441 31.3828751,40.0614713 35.5931053,40.0614713 C37.2522711,40.0614713 40.5938101,40.8282517 40.5938101,44.1418999 C40.5938101,44.717701 40.5281998,45.2471174 40.4110182,45.7335849 C40.3405373,46.0004405 40.3018587,46.1670821 40.1219319,46.6151819 C39.5850166,47.9027889 38.6481365,48.82304 37.6161359,49.44179 C36.556917,50.1524505 35.0705153,50.8009784 33.4308319,50.8009784 C28.5252476,50.8009784 26.4248599,46.9080932 26.3641203,43.6113382 C26.3157005,43.24026 26.2870497,42.8557245 26.2870497,42.4537231 C26.2870497,38.1576912 30.6402472,33.8691037 36.5437377,33.8691037 M172.911073,74.0778323 C172.911073,72.3023262 173.374356,70.7432823 174.122714,69.4419317 C173.740512,67.0891928 173.522193,64.6852016 173.522193,62.1950263 C173.522193,57.9548279 174.067418,52.2632442 174.067418,48.3030724 C174.067418,9.32153604 139.108325,8.80099578 137.212504,8.80099578 C126.06621,8.80099578 114.83339,12.1011867 106.55647,12.1011867 C99.8639375,12.1011867 93.063105,10.9189475 89.7894684,10.2878855 C89.0078755,24.2511346 88.9207772,27.5498939 85.2775457,27.5498939 C85.2371481,27.5498939 81.7838712,27.4133165 81.195671,27.4133165 C81.0773433,27.4133165 80.9401061,27.4153207 80.7521571,27.4153207 C80.7521571,27.8319247 80.7467135,28.2224731 80.7467135,28.6027137 C80.7467135,33.2592298 82.5901038,34.3421139 82.5901038,35.2400315 C82.5901038,35.3980834 82.5393919,35.6314389 82.4058794,35.8373071 C82.3523024,36.4497579 81.646061,36.485835 81.0504116,36.485835 C79.5356456,36.485835 75.2323004,35.1544201 73.5172655,28.6745815 C65.3695605,27.7385825 65.2033861,27.1670763 65.2033861,18.2337121 C65.2033861,16.5976466 65.5039326,11.6201594 65.5039326,10.2853086 C65.5039326,9.60814814 65.4913263,9.78910603 65.4156882,9.38939525 C38.3155011,13.3638833 12.2656511,34.0162752 12.2656511,63.6816297 C12.2656511,70.4747088 13.3240104,75.9681551 14.4158911,80.7669751 C16.8056515,80.919873 17.2852654,83.8421139 17.2852654,83.8953705 C17.2852654,84.5559241 16.6397636,84.6512705 16.5283121,84.6512705 C15.6464415,84.6512705 15.2504879,83.0655984 14.8668542,82.7179989 C15.8679119,86.994847 16.7764278,90.7471463 16.7764278,94.4476206 C16.7764278,100.026678 15.122992,104.228223 13.7093632,108.048954 C15.0871786,108.702063 16.6543755,109.927824 17.4898318,112.212131 C18.3762866,112.548563 18.9283868,115.380898 18.9283868,117.063921 C18.9283868,123.409473 14.1637643,127.312952 10.1194221,127.312952 C8.28434052,127.312952 6.94864178,126.624339 6.24154086,126.322551 C6.11748304,126.425915 2.65360536,134.486558 2.65360536,142.60103 C2.65360536,149.537272 4.76545336,160.691093 24.9046502,166.012171 C31.3960544,131.074127 64.249029,119.941209 64.2730957,119.924602 C63.5743035,117.29699 62.6849837,73.8069681 62.6849837,72.902465 C62.6849837,59.3772944 77.3246659,41.2757789 101.196198,41.2757789 C137.527662,41.2757789 135.512081,76.4818235 135.749309,78.6026385 C135.997998,80.8239539 139.025524,86.7720856 139.025524,95.6676547 C139.025524,99.1863122 136.407704,99.5628306 135.548754,99.7747116 C135.377709,101.106699 135.195203,117.124049 134.993215,119.017808 C136.479044,119.799477 142.20404,119.913435 152.677615,132.247204 C152.704833,132.232315 152.731765,132.217426 152.758983,132.202537 C152.245848,130.494318 150.08558,127.766206 150.08558,118.152818 C150.08558,110.884152 151.736724,112.684282 151.998305,110.172918 C152.985037,100.703552 153.822213,93.1872145 153.822213,92.8785554 C153.822213,92.5607337 153.771501,92.4579428 153.771501,92.2197197 C153.771501,91.6673973 154.075486,91.3538706 154.655664,91.3538706 C154.682595,91.3538706 176.255763,94.0078242 176.255763,94.8330151 C176.255763,94.9131863 176.244589,95.0036653 176.244589,95.1098921 C176.244589,95.7366592 174.939547,107.512379 174.939547,107.771791 C174.939547,108.051817 175.014612,108.297771 175.171905,108.554892 C175.495658,109.085167 175.685613,109.715943 176.078988,110.17979 C176.118239,110.226461 176.285273,110.34271 176.536827,110.530539 C177.925243,111.106054 178.893353,112.223011 179.5655,113.534956 C180.999757,115.458206 182.330585,118.275652 182.330585,122.172832 C182.330585,133.620709 172.154119,139.062617 172.154119,139.089531 C172.154119,139.351806 173.815577,142.118858 173.815577,157.220538 C173.815577,158.514444 173.780623,159.774278 173.714727,161.002329 C187.034468,145.187411 189.187573,137.622112 189.187573,127.978659 C189.187573,107.007301 181.330387,93.3678861 176.745118,79.6689157 C174.231586,78.6309848 172.911073,76.5857598 172.911073,74.0778323" id="Shape" fill="#0C8C87"></path>
                <g id="Line">
                    <path d="M39.8646194,92.9851258 C40.1161731,94.0869074 40.5711473,95.0546885 41.0238294,95.8151698 C39.680968,92.8980828 40.0468383,93.2977936 39.8646194,92.9851258" id="Fill-1" fill="#5FC690"></path>
                    <path d="M137.225741,96.8013044 C137.124317,97.0023051 136.995102,97.2018741 136.836377,97.3908491 C137.044954,97.1935707 137.16099,96.9891341 137.225741,96.8013044" id="Fill-3" fill="#5FC690"></path>
                    <path d="M152.48087,113.198637 C152.429585,113.300283 152.376581,113.422544 152.323291,113.571147 C152.373143,113.446596 152.426147,113.322044 152.48087,113.198637" id="Fill-5" fill="#5FC690"></path>
                    <path d="M14.4510456,121.660051 C14.0722824,122.018244 13.60814,122.447733 13.0402818,122.966842 C13.5468274,122.609507 14.0238627,122.174578 14.4510456,121.660051" id="Fill-7" fill="#5FC690"></path>
                    <path d="M15.7800687,122.740902 C14.5351929,124.315408 12.8178659,125.483044 10.7005743,125.887622 C12.8224501,125.650258 14.5732984,124.411613 15.7800687,122.740902" id="Fill-9" fill="#5FC690"></path>
                    <path d="M151.867572,120.766256 C151.949226,122.65572 152.164394,124.771954 152.716494,126.980671 C152.70446,126.695777 152.762049,126.860128 151.867572,120.766256" id="Fill-11" fill="#5FC690"></path>
                    <path d="M144.742642,54.7305706 C144.889334,57.1271174 145.012532,59.0077051 145.131719,60.4808512 C145.029149,58.3199505 144.893631,56.407867 144.742642,54.7305706" id="Fill-13" fill="#5FC690"></path>
                    <path d="M163.895565,43.9182794 C163.855167,42.8906562 163.962034,41.8991101 162.599117,41.6943871 C163.35779,42.2126368 163.72366,43.0856441 163.895565,43.9182794" id="Fill-15" fill="#5FC690"></path>
                    <path d="M152.625528,42.1485857 C152.768781,42.1485857 152.889115,42.1377053 152.993403,42.1188078 C152.822931,42.1265386 152.653605,42.1345558 152.484566,42.1425729 C152.571664,42.1462951 152.622663,42.1485857 152.625528,42.1485857" id="Fill-17" fill="#5FC690"></path>
                    <path d="M164.019508,47.7995971 C164.019508,48.3476247 164.060765,49.5542015 164.121791,51.0662879 C164.08741,49.8691598 164.053029,48.7063908 164.020654,47.6452675 C164.020367,47.6968062 164.019508,47.7480585 164.019508,47.7995971" id="Fill-19" fill="#5FC690"></path>
                    <path d="M155.504586,69.7882427 C155.695686,69.2410742 155.762729,68.7800897 155.773617,68.3889686 C155.601998,68.9452996 155.688237,68.9404321 155.504586,69.7882427" id="Fill-21" fill="#5FC690"></path>
                    <path d="M169.212459,137.942596 C169.461721,138.001579 169.682045,138.056554 169.886039,138.056554 C170.384562,138.056554 180.598847,133.637402 180.598847,121.878861 C180.598847,116.784553 177.516024,113.740337 177.077095,113.27878 C177.209175,114.560947 177.692513,116.413475 177.692513,119.867995 C177.692513,130.417668 173.133317,134.519571 169.212459,137.942596 L169.212459,137.942596 Z M89.1192411,170.414802 C87.0380494,172.588301 80.4563953,179.219606 80.4563953,185.592645 C80.4563953,191.904411 87.1878929,192.144638 87.7182186,192.144638 C91.0566059,192.144638 95.9298148,190.131481 95.9298148,184.141546 C95.9298148,178.785536 90.8815497,172.661028 89.1192411,170.414802 L89.1192411,170.414802 Z M125.948656,120.14659 C125.31003,130.406788 113.372975,133.641124 105.763044,133.641124 C95.6745365,133.641124 88.557686,129.400353 85.9518988,124.592084 C85.6461951,124.028309 85.71553,124.602964 85.6567959,119.116963 C83.8827404,119.233211 82.1834635,119.245809 80.4543897,119.427053 C81.0835605,122.550295 86.9002392,140.633199 105.948701,140.633199 C120.562884,140.633199 128.109496,129.049317 129.493042,120.14659 L125.948656,120.14659 Z M174.900209,112.29926 C174.86984,112.306418 174.840043,112.313576 174.809673,112.320448 C174.73117,113.654153 174.715125,114.40719 174.715125,114.899957 C174.715125,115.243548 174.722861,115.460582 174.722861,115.660152 C174.722861,116.306389 174.640347,116.76451 173.940982,120.73728 C173.571387,122.836334 173.405785,123.668397 172.583222,123.668397 C171.811943,123.668397 171.782719,122.96604 171.782719,122.81171 C171.782719,122.012575 173.064841,117.578821 173.064841,113.313712 C173.064841,103.872978 170.197473,103.489302 169.631333,103.208416 C169.71528,104.217142 169.808968,104.939542 169.808968,106.349983 C169.808968,114.249424 168.494184,118.113391 168.077029,120.190684 C168.000818,120.571498 167.689957,121.030478 167.191721,121.030478 C167.033282,121.030478 166.396375,120.9672 166.396375,120.092475 C166.396375,118.77738 168.038064,114.995876 168.038064,106.072247 C168.038064,104.12924 167.919164,104.144129 167.573062,102.230614 C167.521491,101.944002 167.430095,101.645078 167.13929,101.481585 C165.709903,101.874711 163.345069,123.034758 158.142376,123.034758 C155.991563,123.034758 154.761012,115.00876 152.81362,112.717009 C152.619654,112.951223 151.818865,113.61779 151.818865,118.101938 C151.818865,127.989912 154.586529,132.616937 155.544611,133.055301 C165.237165,137.490774 165.495882,137.687193 165.756317,137.687193 C165.781816,137.687193 165.807029,137.685475 165.841123,137.685475 C166.897191,137.685475 175.963153,133.003476 175.963153,120.007722 C175.963153,114.842691 174.926282,112.375995 174.900209,112.29926 L174.900209,112.29926 Z M84.0537855,94.769823 C84.5127708,94.769823 84.9419593,94.7703957 85.3591144,94.7703957 C85.8788393,94.7703957 86.1034614,94.7695367 86.1392748,94.7695367 C86.2914104,94.7695367 86.4263555,94.7577973 86.5455427,94.7577973 C87.2832999,94.7577973 87.4234022,95.2096194 87.4234022,101.707783 C87.4234022,105.691147 87.3709713,111.946506 87.3709713,121.762899 C87.3709713,122.385944 87.3563594,122.545141 87.3563594,122.736693 C87.3563594,126.026863 94.4714908,131.95352 105.57882,131.95352 C110.520218,131.95352 124.203824,129.854752 124.203824,120.075009 C124.203824,110.688677 123.95227,100.993114 123.95227,100.965913 C123.95227,98.5902678 126.632549,98.3400191 128.85986,98.3400191 C129.454077,98.3400191 130.016491,98.3577713 130.486937,98.3577713 C131.806018,98.3577713 132.318007,98.3760961 132.60165,98.3760961 C137.043951,98.3760961 137.303241,96.9135441 137.303241,96.3091104 C137.303241,96.2289391 137.298657,96.1642295 137.298657,96.1195627 C137.298657,77.3998699 125.722028,64.1573028 119.811661,62.1521634 C113.726238,71.0505958 105.245898,68.9953494 103.366121,72.8733457 C96.5062682,87.0229928 89.9303443,87.2351602 88.7293041,87.2351602 C88.0605952,87.2351602 87.7921375,87.0009457 87.6806861,86.3555674 C87.4337165,84.9305241 88.2164554,66.6449011 81.5201982,66.6449011 C81.4540149,66.6449011 81.3752253,66.6420378 81.2887,66.6420378 C80.8818591,66.6420378 80.3045462,66.7056022 80.0633067,67.4300064 C79.7470023,68.3806079 77.1506698,79.4010007 77.1506698,86.3223537 C77.1506698,90.9078609 77.7683803,93.6133532 82.2731404,94.4574416 C82.1267349,92.8259573 82.0061152,92.6971107 82.0061152,92.2581733 C82.0061152,91.5286152 82.6725321,91.4169482 82.8315438,91.4169482 C83.7626937,91.4169482 83.7440707,92.4631826 84.0537855,94.769823 L84.0537855,94.769823 Z M152.758897,132.202337 C152.245762,130.494404 150.085494,127.766005 150.085494,118.152617 C150.085494,110.884238 151.736638,112.684368 151.998219,110.173004 C152.984951,100.703638 153.822127,93.1870141 153.822127,92.8783549 C153.822127,92.5605333 153.771415,92.4580287 153.771415,92.2198056 C153.771415,91.6674832 154.0754,91.3539565 154.655578,91.3539565 C154.682509,91.3539565 176.255677,94.0079101 176.255677,94.8328147 C176.255677,94.9129859 176.244503,95.0037512 176.244503,95.1096917 C176.244503,95.7364588 174.939461,107.512465 174.939461,107.77159 C174.939461,108.051617 175.014526,108.297857 175.171819,108.554691 C175.495859,109.084966 175.685813,109.715742 176.078902,110.179876 C176.346214,110.495407 182.330499,113.907838 182.330499,122.172631 C182.330499,133.620508 172.15432,139.062702 172.15432,139.089331 C172.15432,139.351891 173.815491,142.118657 173.815491,157.220624 C173.815491,185.443469 157.455044,197.930995 155.465821,197.930995 C154.884497,197.930995 154.634949,197.423626 154.634949,197.102941 C154.634949,195.619488 172.08871,187.989478 172.08871,156.999867 C172.08871,149.835137 171.549789,145.029159 171.540047,144.919783 C169.406711,145.111048 169.361443,145.117347 169.274631,145.117347 L169.254289,145.117347 C168.336319,145.117347 168.329156,144.289579 168.329156,144.25837 C168.329156,143.880706 168.561514,143.574338 168.974658,143.452363 C169.188106,143.389085 169.255722,143.389085 171.281904,143.17205 C171.251821,142.843634 171.286775,142.731395 170.852143,140.306502 C170.743843,139.702927 170.858159,139.861551 166.215302,139.566063 C166.152557,139.760765 166.088666,139.895051 166.067178,140.035924 C161.879295,167.652904 135.063897,195.340606 128.120957,195.340606 C127.752508,195.340606 127.285787,195.075755 127.285787,194.530304 C127.285787,193.596882 154.187138,179.974933 163.370568,143.756155 C161.080512,142.794959 159.529933,142.882288 159.529933,141.843498 C159.529933,141.556027 159.721606,141.003991 160.383439,141.003991 C160.841278,141.003991 162.309916,141.599262 163.946735,142.030469 C164.170211,141.074714 164.383945,140.161048 164.593669,139.264562 C164.182817,138.906369 155.321708,134.760658 153.763106,134.188579 C153.100701,134.661016 152.424256,135.143189 151.698819,135.660293 C153.463992,137.284047 155.662652,138.182251 155.662652,139.086467 C155.662652,139.499063 155.321421,139.919103 154.822325,139.919103 C154.217221,139.919103 153.980852,139.435212 149.978913,136.645254 C129.582719,147.169444 104.606126,155.713978 90.3904756,169.247166 C90.6216873,169.532919 97.6666243,177.359634 97.6666243,184.1132 C97.6666243,191.513576 91.5302031,193.886644 87.7491614,193.886644 C84.8677538,193.886644 78.7170072,192.261172 78.7170072,185.624427 C78.7170072,178.220615 86.3951262,170.715158 87.9141898,169.168999 C80.3758866,159.019895 54.0206194,141.43577 54.0206194,140.357754 C54.0206194,140.208292 54.1429582,139.386823 54.9660947,139.386823 C55.8207471,139.386823 76.2077731,154.298383 89.1859973,167.907734 C122.863541,143.780206 133.668605,144.386644 151.583642,133.764244 C148.940609,129.855611 140.020766,120.431198 131.694853,120.431198 C131.553605,120.431198 131.405481,120.467848 131.240166,120.485027 C127.173476,139.789397 111.810075,142.366329 106.158998,142.366329 C91.378354,142.366329 81.6660306,131.639134 78.6614247,119.532421 C78.3969781,119.532421 78.1462839,119.522973 77.9018929,119.522973 C42.0706711,119.522973 25.5176907,157.343172 25.5176907,178.50551 C25.5176907,189.844297 28.8139614,196.348473 28.8139614,197.146463 C28.8139614,197.650969 28.4082665,198 27.9647527,198 C26.2852447,198 23.7932011,186.81497 23.7932011,178.370936 C23.7932011,133.642269 64.2463645,119.943012 64.2730097,119.924401 C63.5742175,117.297076 62.6851842,73.807054 62.6851842,72.9025509 C62.6851842,59.3770939 77.32458,41.2758648 101.196399,41.2758648 C137.527576,41.2758648 135.511995,76.4819094 135.749223,78.6024381 C135.997912,80.8240398 139.025725,86.7721714 139.025725,95.6677406 C139.025725,99.1866844 136.407618,99.5629165 135.548668,99.7745112 C135.377623,101.106785 135.195404,117.124135 134.99313,119.017608 C136.478958,119.799277 142.203954,119.913521 152.677529,132.24729 L152.758897,132.202337 Z" id="Fill-25" fill="#000000"></path>
                    <path d="M152.513876,73.7365606 C152.513876,73.7620436 152.519606,73.7901035 152.519606,73.8155865 C152.556279,73.847655 152.593238,73.8797235 152.630484,73.9120783 C155.349155,71.1232653 155.775765,69.3918533 155.775765,68.2668793 C155.775765,67.7520656 155.686088,67.3640942 155.686088,67.0603025 C155.686088,66.15809 156.473985,65.994598 162.724149,65.4388397 C163.689107,65.3529419 164.444914,63.9843047 164.444914,62.9841688 C164.444914,62.9572542 163.989654,45.2651845 163.849838,42.9161679 C163.79225,41.9483867 162.857089,41.673514 162.34424,41.673514 C161.756326,41.673514 148.229153,42.3953413 145.842258,42.3953413 C145.375537,42.3953413 145.082726,42.3873242 145.044048,42.3873242 C144.446679,42.3873242 144.068489,42.8291248 144.068489,43.4312679 C144.068489,43.4607595 144.069349,43.4905374 144.071354,43.5208879 C145.314224,63.9997663 145.214233,65.7297466 146.737881,65.7297466 C146.756504,65.7297466 152.066064,65.591165 152.121074,65.591165 C153.189747,65.591165 153.367382,66.1285984 153.367382,69.2976521 C153.367382,72.4506716 152.513876,73.5430044 152.513876,73.7365606 M157.497676,67.6255096 C157.301132,71.3798132 154.372451,76.2195777 150.866743,76.2195777 C150.186001,76.2195777 149.891184,75.5833619 149.891184,75.1764929 C149.891184,74.2376307 151.720249,73.2062853 151.720249,68.7484793 C151.720249,68.3000931 151.7128,67.8514206 151.709362,67.4010302 C151.239776,67.4010302 150.802565,67.397308 150.378534,67.397308 C148.206233,67.397308 147.526637,67.4998126 147.198872,67.4998126 C143.893719,67.4998126 143.554781,63.0855281 143.540742,62.6746506 C143.437599,59.7005848 142.274092,43.5924693 142.274092,43.5655547 C142.274092,42.4491705 143.35881,40.7604211 145.059519,40.7017243 C151.612522,40.4749543 161.935394,39.9229182 161.962612,39.9229182 C163.320372,39.9229182 165.529632,40.8111008 165.628477,43.164985 C165.655409,43.8029188 166.15336,61.8852505 166.15336,62.863053 C166.15336,64.1343394 165.64796,65.2601724 164.815942,66.2276672 C163.741251,67.4766202 162.583474,67.0794863 157.497676,67.6255096" id="Fill-27" fill="#000000"></path>
                    <path d="M42.9263836,98.0796917 C42.6722513,96.9378245 42.062563,96.6125584 42.062563,93.0927557 C42.062563,90.1367284 42.268562,89.7158295 43.4260529,89.7158295 C43.9262953,89.7158295 48.6038195,89.858706 48.6307512,89.858706 C49.4739433,89.858706 50.0286221,88.3595043 50.0905078,87.3957317 C50.4005091,82.5559671 51.3648939,67.6005993 51.3648939,67.5665265 C51.3648939,67.0010331 50.9918609,66.5180015 50.4463503,66.5180015 C50.2781703,66.5180015 50.1309054,66.5758393 49.6128995,66.5758393 C49.5856813,66.5758393 33.4232108,65.8167897 33.055908,65.8167897 C32.8378756,65.8167897 31.5826855,65.8494308 31.5448665,67.357795 C31.4904301,69.5450376 30.9913337,86.9559353 30.9913337,86.9842816 C30.9913337,88.0099005 31.6101903,89.480756 32.8175336,89.5944273 C38.7233161,90.151331 39.6659263,89.8343683 39.6659263,91.1809585 C39.6659263,91.2064415 39.6653533,91.2224757 39.6653533,91.2731554 C39.6653533,94.3694823 41.6393911,97.0474873 42.9263836,98.0796917 M44.1045031,91.489904 C43.9924786,91.489904 43.8692803,91.4919083 43.7162852,91.4919083 C43.7162852,91.9517475 43.709409,92.3906849 43.709409,92.8218915 C43.709409,97.4514929 45.5361819,98.3176284 45.5361819,99.3045934 C45.5361819,99.6247056 45.3078353,100.353118 44.5560392,100.353118 C44.4723789,100.353118 44.3867131,100.344529 44.3004743,100.328208 C38.5943877,99.2607855 37.9282573,91.891619 37.8738209,91.7604818 C34.2036577,91.2668562 29.2528052,92.1939791 29.2528052,86.7818493 C29.2528052,86.5874341 29.6040636,74.8455003 29.7665134,67.7388946 C29.8326967,64.8575983 32.2534,64.0724931 32.8158145,64.0724931 C33.075677,64.0724931 34.6718112,64.1220274 50.3136972,64.8338333 C51.947364,64.908278 53.1080065,66.2199364 53.1080065,67.8325231 C53.1080065,67.9221431 53.1042819,68.012622 53.0974057,68.1036736 C51.6920856,85.7516491 52.7871179,91.6281993 48.3184579,91.6281993 C47.8987241,91.6281993 44.379837,91.489904 44.1045031,91.489904" id="Fill-29" fill="#000000"></path>
                    <g id="Group-33" transform="translate(66.311770, 0.000000)" fill="#000000">
                        <path d="M13.6437816,33.9883011 C13.6437816,33.8872281 13.6492252,33.8316809 13.6492252,33.7956039 C13.6492252,33.5894493 12.801449,32.427253 12.801449,29.4070887 C12.801449,25.9854957 13.0037235,25.6353193 14.1738208,25.6353193 C14.5671958,25.6353193 19.3472897,25.7813454 19.3742214,25.7813454 C20.3569427,25.7813454 20.7884233,23.9706212 20.8233772,23.4466451 C20.9746532,21.1680646 22.1095101,3.51894378 22.1095101,3.49317446 C22.1095101,2.93197594 21.7210057,2.43920928 21.1846634,2.43920928 C21.0098937,2.43920928 20.8594772,2.50420523 20.3239943,2.50420523 C20.2970626,2.50420523 4.47668229,1.73599317 3.76012661,1.73599317 C2.90432821,1.73599317 2.3843168,2.22990514 2.29779148,3.09861754 C2.27429786,3.33598161 1.73079281,22.8906004 1.73079281,22.917515 C1.73079281,23.7922403 2.37142395,25.5073317 3.49338798,25.5073317 C3.50742685,25.5073317 3.51974668,25.5070453 3.550403,25.5070453 C3.9429185,25.5070453 4.33658004,25.5600156 4.72794951,25.6038235 C9.36049197,26.1237911 10.3950712,25.7444094 10.4059584,27.1422519 C10.4182783,28.7064496 11.2634759,32.2792226 13.6437816,33.9883011 M14.8837868,27.4134024 C14.7654591,27.4134024 14.6285084,27.4151203 14.4402729,27.4151203 C14.4402729,27.8320106 14.4351158,28.2222727 14.4351158,28.6025133 C14.4351158,33.2593157 16.2782196,34.3419135 16.2782196,35.2401174 C16.2782196,35.5837084 16.0441428,36.2826296 15.2250174,36.2826296 C12.0422037,36.2826296 8.78031394,31.5840236 8.68261483,27.7080316 C4.71133207,27.0786875 0,28.3127516 0,22.5060649 C0,22.223175 0.515713799,4.26911731 0.515713799,3.7213761 C0.515713799,3.55759776 0.513994753,3.49775567 0.513994753,3.4459307 C0.513994753,1.07343533 2.8289767,0 3.67274178,0 C4.44889104,0 7.5305675,0.201000694 20.964339,0.750173531 C23.4406247,0.851532855 23.8680942,3.15502372 23.8680942,3.55158491 C23.8680942,3.59453378 23.8669481,3.63691 23.8640831,3.67871356 C22.6495771,23.2493666 23.1257528,27.5499798 18.9656615,27.5499798 C18.9255504,27.5499798 15.4722735,27.4134024 14.8837868,27.4134024" id="Fill-31"></path>
                    </g>
                    <path d="M10.9720976,112.995776 C9.91230573,112.995776 8.84735674,113.595056 8.34940641,114.614089 C8.48463803,114.835705 8.61929664,115.018095 8.61929664,115.27951 C8.61929664,115.63255 8.29898106,116.031688 7.82595691,116.031688 C7.26382887,116.031688 6.69081353,115.589315 6.69081353,114.875791 C6.69081353,113.748812 7.88612352,111.290419 11.0735213,111.290419 C14.6336656,111.290419 15.1009596,114.782162 15.1009596,115.573567 C15.1009596,120.46172 10.5603861,121.295501 9.51406008,121.295501 C5.89575476,121.295501 3.37162222,117.767395 3.37162222,114.383883 C3.37162222,114.29369 3.39253728,114.196912 3.39253728,114.098416 C3.39253728,113.989326 3.36675159,113.878518 3.25816518,113.772864 C3.21432951,113.824402 1.7339444,115.417805 1.7339444,118.018502 C1.7339444,123.502214 8.91583207,124.285887 9.043901,124.285887 C12.126437,124.285887 16.3429703,121.814037 16.3429703,115.858461 C16.3429703,111.453625 13.3976715,109.066813 11.044011,109.066813 C9.19403101,109.066813 5.1087182,110.618699 5.1087182,114.41452 C5.1087182,116.241565 6.41089554,119.533166 9.59485524,119.533166 C11.7671564,119.533166 13.3535493,117.53318 13.3535493,115.776858 C13.3535493,115.512293 13.3271906,112.995776 10.9720976,112.995776 M3.56558791,111.414971 C3.70282508,111.414971 3.8566797,111.426424 4.03460096,111.446753 C5.89518174,108.268251 9.35275626,107.323376 11.0889927,107.323376 C11.5330796,107.323376 18.0886615,107.981639 18.0886615,115.931188 C18.0886615,120.914688 14.7081576,126.044787 9.0401764,126.044787 C7.43172236,126.044787 0,124.366345 0,118.04055 C0,114.909005 1.53052395,113.067071 2.35566603,112.077243 C2.76795056,111.582472 3.04414396,111.414971 3.56558791,111.414971" id="Fill-34" fill="#000000"></path>
                    <path d="M184.458363,69.3689759 C184.443751,68.6273921 183.919442,67.5373499 183.363617,67.5373499 C183.292563,67.5373499 179.042795,68.1626854 179.042795,72.2883535 C179.042795,73.4728832 179.541605,76.1563284 181.915607,76.1563284 C183.157618,76.1563284 185.008171,75.0302091 185.008171,73.2186259 C185.008171,71.8895017 183.953536,70.7353225 182.645629,70.7353225 C181.451179,70.7353225 181.434561,71.7242917 181.434561,71.8162023 L181.434561,71.8219288 C181.434561,72.2634431 181.627094,72.4529908 181.627094,72.7960091 C181.627094,73.2632927 181.250337,73.5547724 180.874152,73.5547724 C180.147855,73.5547724 179.825534,72.4632985 179.825534,71.7715355 C179.825534,71.0279474 180.386803,69.0706244 182.509824,69.0706244 C182.953911,69.0706244 183.407739,69.1576675 183.854118,69.2031933 C184.036051,69.2218044 184.212253,69.2993987 184.458363,69.3689759 M186.220672,69.325168 C186.220672,69.7274557 186.123259,70.1334657 185.860245,70.5449158 C186.268518,71.2532858 186.77621,72.0498441 186.77621,73.2329422 C186.77621,75.1590557 184.944566,77.8802959 182.03107,77.8802959 C181.20249,77.8802959 177.360422,77.7826588 177.360422,72.0008824 C177.360422,68.9933165 179.001824,67.9453641 179.806625,67.1044253 C177.992458,67.2785114 174.663812,69.7314643 174.663812,74.0194791 C174.663812,78.3438573 179.334746,78.6642558 180.573033,78.6642558 C185.317026,78.6642558 189.017846,74.9497516 189.017846,71.3168501 C189.017846,68.6050587 187.31026,67.5061404 185.962528,67.5061404 C185.902075,67.5061404 185.841909,67.508431 185.781742,67.5130122 C185.996623,68.1142963 186.220672,68.7155805 186.220672,69.325168 M180.583347,80.4048302 C175.588086,80.2882956 172.910958,77.6509489 172.910958,74.0778896 C172.910958,68.5185883 177.438639,65.0686491 181.121695,65.0686491 C181.94082,65.0686491 182.776849,65.2246966 183.625772,65.5522533 C184.20509,65.7761601 190.731448,64.7050153 190.731448,71.3354613 C190.731448,72.3633708 189.5688,80.2127056 180.583347,80.4048302" id="Fill-36" fill="#000000"></path>
                    <path d="M44.3933315,40.9255452 C44.3933315,41.03349 44.3901799,41.1420075 44.3835902,41.2513839 C44.3827307,41.4088631 44.1879055,47.8531973 41.7227935,47.8531973 C41.1873107,47.8531973 40.938049,47.3953624 40.938049,47.0660877 C40.938049,46.8619375 41.0242878,46.6595051 41.2176805,46.5037439 C42.2502541,45.6716812 42.6407641,42.4465077 42.6407641,41.3607604 C42.6407641,40.1172475 41.4563414,35.6285183 36.769649,35.6285183 C31.1243019,35.6285183 28.0443445,39.3341465 28.0443445,42.5939655 C28.0443445,45.8148441 30.6873777,48.7350807 34.0501182,48.7350807 C35.9000982,48.7350807 38.824482,47.3438238 38.824482,44.3625998 C38.824482,44.1495734 38.8095836,43.9348291 38.7915336,43.7240933 C38.6310893,41.8443646 35.5723334,41.8372064 35.5393851,41.8372064 C35.1932838,41.8372064 34.844604,41.8618305 34.5025138,41.8941853 C33.0244208,42.0341986 32.9427661,43.5039088 32.9427661,43.5743449 C32.9427661,43.9605984 33.1848651,44.2589498 33.1848651,44.6263058 C33.1848651,45.0778416 32.7714345,45.3438382 32.4035587,45.3438382 C31.7709497,45.3438382 31.3131105,44.454224 31.3131105,43.6393409 C31.3131105,43.6367639 31.312824,43.6298921 31.312824,43.6198707 C31.312824,43.3263868 31.3830183,40.061414 35.592962,40.061414 C37.2521279,40.061414 40.5936668,40.8281944 40.5936668,44.1421289 C40.5936668,48.8561965 36.2682606,50.4939799 34.0429555,50.4939799 C30.960706,50.4939799 26.287193,47.8947145 26.287193,42.4536658 C26.287193,38.1576339 30.640104,33.8690464 36.5438809,33.8690464 C42.0806416,33.8690464 44.3933315,38.598003 44.3933315,40.9255452" id="Fill-38" fill="#000000"></path>
                    <path d="M119.836358,33.0069768 C120.323421,27.1934183 126.549806,28.921967 127.425373,26.4999372 C127.906706,25.169095 128.620683,20.0742142 133.251793,20.0742142 C134.080087,20.0742142 134.197555,20.8086398 134.197555,20.95123 C134.197555,21.7134293 133.268984,21.8030492 133.052097,21.811639 C128.473418,21.9943148 130.775794,28.4208969 126.432338,29.4324858 C123.956052,30.0091459 121.446245,30.6150113 121.446245,33.1587295 C121.446245,33.2741188 121.451115,33.3059009 121.451115,33.3809183 C121.451115,34.0663822 121.043702,34.2659512 120.699892,34.2659512 C119.88048,34.2659512 119.85756,33.1515713 119.836358,33.0069768" id="Fill-40" fill="#000000"></path>
                    <path d="M188.336846,98.3008784 C190.28739,98.5960802 191.385574,98.5293663 192.300393,99.9985039 C194.465818,103.475358 192.523582,103.550375 195.68806,103.550375 C195.929586,103.550375 195.998061,103.545508 196.10808,103.545508 C197.329462,103.545508 198.225945,104.101266 198.767444,105.196748 C198.951382,105.568686 200,108.044258 200,108.814761 C200,109.497075 199.350487,109.55978 199.235025,109.55978 C197.684159,109.55978 198.038569,105.32674 196.145039,105.302975 C192.010161,105.250864 192.624433,105.112569 190.932605,101.078525 C190.144996,99.2010866 186.687708,100.74925 186.687708,99.1418172 C186.687708,98.3807632 187.534338,98.352417 187.704237,98.352417 C187.717989,98.352417 187.727158,98.3527033 187.731455,98.3527033 C187.929146,98.3527033 188.128555,98.3661606 188.326532,98.3661606 C188.32997,98.3443999 188.333408,98.3226391 188.336846,98.3008784" id="Fill-42" fill="#000000"></path>
                    <path d="M7.25394435,75.567614 C12.1790111,75.9269528 10.5625349,80.6272767 14.3312567,80.7609909 C16.7957957,80.8480339 17.2854373,83.8415699 17.2854373,83.8951128 C17.2854373,84.5559527 16.6399355,84.6512992 16.5281975,84.6512992 C16.304435,84.6512992 16.078094,84.543927 15.8781116,84.3240288 C15.0744576,83.4404275 15.2417781,82.5648432 14.3197964,82.5081507 C9.09905372,82.1874659 10.6994855,77.2695344 7.03849059,77.2695344 C4.81060697,77.2695344 4.6283881,78.2519181 4.01296963,78.2519181 C3.5259066,78.2519181 3.25572987,77.7900746 3.25572987,77.4794112 C3.25572987,77.0711106 3.96540936,75.8201533 7.25394435,75.567614" id="Fill-44" fill="#000000"></path>
                    <path d="M39.1318474,124.414276 C39.1140839,124.414276 39.0968935,124.414276 39.07913,124.413703 C38.2304943,124.301463 38.0958357,124.274262 37.8187828,124.274262 C36.7973829,124.274262 35.9794035,124.796521 35.2344836,125.474254 C34.9792053,125.706464 35.2614153,126.747258 34.2930194,126.747258 C33.7217231,126.747258 33.4254742,126.299158 33.4254742,125.730515 C33.4254742,124.434605 35.7092268,122.555735 37.8505851,122.555735 C38.3803378,122.555735 38.5562535,122.631039 38.8484913,122.631039 C39.3023195,122.631039 39.6249271,122.445786 39.9085697,122.02775 C41.0385559,120.362766 43.1045627,118.968932 43.7815803,118.968932 C44.3359726,118.968932 44.519051,119.514955 44.519051,119.775512 C44.519051,120.089039 44.3514441,120.414018 44.0064888,120.623036 C40.872668,122.521376 41.1614677,124.414276 39.1318474,124.414276" id="Fill-46" fill="#000000"></path>
                    <path d="M81.3863991,83.0098508 C81.4623237,83.0098508 81.5531466,83.0101371 81.6857996,83.0101371 C81.6857996,82.8503673 81.6889512,82.7157942 81.6889512,82.5903835 C81.6889512,82.2737072 81.6539973,81.9850908 81.6539973,81.0029934 C81.6539973,78.884469 81.8493955,76.7719574 81.9187304,74.6560099 C81.9287581,74.3579448 82.0296088,73.5287454 82.7220979,73.5287454 C83.4291988,73.5287454 83.4521194,74.225376 83.4521194,74.3565132 L83.4521194,74.3751244 C83.4521194,74.402039 83.4079972,81.1722119 83.4079972,84.0701151 C83.4079972,84.1259486 83.4097163,84.1820685 83.4097163,84.237902 C83.4097163,84.6980275 83.1724879,85.2426192 82.5734004,85.2426192 C81.9840541,85.2426192 81.6734798,84.7220789 81.1801136,84.7220789 C80.9102234,84.7220789 80.7729862,84.9419771 80.7729862,85.3900769 C80.7729862,85.8189929 81.252027,88.947961 81.252027,89.3024323 C81.252027,89.9260499 80.8397425,90.223256 80.4228739,90.223256 C80.0796377,90.223256 79.830949,90.0557554 79.6799595,89.7476689 C79.5229533,89.4272704 79.0845965,85.8092579 79.0845965,85.487714 C79.0845965,83.0820049 80.9030607,83.0098508 81.3863991,83.0098508" id="Fill-48" fill="#000000"></path>
                    <path d="M112.074063,94.1366994 C112.059165,92.2360689 111.240326,92.0270511 111.168413,92.0270511 C110.751257,92.0270511 110.229527,92.866272 110.229527,94.1321182 C110.229527,95.3604558 110.729196,96.1710441 111.135464,96.1710441 C111.529126,96.1710441 112.072344,95.3097761 112.074063,94.1366994 M108.547441,94.2397767 C108.558901,91.7381484 109.854202,90.314823 111.171278,90.314823 C112.92757,90.314823 113.77334,92.6446558 113.77334,94.0762847 C113.77334,95.9382612 112.69292,97.8784047 111.138902,97.8784047 C110.066218,97.8784047 108.693846,96.9166364 108.547441,94.2397767" id="Fill-50" fill="#000000"></path>
                    <path d="M123.635077,71.2812598 C124.097214,71.2812598 124.458787,71.6440346 124.458787,72.2410238 C124.458787,72.248182 124.458787,72.2553401 124.458501,72.2624983 C124.377992,72.3710157 124.239609,72.6058029 124.052233,72.790483 C123.923304,72.9173253 119.686429,74.5058607 119.142637,74.5058607 C118.555583,74.5058607 118.38769,73.951534 118.38769,73.6881143 C118.38769,73.4756606 118.470777,73.2829633 118.649271,73.1320696 C119.062129,72.7830385 123.317913,71.2812598 123.635077,71.2812598" id="Fill-52" fill="#000000"></path>
                    <path d="M96.7761011,98.6418637 C96.7099179,98.933916 96.6511838,100.144788 95.7741838,100.144788 C95.367916,100.144788 94.9616481,99.8570303 94.9616481,99.2895326 C94.9616481,98.9731426 95.0602067,98.9147322 95.0602067,98.5253291 C95.0602067,96.7827505 93.3403012,97.2133844 93.3403012,96.1410944 C93.3403012,95.8834012 93.5354129,95.323348 94.1390846,95.323348 C94.2960908,95.323348 96.582422,95.6225584 96.7761011,98.6418637" id="Fill-54" fill="#000000"></path>
                    <path d="M96.9442811,95.1469713 C97.1322302,94.462939 97.2545689,93.3259394 98.1040642,93.3259394 C98.2266894,93.3259394 98.9091507,93.402102 98.9091507,94.1385319 C98.9091507,94.5806189 98.6478557,94.9159064 98.6478557,95.4169765 C98.6478557,96.6530449 100.059479,96.283971 100.059479,97.2984232 C100.059479,97.5521078 99.8583506,98.1029986 99.2672853,98.1029986 C99.1289021,98.1029986 97.0270819,97.8848184 96.9442811,95.1469713" id="Fill-56" fill="#000000"></path>
                    <path d="M105.16347,82.8548054 C105.16347,82.4250304 105.526475,82.0387769 106.082586,82.0287555 C106.173982,82.0651189 106.372246,82.1034865 106.522089,82.2097134 C108.590102,83.6751287 108.812145,83.8560866 108.812145,84.3351096 C108.812145,84.6998887 108.484094,85.140544 108.018805,85.140544 C107.75264,85.140544 107.500226,85.0071162 107.388775,84.9280903 C105.424765,83.5408419 105.16347,83.3650379 105.16347,82.8548054" id="Fill-58" fill="#000000"></path>
                    <path d="M119.313969,80.3284958 C119.278155,80.9761647 119.380725,82.2022116 118.411756,82.2022116 C118.375083,82.2022116 117.585182,82.1916176 117.585182,81.2756614 C117.585182,79.4053815 117.67142,78.6179511 118.502293,78.6179511 C118.526073,78.6179511 119.333738,78.5959385 119.333738,79.6659379 C119.333738,79.715186 119.333451,79.765293 119.333451,79.8159726 C119.333451,79.9869091 119.332592,80.1575593 119.332592,80.3284958 L119.313969,80.3284958 Z" id="Fill-60" fill="#000000"></path>
                    <path d="M111.605681,80.2416532 C111.605681,80.4266196 111.617714,80.6130177 111.617714,80.7976978 C111.617714,80.8097235 111.618,80.8269031 111.618,80.8489501 C111.618,81.0888911 111.585052,81.875428 110.793145,81.875428 C109.921875,81.875428 109.898668,81.0539594 109.898668,79.5206849 C109.898668,79.5152447 109.894657,79.4748727 109.894657,79.4127401 C109.894657,79.1424485 109.965711,78.4615658 110.726389,78.4615658 C111.143257,78.4615658 111.463573,78.7519002 111.55239,79.2186112 C111.565283,79.2858977 111.562418,79.2607011 111.613703,80.2416532 C111.611411,80.2416532 111.608546,80.2416532 111.605681,80.2416532" id="Fill-62" fill="#000000"></path>
                    <path d="M122.838529,82.3554246 C122.854,82.3554246 122.870618,82.3559972 122.888381,82.3559972 C122.898409,82.3559972 122.90901,82.3557109 122.919611,82.3551382 C123.467127,82.3737494 123.680288,82.8490502 123.680288,83.159141 C123.680288,83.3538425 123.599493,83.5305056 123.431886,83.6476128 C123.411831,83.6616428 121.734328,84.825557 121.366739,84.825557 C120.894001,84.825557 120.623252,84.3511152 120.623252,84.030144 C120.623252,83.8844042 120.675396,83.7506901 120.796589,83.6596385 C121.378486,83.22156 122.769767,82.3554246 122.838529,82.3554246" id="Fill-64" fill="#000000"></path>
                    <path d="M157.132981,52.792546 C157.132981,53.7379937 157.147879,54.6840141 157.147879,55.6297481 C157.147879,56.251934 157.14129,56.8738336 157.120088,57.4954468 C157.079404,58.6968698 156.05342,60.1952126 154.575327,60.1952126 C153.06228,60.1952126 151.917968,58.8709559 151.714834,57.16245 C151.19998,52.8332042 150.786836,51.4513961 150.786836,48.7218524 C150.786836,45.1015493 152.447721,44.2878115 153.902893,44.2878115 C156.013309,44.2878115 157.257325,46.4077675 157.257325,48.2663081 C157.257325,49.0147637 157.153036,51.9745132 157.153036,52.386536 C157.153036,52.5216818 157.154755,52.6571139 157.154755,52.792546 L157.132981,52.792546 Z" id="Fill-66" fill="#000000"></path>
                    <path d="M156.530598,62.4507439 C156.530598,62.5397912 156.516273,63.7801544 154.440525,63.8643342 C154.258593,63.7987656 152.967876,63.6135128 152.967876,62.660048 C152.967876,61.6304205 154.505562,61.4566208 155.021276,61.4566208 C156.236642,61.4566208 156.530598,61.9992081 156.530598,62.4475943 L156.530598,62.4507439 Z" id="Fill-68" fill="#000000"></path>
                    <path d="M38.3140113,77.8934669 C38.1647408,73.582546 38.1521344,73.3388828 38.1521344,72.9071035 C38.1521344,68.59561 41.2240696,68.4069213 41.5793391,68.4069213 C42.3056361,68.4069213 44.6638807,68.7668328 44.6638807,72.7333037 C44.6638807,74.8100246 44.1951541,77.6810131 43.8994782,79.5621735 C43.7562244,80.4744074 43.8450418,84.3320746 40.8576263,84.3320746 C39.8866518,84.3320746 38.2736137,83.533512 38.2736137,80.9499945 C38.2736137,80.6668183 38.2807764,80.362454 38.2807764,80.0288845 C38.2807764,79.3176513 38.2810629,78.6061317 38.2810629,77.8946122 C38.2919502,77.8943258 38.303124,77.8937532 38.3140113,77.8934669" id="Fill-70" fill="#000000"></path>
                    <path d="M40.3797029,85.5514215 C41.5523788,85.8082557 42.4442771,85.8208541 42.4442771,86.8040968 C42.4442771,87.5210565 41.6566675,87.9877675 40.7919874,87.9877675 C39.6883599,87.9877675 38.8981717,87.2819745 38.8981717,86.6136901 C38.8981717,85.5319514 40.1808666,85.6052508 40.3685291,85.5946567 C40.3722537,85.5803404 40.3759783,85.5657378 40.3797029,85.5514215" id="Fill-72" fill="#000000"></path>
                    <path d="M75.3367325,15.4921714 C75.3367325,14.5650486 75.3344404,13.5694939 75.3344404,12.4055796 C75.2547913,10.3961453 75.2043659,9.3407485 75.2043659,8.82851168 C75.2043659,5.1228835 77.5368248,4.33434232 78.645896,4.33434232 C78.9527457,4.33434232 81.7178312,4.36154327 81.7178312,8.6787633 C81.7178312,9.99099433 81.4969338,12.1991387 80.7359694,17.3756224 C80.3752563,19.8288616 78.5459048,20.255487 77.9132959,20.255487 C76.421737,20.255487 75.3318618,18.6821269 75.3318618,17.3469898 C75.3318618,17.2734041 75.3367325,16.7505732 75.3367325,15.4921714" id="Fill-74" fill="#000000"></path>
                    <path d="M78.0411929,23.9287318 C76.1270352,23.8431204 75.9488274,22.7797064 75.9488274,22.5065517 C75.9488274,21.7549465 76.678276,21.5221636 77.4309316,21.5221636 C77.5968195,21.5221636 79.5015225,21.5364799 79.5015225,22.7347533 C79.5015225,23.5848545 78.6829701,23.6985259 78.0411929,23.9287318" id="Fill-76" fill="#000000"></path>
                </g>
            </g>
        </g>
    </g>
</svg>