<?xml version="1.0" encoding="UTF-8"?>
<svg width="24px" height="24px" viewBox="0 0 24 24" version="1.1" xmlns="http://www.w3.org/2000/svg" xmlns:xlink="http://www.w3.org/1999/xlink">
    <title>icon/insurance</title>
    <g id="Landing" stroke="none" stroke-width="1" fill="none" fill-rule="evenodd">
        <g id="Landing-Page---Start-State" transform="translate(-1111.000000, -483.000000)">
            <g id="cards/risen-devices/medical-condition-section" transform="translate(1095.000000, 459.000000)">
                <g id="icon/insurance" transform="translate(16.000000, 24.000000)">
                    <circle id="Oval" fill="#0C8C87" cx="12" cy="12" r="12"></circle>
                    <g id="Icons/Universal-Icon-Set/Medicine/Solid/Heart-Rate" transform="translate(6.000000, 6.000000)">
                        <rect id="Rectangle" x="0" y="0" width="12" height="12"></rect>
                        <g id="Medical-Case" transform="translate(1.000000, 1.000000)" fill="#FFFFFF">
                            <path d="M0,3.88888889 C0,2.96841667 0.746194444,2.22222222 1.66666667,2.22222222 L8.33333333,2.22222222 C9.25383333,2.22222222 10,2.96841667 10,3.88888889 L10,8.33333333 C10,9.25383333 9.25383333,10 8.33333333,10 L1.66666667,10 C0.746194444,10 0,9.25383333 0,8.33333333 L0,3.88888889 Z M4.44444444,5 C4.44444444,4.69316667 4.69316667,4.44444444 5,4.44444444 C5.30683333,4.44444444 5.55555556,4.69316667 5.55555556,5 L5.55555556,5.55555556 L6.11111111,5.55555556 C6.41794444,5.55555556 6.66666667,5.80427778 6.66666667,6.11111111 C6.66666667,6.41794444 6.41794444,6.66666667 6.11111111,6.66666667 L5.55555556,6.66666667 L5.55555556,7.22222222 C5.55555556,7.52905556 5.30683333,7.77777778 5,7.77777778 C4.69316667,7.77777778 4.44444444,7.52905556 4.44444444,7.22222222 L4.44444444,6.66666667 L3.88888889,6.66666667 C3.58206667,6.66666667 3.33333333,6.41794444 3.33333333,6.11111111 C3.33333333,5.80427778 3.58206667,5.55555556 3.88888889,5.55555556 L4.44444444,5.55555556 L4.44444444,5 Z M3.33333333,1.66666667 C3.33333333,1.35984444 3.58206667,1.11111111 3.88888889,1.11111111 L6.11111111,1.11111111 C6.41794444,1.11111111 6.66666667,1.35984444 6.66666667,1.66666667 L6.66666667,2.22222222 L7.77777778,2.22222222 L7.77777778,1.66666667 C7.77777778,0.746194444 7.03161111,0 6.11111111,0 L3.88888889,0 C2.96841667,0 2.22222222,0.746194444 2.22222222,1.66666667 L2.22222222,2.22222222 L3.33333333,2.22222222 L3.33333333,1.66666667 Z" id="Combined-Shape"></path>
                        </g>
                    </g>
                </g>
            </g>
        </g>
    </g>
</svg>