<?xml version="1.0" encoding="UTF-8"?>
<svg width="32px" height="32px" viewBox="0 0 32 32" version="1.1" xmlns="http://www.w3.org/2000/svg" xmlns:xlink="http://www.w3.org/1999/xlink">
    <title>icon/medical-condition copy 4@2x</title>
    <g id="Scan-View" stroke="none" stroke-width="1" fill="none" fill-rule="evenodd">
        <g id="Info-Page---Filter" transform="translate(-192.000000, -224.000000)">
            <g id="icon/medical-condition-copy-4" transform="translate(192.000000, 224.000000)">
                <circle id="Oval" fill="#9B9B9B" cx="16" cy="16" r="16"></circle>
                <g id="Icons/Universal-Icon-Set/Medicine/Solid/Heart-Rate" transform="translate(8.000000, 8.000000)">
                    <rect id="Rectangle" x="0" y="0" width="16" height="16"></rect>
                    <g id="Medical-Case" transform="translate(1.333333, 1.333333)" fill="#FFFFFF">
                        <path d="M8.88888889,2.22222222 C8.88888889,1.81312593 8.55725926,1.48148148 8.14814815,1.48148148 L8.14814815,1.48148148 L5.18518519,1.48148148 C4.77608889,1.48148148 4.44444444,1.81312593 4.44444444,2.22222222 L4.44444444,2.22222222 L4.44444444,2.96296296 L2.96296296,2.96296296 L2.96296296,2.22222222 C2.96296296,0.994925926 3.95788889,0 5.18518519,0 L5.18518519,0 L8.14814815,0 C9.37548148,0 10.3703704,0.994925926 10.3703704,2.22222222 L10.3703704,2.22222222 L10.3703704,2.96296296 L11.1111111,2.96296296 C12.3384444,2.96296296 13.3333333,3.95788889 13.3333333,5.18518519 L13.3333333,11.1111111 C13.3333333,12.3384444 12.3384444,13.3333333 11.1111111,13.3333333 L2.22222222,13.3333333 C0.994925926,13.3333333 0,12.3384444 0,11.1111111 L0,5.18518519 C0,3.95788889 0.994925926,2.96296296 2.22222222,2.96296296 L8.88888889,2.96296296 Z M6.66666667,5.92592593 C6.25755556,5.92592593 5.92592593,6.25755556 5.92592593,6.66666667 L5.92592593,6.66666667 L5.92592593,7.40740741 L5.18518519,7.40740741 C4.77608889,7.40740741 4.44444444,7.73903704 4.44444444,8.14814815 C4.44444444,8.55725926 4.77608889,8.88888889 5.18518519,8.88888889 L5.18518519,8.88888889 L5.92592593,8.88888889 L5.92592593,9.62962963 C5.92592593,10.0387407 6.25755556,10.3703704 6.66666667,10.3703704 C7.07577778,10.3703704 7.40740741,10.0387407 7.40740741,9.62962963 L7.40740741,9.62962963 L7.40740741,8.88888889 L8.14814815,8.88888889 C8.55725926,8.88888889 8.88888889,8.55725926 8.88888889,8.14814815 C8.88888889,7.73903704 8.55725926,7.40740741 8.14814815,7.40740741 L8.14814815,7.40740741 L7.40740741,7.40740741 L7.40740741,6.66666667 C7.40740741,6.25755556 7.07577778,5.92592593 6.66666667,5.92592593 Z" id="Combined-Shape"></path>
                    </g>
                </g>
            </g>
        </g>
    </g>
</svg>