<?xml version="1.0" encoding="UTF-8"?>
<svg width="24px" height="24px" viewBox="0 0 24 24" version="1.1" xmlns="http://www.w3.org/2000/svg" xmlns:xlink="http://www.w3.org/1999/xlink">
    <title>icon/logout@2x</title>
    <g id="Landing---Settings" stroke="none" stroke-width="1" fill="none" fill-rule="evenodd">
        <g id="Landing-Page---Start-State" transform="translate(-24.000000, -1104.000000)">
            <g id="Bottom-Nav" transform="translate(24.000000, 1064.000000)">
                <g id="icon/logout" transform="translate(0.000000, 40.000000)">
                    <circle id="Oval" fill="#0C8C87" cx="12" cy="12" r="12"></circle>
                    <g id="Icons/Universal-Icon-Set/Medicine/Solid/Medical-Chart" transform="translate(6.000000, 6.000000)">
                        <rect id="bounding-box" x="0" y="0" width="12" height="12"></rect>
                        <g id="Logout" transform="translate(1.000000, 1.000000)" fill="#FFFFFF">
                            <path d="M3.88888833,4.44444475 L3.88888833,2.31192265 C3.88888833,2.01908378 3.88888833,1.76640601 3.90588889,1.55832269 C3.92383333,1.33868382 3.96344444,1.12022827 4.07055556,0.910017173 C4.23033333,0.596417191 4.48527778,0.341444983 4.79888889,0.181656103 C5.00911111,0.0745505532 5.22755556,0.0349283332 5.44722222,0.0169838898 C5.65527778,0 5.90794444,0 6.20077778,0 L7.68811111,0 C7.98094444,0 8.23361111,0 8.44166667,0.0169838898 C8.66133333,0.0349283332 8.87977778,0.0745505532 9.09,0.181656103 C9.40361111,0.341444983 9.65855556,0.596411635 9.81833333,0.910017173 C9.92544444,1.12022827 9.96505556,1.33868382 9.983,1.55831714 C10,1.76641157 10,2.01907822 10,2.31193376 L10,7.68811124 C10,7.98094456 10,8.23361121 9.983,8.44166675 C9.96505556,8.66133341 9.92544444,8.87977784 9.81833333,9.09000005 C9.65855556,9.40361114 9.40361111,9.65855557 9.09,9.81833334 C8.87977778,9.92544445 8.66133333,9.96505556 8.44166667,9.983 C8.23361111,10 7.98094444,10 7.68805556,10 L6.20083333,10 C5.90794444,10 5.65527778,10 5.44722222,9.983 C5.22755556,9.96505556 5.00911111,9.92544445 4.79888889,9.81833334 C4.48527778,9.65855557 4.23033333,9.40361114 4.07055556,9.09000005 C3.96344444,8.87977784 3.92383333,8.66133341 3.90588889,8.44166675 C3.88888833,8.23361121 3.88888833,7.98094456 3.88888833,7.68811124 L3.88888833,5.5555558 L7.22222222,5.5555558 C7.52905556,5.5555558 7.77777778,5.30683359 7.77777778,5 C7.77777778,4.69316696 7.52905556,4.44444475 7.22222222,4.44444475 L3.88888833,4.44444475 Z" id="Path"></path>
                            <path d="M2.61506111,6.27383354 C2.83201667,6.49077797 2.83201667,6.84255573 2.61506111,7.05950016 C2.3981,7.2764446 2.04634444,7.2764446 1.82938333,7.05950016 L0.162716667,5.39283359 C-0.0542388889,5.17588916 -0.0542388889,4.8241114 0.162716667,4.60716697 L1.82938333,2.94049484 C2.04634444,2.72353929 2.3981,2.72353929 2.61506111,2.94049484 C2.83201667,3.15745594 2.83201667,3.50921147 2.61506111,3.72617257 L1.89678333,4.44444475 L3.88888889,4.44444475 L3.88888889,5.5555558 L1.89678333,5.5555558 L2.61506111,6.27383354 Z" id="Path"></path>
                        </g>
                    </g>
                </g>
            </g>
        </g>
    </g>
</svg>