<?xml version="1.0" encoding="UTF-8"?>
<svg width="50px" height="50px" viewBox="0 0 50 50" version="1.1" xmlns="http://www.w3.org/2000/svg" xmlns:xlink="http://www.w3.org/1999/xlink">
    <title>logo</title>
    <g id="Coming-Soon-Page---01" stroke="none" stroke-width="1" fill="none" fill-rule="evenodd">
        <g transform="translate(-40.000000, -40.000000)" id="logo">
            <g transform="translate(40.000000, 40.000000)">
                <rect id="Rectangle" fill="#FFFFFF" x="0" y="0" width="50" height="50" rx="3.33333333"></rect>
                <g id="RD-Symbol-2" transform="translate(16.000000, 12.500000)" fill="#00D2AF" fill-rule="nonzero">
                    <g id="Group">
                        <path d="M0,13.8198586 L0.00272200736,13.8198586 L0.00272200736,13.1240336 C0.00272200736,12.9031367 0.0871042355,12.7070908 0.223204604,12.5579854 L0.222,12.559 C0.345241267,12.4245269 0.511586161,12.3313361 0.70061445,12.3039796 L0.816602208,12.2956704 L8.30212245,12.2956704 C9.03978644,12.2956704 9.65496011,12.1714159 10.1449214,11.922907 C10.6348828,11.6716368 11.0186858,11.3568588 11.2990526,10.9702894 C11.5766973,10.5837199 11.7781258,10.1833444 11.9006162,9.76364038 C12.0231065,9.34669759 12.0857127,8.9546057 12.0857127,8.59288712 C12.0857127,8.32228849 12.0476046,7.97713718 11.9686664,7.55743318 C11.8924502,7.14049039 11.7291297,6.71526397 11.4841491,6.28451513 C11.2391684,5.85376629 10.8662534,5.49204771 10.362682,5.19659819 C9.91748259,4.93397639 9.33463697,4.78916624 8.61414514,4.76022845 L8.33750854,4.75480451 L4.71996076,4.75480451 C4.60019244,4.75480451 4.4821662,4.71415949 4.38678706,4.64135189 L4.31982568,4.58084824 L0.895540422,0.949856417 C0.579107066,0.61592252 0.779429795,0.0732799384 1.20717903,0.00675404496 L1.2956755,0 L7.46646619,0 C9.00712236,0 10.3790141,0.198807157 11.5848633,0.593660261 C12.7907126,0.991274575 13.8005773,1.55732273 14.6144575,2.29180473 C15.4283377,3.02904793 16.0489554,3.9126353 16.4735885,4.94256682 C16.8982217,5.97249834 17.1105383,7.13496797 17.1078421,8.42169207 C17.1078421,9.44057875 16.9581059,10.4594654 16.655963,11.4783521 C16.3565422,12.4972388 15.8638589,13.4277667 15.1833571,14.2644135 C15.0490714,14.4300861 14.9051074,14.5883956 14.7530783,14.740978 L14.5191873,14.965761 L14.3713973,15.1259031 C14.0606123,15.4375899 13.6609772,15.6982707 13.2153457,15.9183786 C11.2297264,16.8947254 8.31169998,17.0418461 8.13126241,17.0500877 L4.85333912,17.0504749 L4.95949741,17.0532361 L4.85606113,17.0532361 L4.85606113,24.2379059 C4.85606113,24.6603711 4.51853222,25 4.1047871,25 L4.1047871,25 L0.751274031,25 C0.334806905,25 0,24.6603711 0,24.2379059 L0,24.2379059 L0,13.8198586 Z M13.2180677,15.9211398 L18.2129512,23.8264855 C18.5152542,24.3046622 18.2147596,24.9222562 17.6836419,24.9932597 L17.5814455,25 L13.697141,25 C13.4801582,25 13.2771742,24.9066824 13.1361853,24.7461296 L13.0710793,24.6603711 L8.08980587,17.0532361 L8.12519197,17.0532361 C8.12519197,17.0532361 11.1683962,16.9289817 13.2180677,15.9211398 Z" id="Combined-Shape"></path>
                    </g>
                </g>
            </g>
        </g>
    </g>
</svg>