<?xml version="1.0" encoding="UTF-8"?>
<svg width="32px" height="32px" viewBox="0 0 32 32" version="1.1" xmlns="http://www.w3.org/2000/svg" xmlns:xlink="http://www.w3.org/1999/xlink">
    <title>icon/medical-condition copy 2@2x</title>
    <g id="Scan-View" stroke="none" stroke-width="1" fill="none" fill-rule="evenodd">
        <g id="Info-Page---Filter" transform="translate(-112.000000, -224.000000)">
            <g id="icon/medical-condition-copy-2" transform="translate(112.000000, 224.000000)">
                <circle id="Oval" fill="#9B9B9B" cx="16" cy="16" r="16"></circle>
                <g id="Icons/Universal-Icon-Set/Medicine/Solid/Medical-Chart" transform="translate(8.000000, 8.000000)">
                    <rect id="bounding-box" x="0" y="0" width="16" height="16"></rect>
                    <path d="M4.99897414,6.57102947 C5.14363478,6.42634099 5.37818417,6.42634099 5.52284482,6.57102947 L5.52284482,6.57102947 L9.42912674,10.477248 C9.57374294,10.6218624 9.57374294,10.8564163 9.42912674,11.0011048 L9.42912674,11.0011048 L6.68097456,13.7491487 C5.45766381,14.9724442 3.47429569,14.9725183 2.25093308,13.7492969 C1.02750379,12.5259273 1.02745934,10.542443 2.25084418,9.3190734 L2.25084418,9.3190734 Z M9.3190347,2.25082999 C10.5423455,1.02753445 12.5257062,1.02749741 13.749091,2.25074109 C14.9724758,3.47405886 14.9725499,5.45753567 13.7491651,6.68089789 L13.7491651,6.68089789 L11.0008647,9.42916408 C10.8561744,9.57385256 10.6216176,9.57385256 10.4770015,9.42916408 L10.4770015,9.42916408 L6.57073434,5.52296776 C6.42604407,5.37830891 6.42604407,5.14376985 6.57073434,4.999111 L6.57073434,4.999111 Z" id="Pills" fill="#FFFFFF"></path>
                </g>
            </g>
        </g>
    </g>
</svg>