<?xml version="1.0" encoding="UTF-8"?>
<svg width="32px" height="32px" viewBox="0 0 32 32" version="1.1" xmlns="http://www.w3.org/2000/svg" xmlns:xlink="http://www.w3.org/1999/xlink">
    <title>icon/medical-condition copy 8</title>
    <g id="Scan-View" stroke="none" stroke-width="1" fill="none" fill-rule="evenodd">
        <g id="Info-Page---Filter" transform="translate(-32.000000, -224.000000)">
            <g id="icon/medical-condition-copy-8" transform="translate(32.000000, 224.000000)">
                <circle id="Oval" fill="#9B9B9B" cx="16" cy="16" r="16"></circle>
                <g id="Icons/Universal-Icon-Set/Medicine/Solid/Medical-Chart" transform="translate(8.000000, 8.000000)">
                    <rect id="Rectangle" x="0" y="0" width="16" height="16"></rect>
                    <path d="M5.36075333,2.33194 C5.33042,2.15036 5.18409333,2 5,2 L4.66666667,2 C3.5621,2 2.66666667,2.89543333 2.66666667,4 L2.66666667,12.6666667 C2.66666667,13.7712667 3.5621,14.6666667 4.66666667,14.6666667 L11.3333333,14.6666667 C12.4379333,14.6666667 13.3333333,13.7712667 13.3333333,12.6666667 L13.3333333,4 C13.3333333,2.89543333 12.4379333,2 11.3333333,2 L11,2 C10.8159333,2 10.6696,2.15036 10.6392667,2.33194 C10.4811333,3.27852667 9.65813333,4 8.66666667,4 L7.33333333,4 C6.34184667,4 5.51886667,3.27852667 5.36075333,2.33194 Z M6,10 C5.63181333,10 5.33333333,10.2984667 5.33333333,10.6666667 C5.33333333,11.0348667 5.63181333,11.3333333 6,11.3333333 L8.66666667,11.3333333 C9.03486667,11.3333333 9.33333333,11.0348667 9.33333333,10.6666667 C9.33333333,10.2984667 9.03486667,10 8.66666667,10 L6,10 Z M5.33333333,8 C5.33333333,7.6318 5.63181333,7.33333333 6,7.33333333 L10,7.33333333 C10.3682,7.33333333 10.6666667,7.6318 10.6666667,8 C10.6666667,8.3682 10.3682,8.66666667 10,8.66666667 L6,8.66666667 C5.63181333,8.66666667 5.33333333,8.3682 5.33333333,8 Z" id="Shape" fill="#FFFFFF"></path>
                    <path d="M7.33333333,1.33333333 C6.96513333,1.33333333 6.66666667,1.63181333 6.66666667,2 C6.66666667,2.36818667 6.96513333,2.66666667 7.33333333,2.66666667 L8.66666667,2.66666667 C9.03486667,2.66666667 9.33333333,2.36818667 9.33333333,2 C9.33333333,1.63181333 9.03486667,1.33333333 8.66666667,1.33333333 L7.33333333,1.33333333 Z" id="Path" fill="#FFFFFF"></path>
                </g>
            </g>
        </g>
    </g>
</svg>