<?xml version="1.0" encoding="UTF-8"?>
<svg width="110px" height="34px" viewBox="0 0 110 34" version="1.1" xmlns="http://www.w3.org/2000/svg" xmlns:xlink="http://www.w3.org/1999/xlink">
    <title>logo/risendevices/full/light/primary</title>
    <g id="Landing" stroke="none" stroke-width="1" fill="none" fill-rule="evenodd">
        <g id="Landing-Page---Empty-State" transform="translate(-23.000000, -23.000000)">
            <g id="logo/risendevices/full/light/primary" transform="translate(24.000000, 24.000000)">
                <g id="logo/risendevices/light">
                    <rect id="Rectangle" stroke="#0C8C87" stroke-width="0.533333333" stroke-linecap="round" x="0" y="0" width="31.902439" height="32" rx="0.8"></rect>
                    <path d="M11.1023163,14 L9.56404356,11.5489362 L8.73638595,11.5489362 L8.73638595,14 L7.97560976,14 L7.97560976,8 L9.91517104,8 C10.5839853,8 11.085596,8.16312057 11.4200031,8.4893617 C11.7544102,8.81560284 11.9216137,9.24822695 11.9216137,9.78723404 C11.9216137,10.2751773 11.7878509,10.6680851 11.5203252,10.9659574 C11.2527995,11.2638298 10.8654446,11.4496454 10.3582605,11.5234043 L11.9634146,14 L11.1023163,14 Z M8.73638595,10.987234 L9.84828961,10.987234 C10.7121747,10.987234 11.1441172,10.6014184 11.1441172,9.82978723 C11.1441172,9.05815603 10.7121747,8.67234043 9.84828961,8.67234043 L8.73638595,8.67234043 L8.73638595,10.987234 Z" id="Shape" fill="#0C8C87"></path>
                    <path d="M23.9268293,20.9957447 C23.9268293,21.6028369 23.8065462,22.1319149 23.5659799,22.5829787 C23.3254137,23.0340426 22.9715575,23.3829787 22.5044115,23.6297872 C22.0372654,23.8765957 21.4764104,24 20.8218465,24 L18.9420732,24 L18.9420732,18 L20.8218465,18 C21.4764104,18 22.0372654,18.1205674 22.5044115,18.3617021 C22.9715575,18.6028369 23.3254137,18.9489362 23.5659799,19.4 C23.8065462,19.8510638 23.9268293,20.3829787 23.9268293,20.9957447 Z M20.7631036,23.3021277 C21.5351534,23.3021277 22.1253798,23.1007092 22.533783,22.6978723 C22.9421861,22.2950355 23.1463877,21.7276596 23.1463877,20.9957447 C23.1463877,20.2638298 22.9435847,19.6950355 22.5379789,19.2893617 C22.132373,18.8836879 21.5407479,18.6808511 20.7631036,18.6808511 L19.7057311,18.6808511 L19.7057311,23.3021277 L20.7631036,23.3021277 Z" id="Shape" fill="#0C8C87"></path>
                    <line x1="10.3682927" y1="21.8" x2="21.6338415" y2="10.5" id="Path-4" stroke="#0C8C87" stroke-width="0.533333333" stroke-linecap="round"></line>
                </g>
                <g id="logo/risendevices/logotypes/light/primary" transform="translate(40.409756, 0.000000)" fill="#0C8C87">
                    <path d="M6.27792701,14.2163355 L3.6318586,9.50110375 L2.95737058,9.50110375 L2.95737058,14.2163355 L0,14.2163355 L0,1.73068433 L5.05001291,1.73068433 C6.01850854,1.73068433 6.83711794,1.90139809 7.50584111,2.24282561 C8.17456428,2.58425313 8.67610666,3.0522443 9.01046825,3.64679912 C9.34482983,4.24135394 9.51201063,4.92126564 9.51201063,5.68653422 C9.51201063,6.59308315 9.26700429,7.36423841 8.77699162,8 C8.28697896,8.63576159 7.57501937,9.07137601 6.64111287,9.30684327 L9.54659976,14.2163355 L6.27792701,14.2163355 Z M2.95737058,7.43487859 L4.79059444,7.43487859 C5.37860965,7.43487859 5.81097376,7.30242826 6.0876868,7.03752759 C6.36439984,6.77262693 6.50275636,6.38116262 6.50275636,5.86313466 C6.50275636,5.36865342 6.36151741,4.98013245 6.07903952,4.69757174 C5.79656163,4.41501104 5.36707994,4.27373068 4.79059444,4.27373068 L2.95737058,4.27373068 L2.95737058,7.43487859 Z" id="Shape"></path>
                    <path d="M10.7226302,1.58940397 C10.7226302,1.13024283 10.8840461,0.750551876 11.206878,0.450331126 C11.5297099,0.150110375 11.9563091,0 12.4866758,0 C13.0170424,0 13.4436417,0.150110375 13.7664736,0.450331126 C14.0893054,0.750551876 14.2507214,1.13024283 14.2507214,1.58940397 C14.2507214,2.03679176 14.0893054,2.41059603 13.7664736,2.71081678 C13.4436417,3.01103753 13.0170424,3.1611479 12.4866758,3.1611479 C11.9563091,3.1611479 11.5297099,3.01103753 11.206878,2.71081678 C10.8840461,2.41059603 10.7226302,2.03679176 10.7226302,1.58940397 Z M13.9567138,4.36203091 L13.9567138,14.2163355 L10.9993432,14.2163355 L10.9993432,4.36203091 L13.9567138,4.36203091 Z" id="Shape"></path>
                    <path d="M19.5082691,4.2384106 C20.7304183,4.2384106 21.7075612,4.55040471 22.4396978,5.17439294 C23.1718344,5.79838116 23.6301403,6.62251656 23.8146157,7.64679912 L21.0474853,7.64679912 C20.9667774,7.24650478 20.7851844,6.93156733 20.5027065,6.70198675 C20.2202287,6.47240618 19.8656901,6.35761589 19.4390908,6.35761589 C19.1047292,6.35761589 18.8510756,6.43119941 18.67813,6.57836645 C18.5051843,6.72553348 18.4187115,6.93451067 18.4187115,7.20529801 C18.4187115,7.51140545 18.577245,7.74098602 18.894312,7.89403974 C19.211379,8.04709345 19.710039,8.20014717 20.3902919,8.35320088 C21.1281933,8.52980132 21.7335031,8.70934511 22.2062212,8.89183223 C22.6789393,9.07431935 23.088244,9.37159676 23.4341353,9.78366446 C23.7800266,10.1957322 23.9529722,10.7490802 23.9529722,11.4437086 C23.9529722,12.00883 23.803086,12.5091979 23.5033135,12.9448124 C23.2035411,13.3804268 22.771177,13.7218543 22.2062212,13.9690949 C21.6412654,14.2163355 20.9725422,14.3399558 20.2000517,14.3399558 C18.8971944,14.3399558 17.8537557,14.0456218 17.0697354,13.4569536 C16.2857152,12.8682855 15.8072322,12.0264901 15.6342866,10.9315673 L18.4878897,10.9315673 C18.5340086,11.3554084 18.7098367,11.6791759 19.015374,11.9028698 C19.3209113,12.1265636 19.7158038,12.2384106 20.2000517,12.2384106 C20.5344132,12.2384106 20.7880669,12.1589404 20.9610125,12 C21.1339582,11.8410596 21.220431,11.6320824 21.220431,11.3730684 C21.220431,11.0316409 21.0618975,10.7873436 20.7448304,10.6401766 C20.4277634,10.4930096 19.9118089,10.3370125 19.1969669,10.1721854 C18.4821249,10.0191317 17.8941097,9.85430464 17.4329213,9.67770419 C16.9717329,9.50110375 16.5739579,9.21559971 16.2395963,8.82119205 C15.9052347,8.4267844 15.7380539,7.88815305 15.7380539,7.20529801 C15.7380539,6.32229581 16.0666507,5.60706402 16.7238441,5.05960265 C17.3810376,4.51214128 18.3091792,4.2384106 19.5082691,4.2384106 Z" id="Path"></path>
                    <path d="M34.7620752,9.02428256 C34.7620752,9.27152318 34.7332509,9.54231052 34.6756024,9.83664459 L27.9826058,9.83664459 C28.0171949,10.5783664 28.2016703,11.1111111 28.5360319,11.4348786 C28.8703935,11.7586461 29.2969927,11.9205298 29.8158297,11.9205298 C30.2539586,11.9205298 30.6171445,11.8086829 30.9053873,11.584989 C31.19363,11.3612951 31.3838702,11.0728477 31.4761079,10.7196468 L34.6064241,10.7196468 C34.4795973,11.4142752 34.2028843,12.0353201 33.776285,12.5827815 C33.3496857,13.1302428 32.8077894,13.5599706 32.1505959,13.8719647 C31.4934025,14.1839588 30.7612659,14.3399558 29.9541862,14.3399558 C29.00875,14.3399558 28.1699636,14.1368653 27.437827,13.7306843 C26.7056904,13.3245033 26.1320874,12.7387785 25.7170178,11.9735099 C25.3019483,11.2082414 25.0944135,10.3134658 25.0944135,9.28918322 C25.0944135,8.2531273 25.2990658,7.35540839 25.7083705,6.59602649 C26.1176752,5.83664459 26.6912783,5.25386313 27.4291797,4.84768212 C28.1670812,4.4415011 29.00875,4.2384106 29.9541862,4.2384106 C30.9111521,4.2384106 31.7528209,4.43855776 32.4791926,4.8388521 C33.2055644,5.23914643 33.7676377,5.8013245 34.1654127,6.52538631 C34.5631877,7.24944812 34.7620752,8.08241354 34.7620752,9.02428256 Z M31.7701155,8.56512141 C31.7816452,7.91758646 31.611582,7.43193525 31.2599258,7.10816777 C30.9082697,6.78440029 30.4730231,6.62251656 29.9541862,6.62251656 C29.4122898,6.62251656 28.9626311,6.78734364 28.6052101,7.11699779 C28.2477891,7.44665195 28.0460192,7.92935982 27.9999004,8.56512141 L31.7701155,8.56512141 Z" id="Shape"></path>
                    <path d="M42.4235674,4.25607064 C43.5304195,4.25607064 44.4095599,4.63281825 45.0609885,5.38631347 C45.7124171,6.13980868 46.0381314,7.17586461 46.0381314,8.49448124 L46.0381314,14.2163355 L43.0807609,14.2163355 L43.0807609,8.84768212 C43.0807609,8.1883738 42.9106976,7.67328918 42.5705712,7.30242826 C42.2304448,6.93156733 41.7779036,6.74613687 41.2129479,6.74613687 C40.6134029,6.74613687 40.1378024,6.94039735 39.7861463,7.32891832 C39.4344901,7.71743929 39.258662,8.27078734 39.258662,8.98896247 L39.258662,14.2163355 L36.3012915,14.2163355 L36.3012915,4.36203091 L39.258662,4.36203091 L39.258662,6.16335541 C39.5353751,5.57468727 39.9475622,5.10963944 40.4952234,4.76821192 C41.0428846,4.4267844 41.685666,4.25607064 42.4235674,4.25607064 Z" id="Path"></path>
                    <path d="M10.9993432,25.607064 C10.9993432,26.8314937 10.7428072,27.9175865 10.2297351,28.8653422 C9.71666298,29.8130979 8.97876155,30.5518764 8.01603077,31.0816777 C7.0533,31.611479 5.92050601,31.8763797 4.6176488,31.8763797 L0,31.8763797 L0,19.3907285 L4.6176488,19.3907285 C5.93203572,19.3907285 7.06771214,19.6497425 8.02467806,20.1677704 C8.98164397,20.6857984 9.71666298,21.4157469 10.2297351,22.3576159 C10.7428072,23.2994849 10.9993432,24.3826343 10.9993432,25.607064 Z M4.35823032,29.1743929 C5.51120131,29.1743929 6.40763625,28.8623988 7.04753515,28.2384106 C7.68743404,27.6144224 8.00738349,26.7373068 8.00738349,25.607064 C8.00738349,24.4768212 7.68743404,23.5997057 7.04753515,22.9757174 C6.40763625,22.3517292 5.51120131,22.0397351 4.35823032,22.0397351 L2.95737058,22.0397351 L2.95737058,29.1743929 L4.35823032,29.1743929 Z" id="Shape"></path>
                    <path d="M21.8430353,26.6843267 C21.8430353,26.9315673 21.814211,27.2023547 21.7565625,27.4966887 L15.0635659,27.4966887 C15.098155,28.2384106 15.2826304,28.7711553 15.616992,29.0949227 C15.9513536,29.4186902 16.3779528,29.580574 16.8967898,29.580574 C17.3349188,29.580574 17.6981046,29.468727 17.9863474,29.2450331 C18.2745901,29.0213392 18.4648303,28.7328918 18.557068,28.3796909 L21.6873842,28.3796909 C21.5605574,29.0743194 21.2838444,29.6953642 20.8572451,30.2428256 C20.4306459,30.790287 19.8887495,31.2200147 19.231556,31.5320088 C18.5743626,31.8440029 17.842226,32 17.0351463,32 C16.0897101,32 15.2509237,31.7969095 14.5187871,31.3907285 C13.7866506,30.9845475 13.2130475,30.3988227 12.7979779,29.6335541 C12.3829084,28.8682855 12.1753736,27.9735099 12.1753736,26.9492274 C12.1753736,25.9131714 12.380026,25.0154525 12.7893307,24.2560706 C13.1986354,23.4966887 13.7722384,22.9139073 14.5101398,22.5077263 C15.2480413,22.1015453 16.0897101,21.8984547 17.0351463,21.8984547 C17.9921122,21.8984547 18.833781,22.0986019 19.5601528,22.4988962 C20.2865245,22.8991906 20.8485978,23.4613687 21.2463728,24.1854305 C21.6441478,24.9094923 21.8430353,25.7424577 21.8430353,26.6843267 Z M18.8510756,26.2251656 C18.8626053,25.5776306 18.6925421,25.0919794 18.3408859,24.7682119 C17.9892298,24.4444444 17.5539832,24.2825607 17.0351463,24.2825607 C16.4932499,24.2825607 16.0435913,24.4473878 15.6861703,24.7770419 C15.3287492,25.1066961 15.1269793,25.589404 15.0808605,26.2251656 L18.8510756,26.2251656 Z" id="Shape"></path>
                    <polygon id="Path" points="27.8442493 28.9271523 29.9368916 22.0220751 33.0845024 22.0220751 29.6601786 31.8763797 25.9937309 31.8763797 22.569407 22.0220751 25.7170178 22.0220751"></polygon>
                    <path d="M34.0357035,19.2494481 C34.0357035,18.790287 34.1971194,18.410596 34.5199513,18.1103753 C34.8427832,17.8101545 35.2693824,17.6600442 35.7997491,17.6600442 C36.3301157,17.6600442 36.756715,17.8101545 37.0795469,18.1103753 C37.4023788,18.410596 37.5637947,18.790287 37.5637947,19.2494481 C37.5637947,19.6968359 37.4023788,20.0706402 37.0795469,20.3708609 C36.756715,20.6710817 36.3301157,20.8211921 35.7997491,20.8211921 C35.2693824,20.8211921 34.8427832,20.6710817 34.5199513,20.3708609 C34.1971194,20.0706402 34.0357035,19.6968359 34.0357035,19.2494481 Z M37.2697871,22.0220751 L37.2697871,31.8763797 L34.3124165,31.8763797 L34.3124165,22.0220751 L37.2697871,22.0220751 Z" id="Shape"></path>
                    <path d="M43.6687761,21.8984547 C44.9139847,21.8984547 45.9574235,22.2487123 46.7990923,22.9492274 C47.6407611,23.6497425 48.1711278,24.6122149 48.3901922,25.8366446 L45.259876,25.8366446 C45.1676383,25.4128035 44.9773981,25.0831494 44.6891554,24.8476821 C44.4009126,24.6122149 44.0377268,24.4944812 43.5995978,24.4944812 C43.0807609,24.4944812 42.6541616,24.7034584 42.3198,25.1214128 C41.9854384,25.5393672 41.8182576,26.1486387 41.8182576,26.9492274 C41.8182576,27.749816 41.9854384,28.3590876 42.3198,28.7770419 C42.6541616,29.1949963 43.0807609,29.4039735 43.5995978,29.4039735 C44.0377268,29.4039735 44.4009126,29.2862399 44.6891554,29.0507726 C44.9773981,28.8153054 45.1676383,28.4856512 45.259876,28.0618102 L48.3901922,28.0618102 C48.1711278,29.2862399 47.6407611,30.2487123 46.7990923,30.9492274 C45.9574235,31.6497425 44.9139847,32 43.6687761,32 C42.7233399,32 41.8845535,31.7969095 41.1524169,31.3907285 C40.4202803,30.9845475 39.8466772,30.3988227 39.4316077,29.6335541 C39.0165381,28.8682855 38.8090034,27.9735099 38.8090034,26.9492274 C38.8090034,25.9131714 39.0136557,25.0154525 39.4229604,24.2560706 C39.8322651,23.4966887 40.4058682,22.9139073 41.1437696,22.5077263 C41.881671,22.1015453 42.7233399,21.8984547 43.6687761,21.8984547 Z" id="Path"></path>
                    <path d="M59.0955278,26.6843267 C59.0955278,26.9315673 59.0667036,27.2023547 59.009055,27.4966887 L52.3160584,27.4966887 C52.3506476,28.2384106 52.5351229,28.7711553 52.8694845,29.0949227 C53.2038461,29.4186902 53.6304454,29.580574 54.1492823,29.580574 C54.5874113,29.580574 54.9505971,29.468727 55.2388399,29.2450331 C55.5270826,29.0213392 55.7173229,28.7328918 55.8095605,28.3796909 L58.9398768,28.3796909 C58.8130499,29.0743194 58.5363369,29.6953642 58.1097376,30.2428256 C57.6831384,30.790287 57.141242,31.2200147 56.4840486,31.5320088 C55.8268551,31.8440029 55.0947185,32 54.2876388,32 C53.3422026,32 52.5034162,31.7969095 51.7712797,31.3907285 C51.0391431,30.9845475 50.46554,30.3988227 50.0504705,29.6335541 C49.6354009,28.8682855 49.4278661,27.9735099 49.4278661,26.9492274 C49.4278661,25.9131714 49.6325185,25.0154525 50.0418232,24.2560706 C50.4511279,23.4966887 51.0247309,22.9139073 51.7626324,22.5077263 C52.5005338,22.1015453 53.3422026,21.8984547 54.2876388,21.8984547 C55.2446048,21.8984547 56.0862736,22.0986019 56.8126453,22.4988962 C57.539017,22.8991906 58.1010904,23.4613687 58.4988654,24.1854305 C58.8966403,24.9094923 59.0955278,25.7424577 59.0955278,26.6843267 Z M56.1035681,26.2251656 C56.1150978,25.5776306 55.9450346,25.0919794 55.5933785,24.7682119 C55.2417223,24.4444444 54.8064758,24.2825607 54.2876388,24.2825607 C53.7457425,24.2825607 53.2960838,24.4473878 52.9386628,24.7770419 C52.5812418,25.1066961 52.3794719,25.589404 52.333353,26.2251656 L56.1035681,26.2251656 Z" id="Shape"></path>
                    <path d="M64.1455408,21.8984547 C65.36769,21.8984547 66.3448329,22.2104489 67.0769695,22.8344371 C67.8091061,23.4584253 68.267412,24.2825607 68.4518874,25.3068433 L65.684757,25.3068433 C65.6040491,24.9065489 65.4224561,24.5916115 65.1399782,24.3620309 C64.8575003,24.1324503 64.5029618,24.01766 64.0763625,24.01766 C63.7420009,24.01766 63.4883473,24.0912436 63.3154016,24.2384106 C63.142456,24.3855776 63.0559832,24.5945548 63.0559832,24.8653422 C63.0559832,25.1714496 63.2145167,25.4010302 63.5315837,25.5540839 C63.8486507,25.7071376 64.3473107,25.8601913 65.0275636,26.013245 C65.765465,26.1898455 66.3707748,26.3693893 66.8434929,26.5518764 C67.316211,26.7343635 67.7255157,27.0316409 68.071407,27.4437086 C68.4172983,27.8557763 68.5902439,28.4091244 68.5902439,29.1037528 C68.5902439,29.6688742 68.4403577,30.1692421 68.1405852,30.6048565 C67.8408128,31.0404709 67.4084486,31.3818985 66.8434929,31.6291391 C66.2785371,31.8763797 65.6098139,32 64.8373233,32 C63.5344661,32 62.4910274,31.7056659 61.7070071,31.1169978 C60.9229869,30.5283297 60.4445039,29.6865342 60.2715582,28.5916115 L63.1251614,28.5916115 C63.1712803,29.0154525 63.3471083,29.33922 63.6526457,29.5629139 C63.958183,29.7866078 64.3530755,29.8984547 64.8373233,29.8984547 C65.1716849,29.8984547 65.4253385,29.8189845 65.5982842,29.6600442 C65.7712298,29.5011038 65.8577027,29.2921266 65.8577027,29.0331126 C65.8577027,28.6916851 65.6991692,28.4473878 65.3821021,28.3002208 C65.0650351,28.1530537 64.5490806,27.9970567 63.8342386,27.8322296 C63.1193966,27.6791759 62.5313814,27.5143488 62.070193,27.3377483 C61.6090046,27.1611479 61.2112296,26.8756439 60.876868,26.4812362 C60.5425064,26.0868286 60.3753256,25.5481972 60.3753256,24.8653422 C60.3753256,23.98234 60.7039224,23.2671082 61.3611158,22.7196468 C62.0183093,22.1721854 62.9464509,21.8984547 64.1455408,21.8984547 Z" id="Path"></path>
                </g>
            </g>
        </g>
    </g>
</svg>