<?xml version="1.0" encoding="UTF-8"?>
<svg width="34px" height="34px" viewBox="0 0 34 34" version="1.1" xmlns="http://www.w3.org/2000/svg" xmlns:xlink="http://www.w3.org/1999/xlink">
    <title>logo/risendevices/symbol/light/primary</title>
    <g id="Landing" stroke="none" stroke-width="1" fill="none" fill-rule="evenodd">
        <g id="Landing-Page---Start-State" transform="translate(-23.000000, -23.000000)">
            <g id="logo/risendevices/symbol/light/primary" transform="translate(24.000000, 24.000000)">
                <rect id="Rectangle" stroke="#0C8C87" stroke-width="0.533333333" stroke-linecap="round" x="0" y="0" width="32" height="32" rx="0.8"></rect>
                <path d="M11.1362683,14 L9.5932914,11.5489362 L8.76310273,11.5489362 L8.76310273,14 L8,14 L8,8 L9.94549266,8 C10.6163522,8 11.1194969,8.16312057 11.4549266,8.4893617 C11.7903564,8.81560284 11.9580713,9.24822695 11.9580713,9.78723404 C11.9580713,10.2751773 11.8238994,10.6680851 11.5555556,10.9659574 C11.2872117,11.2638298 10.8986723,11.4496454 10.3899371,11.5234043 L12,14 L11.1362683,14 Z M8.76310273,10.987234 L9.87840671,10.987234 C10.7449336,10.987234 11.1781971,10.6014184 11.1781971,9.82978723 C11.1781971,9.05815603 10.7449336,8.67234043 9.87840671,8.67234043 L8.76310273,8.67234043 L8.76310273,10.987234 Z" id="Shape" fill="#0C8C87"></path>
                <path d="M24,20.9957447 C24,21.6028369 23.879349,22.1319149 23.6380471,22.5829787 C23.3967452,23.0340426 23.041807,23.3829787 22.5732323,23.6297872 C22.1046577,23.8765957 21.5420875,24 20.8855219,24 L19,24 L19,18 L20.8855219,18 C21.5420875,18 22.1046577,18.1205674 22.5732323,18.3617021 C23.041807,18.6028369 23.3967452,18.9489362 23.6380471,19.4 C23.879349,19.8510638 24,20.3829787 24,20.9957447 Z M20.8265993,23.3021277 C21.6010101,23.3021277 22.1930415,23.1007092 22.6026936,22.6978723 C23.0123457,22.2950355 23.2171717,21.7276596 23.2171717,20.9957447 C23.2171717,20.2638298 23.0137486,19.6950355 22.6069024,19.2893617 C22.2000561,18.8836879 21.6066218,18.6808511 20.8265993,18.6808511 L19.7659933,18.6808511 L19.7659933,23.3021277 L20.8265993,23.3021277 Z" id="Shape" fill="#0C8C87"></path>
                <line x1="10.4" y1="21.8" x2="21.7" y2="10.5" id="Path-4" stroke="#0C8C87" stroke-width="0.533333333" stroke-linecap="round"></line>
            </g>
        </g>
    </g>
</svg>