<?xml version="1.0" encoding="UTF-8"?>
<svg width="24px" height="24px" viewBox="0 0 24 24" version="1.1" xmlns="http://www.w3.org/2000/svg" xmlns:xlink="http://www.w3.org/1999/xlink">
    <title>icon/settings@2x</title>
    <g id="Landing---Settings" stroke="none" stroke-width="1" fill="none" fill-rule="evenodd">
        <g id="Landing-Page---Start-State" transform="translate(-24.000000, -1064.000000)">
            <g id="icon/settings" transform="translate(24.000000, 1064.000000)">
                <circle id="Oval" fill="#0C8C87" cx="12" cy="12" r="12"></circle>
                <g id="Icons/Universal-Icon-Set/Medicine/Solid/Medical-Chart" transform="translate(6.000000, 6.000000)">
                    <rect id="bounding-box" x="0" y="0" width="12" height="12"></rect>
                    <g id="Settings" transform="translate(1.000000, 1.000000)" fill="#FFFFFF">
                        <path d="M4.75005,0 C4.3358,0 4.00005,0.335785 4.00005,0.75 L4.00005,0.932205 C4.00005,1.046275 3.922545,1.145085 3.813595,1.17888 C3.57809,1.25192 3.351895,1.34613 3.137245,1.459295 C3.03632,1.5125 2.911635,1.497425 2.830965,1.41675 L2.701905,1.28769 C2.40901,0.994795 1.934135,0.994795 1.641245,1.28769 L1.28769,1.641245 C0.994795,1.934135 0.994795,2.40901 1.28769,2.701905 L1.41675,2.830965 C1.497425,2.911635 1.5125,3.03632 1.459295,3.137245 C1.346135,3.35189 1.251925,3.57807 1.17889,3.813565 C1.145095,3.922515 1.046285,4 0.932215,4 L0.75,4 C0.335785,4 0,4.3358 0,4.75 L0,5.25 C0,5.6642 0.335785,6 0.75,6 L0.932215,6 C1.046285,6 1.145095,6.0775 1.178885,6.18645 C1.251925,6.42195 1.346135,6.6481 1.459295,6.86275 C1.5125,6.9637 1.497425,7.08835 1.41675,7.16905 L1.28769,7.2981 C0.994795,7.591 0.994795,8.06585 1.28769,8.35875 L1.641245,8.7123 C1.934135,9.0052 2.40901,9.0052 2.701905,8.7123 L2.83096,8.58325 C2.911635,8.5026 3.03632,8.4875 3.137245,8.5407 C3.351895,8.65385 3.57809,8.7481 3.813595,8.8211 C3.922545,8.8549 4.00005,8.9537 4.00005,9.0678 L4.00005,9.25 C4.00005,9.6642 4.3358,10 4.75005,10 L5.25005,10 C5.66425,10 6.00005,9.6642 6.00005,9.25 L6.00005,9.06775 C6.00005,8.9537 6.0775,8.8549 6.18645,8.8211 C6.42195,8.74805 6.6481,8.65385 6.86275,8.5407 C6.9637,8.4875 7.08835,8.5026 7.16905,8.58325 L7.2981,8.7123 C7.591,9.0052 8.06585,9.0052 8.35875,8.7123 L8.7123,8.35875 C9.0052,8.06585 9.0052,7.591 8.7123,7.2981 L8.58325,7.16905 C8.5026,7.08835 8.4875,6.9637 8.5407,6.86275 C8.65385,6.6481 8.74805,6.42195 8.8211,6.18645 C8.8549,6.0775 8.9537,6 9.0678,6 L9.25,6 C9.6642,6 10,5.6642 10,5.25 L10,4.75 C10,4.3358 9.6642,4 9.25,4 L9.0678,4 C8.9537,4 8.8549,3.922515 8.8211,3.813565 C8.74805,3.57807 8.65385,3.35189 8.5407,3.137245 C8.4875,3.03632 8.5026,2.91164 8.58325,2.830965 L8.7123,2.701905 C9.0052,2.40901 9.0052,1.934135 8.7123,1.641245 L8.35875,1.28769 C8.06585,0.994795 7.591,0.994795 7.2981,1.28769 L7.16905,1.41675 C7.08835,1.497425 6.9637,1.5125 6.86275,1.459295 C6.6481,1.34614 6.42195,1.251935 6.18645,1.178895 C6.0775,1.145105 6.00005,1.046295 6.00005,0.932225 L6.00005,0.75 C6.00005,0.335785 5.66425,0 5.25005,0 L4.75005,0 Z M5,6.5 C5.82845,6.5 6.5,5.82845 6.5,5 C6.5,4.17155 5.82845,3.5 5,3.5 C4.17155,3.5 3.5,4.17155 3.5,5 C3.5,5.82845 4.17155,6.5 5,6.5 Z" id="Shape"></path>
                    </g>
                </g>
            </g>
        </g>
    </g>
</svg>