<?xml version="1.0" encoding="UTF-8"?>
<svg width="300px" height="276px" viewBox="0 0 300 276" version="1.1" xmlns="http://www.w3.org/2000/svg" xmlns:xlink="http://www.w3.org/1999/xlink">
    <title>illustrations/rise-devices/success</title>
    <defs>
        <polygon id="path-1" points="0 0 62.3068088 0 62.3068088 72.7009103 0 72.7009103"></polygon>
    </defs>
    <g id="Landing---Medical-Profile" stroke="none" stroke-width="1" fill="none" fill-rule="evenodd">
        <g id="Landing-Page---Connect-Device---Device-Connected---Alert" transform="translate(-570.000000, -86.000000)">
            <g id="connect-device-success" transform="translate(509.000000, 44.000000)">
                <g id="illustrations/rise-devices/success" transform="translate(61.000000, 30.000000)">
                    <rect id="bounding-box" x="0" y="0" width="300" height="300"></rect>
                    <g id="Shape" transform="translate(30.000000, 12.750000)" fill="#0C8C87">
                        <path d="M191.05611,134.770146 C186.069409,137.675806 187.830719,141.764543 185.738045,141.764543 C185.392527,141.764543 185.023697,141.591369 184.692748,141.237528 C182.955167,139.376741 184.699825,138.075854 181.183034,135.508217 C180.616051,135.094015 179.233979,135.42163 179.233979,134.010429 C179.233979,133.222404 180.007856,132.871893 180.747598,132.555101 C186.618492,130.04283 184.821381,125.194375 186.70383,125.194375 C186.948607,125.194375 187.22627,125.282627 187.523499,125.46371 C187.995152,125.751362 188.569212,125.929116 188.569212,126.606409 C188.569212,126.682173 188.561302,126.761683 188.5459,126.844939 C188.787346,131.95149 191.881606,132.184193 191.881606,133.630362 C191.881606,134.049559 191.606857,134.449192 191.05611,134.770146 M104.400585,45.8090948 C104.052153,46.5629844 103.722037,46.8160848 103.03558,46.8160848 C102.990205,46.8160848 102.943997,46.814836 102.896124,46.8127546 C102.790387,46.7794519 102.690062,46.7644657 102.5939,46.7644657 C102.187604,46.7644657 101.85624,47.0275569 101.526541,47.2456895 C99.2427907,48.7547175 98.986358,50.9710113 97.8332434,50.9710113 C97.3062242,50.9710113 96.7608884,50.5089365 96.7608884,49.935714 C96.7608884,49.5077745 97.0639452,49.3387634 97.0639452,48.5994437 C97.0639452,48.3509224 97.1617726,47.5970328 95.0624379,44.2509454 C94.3460082,43.1086632 91.7854277,41.631689 91.7854277,40.6713228 C91.7854277,40.2775185 92.0247926,39.9032796 92.466473,39.7467569 C93.0463606,39.5406966 93.6699583,39.3641923 94.2781535,39.3487898 C99.7406698,39.2118325 99.129977,34.1456613 100.823848,34.1456613 C102.430299,34.1456613 101.62978,35.9660694 103.599233,43.3484425 C103.793639,44.0773551 104.570846,44.4053866 104.570846,45.1534482 C104.570846,45.3520154 104.513815,45.5639038 104.400585,45.8090948 M35.6637128,134.174028 C35.5504827,134.356777 35.4076963,134.764735 35.1246213,135.015337 C33.4886139,136.467335 30.4755295,140.672631 30.4755295,142.805252 C30.4755295,143.715664 30.766514,144.340506 30.766514,144.695596 C30.766514,145.196801 30.3468968,145.797499 29.6504489,145.797499 C29.5767661,145.797499 28.0394187,145.660541 27.961573,143.997072 C27.8196192,140.969025 23.6921349,138.881779 21.0303966,138.881779 C20.357677,138.881779 20.1116514,138.967534 19.8373184,138.967534 C18.8915146,138.967534 18.8099224,138.074605 18.8099224,137.915169 C18.8099224,137.620856 18.9377225,137.349439 19.1758386,137.109244 C22.0240733,134.238968 23.5947237,135.177688 24.1850185,129.146988 C24.3024114,127.948091 25.3951645,127.683335 25.6595066,127.683335 C26.5707586,127.683335 26.8217796,128.89472 28.3845205,130.447041 C32.1298535,134.166951 35.6653779,131.34996 35.6653779,134.096183 C35.6653779,134.121993 35.6649616,134.147802 35.6637128,134.174028 M233.669315,68.5985398 C231.934232,77.8596008 226.404277,84.0568146 223.408677,86.5532672 C224.146337,88.3720102 225.699503,93.0797613 231.412624,99.191637 C232.495386,100.349738 233.785459,100.525826 233.785459,101.729302 C233.785459,104.44472 230.273663,104.174135 229.545161,104.174135 C217.497819,104.174135 210.873863,93.7220869 209.565473,93.7220869 C208.982671,93.7220869 206.686433,94.4497506 202.813716,94.4497506 C184.91005,94.4497506 171.877773,79.6000825 171.877773,63.0569727 C171.877773,51.4543166 178.316899,40.9543956 187.967677,35.459036 C183.842274,29.8754242 174.088257,19.1502939 171.732906,17.7861326 C157.72735,30.2005417 157.577487,31.4210852 156.137967,31.4210852 C155.194244,31.4210852 154.393725,30.6397209 154.393725,29.6656173 C154.393725,27.9626011 162.655354,21.7936947 169.012054,15.3995788 C167.102963,12.8627466 147.727723,0 119.266606,0 C113.396128,0 110.990406,0.427523244 110.897991,0.438346618 C110.888,0.598199515 110.873013,0.690614472 110.873013,0.766378085 C110.873013,0.995750341 113.085162,16.7420933 113.085162,17.5488509 C113.085162,18.8043622 111.996155,19.285586 111.335092,19.285586 C109.274472,19.285586 109.701582,18.4954798 107.391606,1.42618757 C107.368294,1.25342988 107.287535,1.0881653 107.223843,0.889181743 C81.8074476,2.97101596 63.3076589,21.5851366 55.4814657,41.3090692 C68.9204548,45.0398028 73.1357757,44.0561246 73.1357757,46.7436515 C73.1357757,47.8401425 72.2091211,48.5128567 71.3569819,48.5128567 C70.7350493,48.5128567 57.1407852,45.2762518 53.7105813,44.6135284 C44.3158192,60.7649153 39.1114007,67.4824835 36.8659493,70.4222782 C53.6368985,70.4485041 63.9295915,77.4936875 63.9295915,85.7527539 C63.9295915,95.3851398 49.3624649,105.758094 27.0752983,105.820537 C20.6569873,105.771415 16.2593327,104.727792 13.0526749,103.518905 C6.97447028,112.678809 0,129.049161 0,143.565386 C0,147.36439 0.195654831,147.653707 0.231039215,147.835207 C3.61503521,147.116285 16.9878347,143.742307 17.8174945,143.742307 C18.6804572,143.742307 19.5342616,144.414188 19.5342616,145.4882 C19.5342616,147.453891 19.0992418,146.945192 0.415038013,151.466865 C0.415038013,151.640871 0.405879702,151.791982 0.405879702,151.932686 C0.405879702,163.796352 8.40524827,177.448789 11.3866949,182.107835 C19.9651185,175.037258 24.6729067,173.696825 50.8348716,158.459596 C70.8828312,146.783258 69.0957116,139.831738 71.762029,139.831738 C72.3340072,139.831738 72.8768453,140.228873 73.8422145,140.7971 C73.7352288,140.532344 73.7081702,140.39164 73.6319897,140.287153 C67.5142378,131.911111 62.5317002,110.895866 62.5317002,109.493407 C62.5317002,107.646773 63.1444745,105.402588 65.0006976,105.402588 C65.4069936,105.402588 65.851588,105.514568 66.3244899,105.746022 C74.9133207,109.948821 76.3857273,118.700767 79.3692554,122.429836 C78.410963,113.098839 77.8872741,100.98457 77.8872741,95.5474904 C77.8872741,89.559251 80.0948434,85.542947 82.5904832,85.542947 C85.8221182,85.542947 86.8399396,88.4411133 88.105868,90.7340033 C88.4214134,87.7267707 89.1299337,81.0495819 93.0613469,81.0495819 C98.873128,81.0495819 100.254784,87.4320419 101.335881,93.0668565 C102.583493,91.3226283 103.657097,89.6092051 105.873408,89.1013391 C105.128255,84.164632 104.900546,81.1357526 104.900546,79.169229 C104.900546,72.8163251 106.812551,70.3327773 109.937617,70.3327773 C114.773205,70.3327773 116.148617,81.2069371 117.660571,84.6025624 C117.660571,84.4447909 117.662236,84.2866031 117.662236,84.1288316 C117.662236,82.8641621 117.527359,78.8253787 117.527359,75.7452965 C117.527359,65.4718338 120.915934,62.5395322 123.02526,62.5395322 C127.731799,62.5395322 127.529068,73.2188714 130.622912,88.8836228 C130.692431,88.8752971 130.761951,88.8665551 130.831471,88.8578132 C130.595853,85.3880895 130.381881,84.792804 130.381881,82.0295135 C130.381881,68.9253224 136.023817,65.3586047 137.126145,65.3586047 C139.972298,65.3586047 141.047984,72.9457893 146.669105,104.236994 C151.04095,101.172731 158.830926,92.3633373 163.409666,92.3633373 C165.489435,92.3633373 166.933534,93.9980829 166.933534,96.0428679 C166.933534,99.1321084 162.998791,103.381531 159.958648,107.406161 C151.924311,118.042207 158.231473,120.652721 152.350172,135.350029 C152.780613,135.668486 153.245189,135.899107 153.559486,136.260858 C163.989137,148.277716 185.872505,161.591298 202.726712,173.145665 C208.722492,167.919641 214.824841,162.818918 220.43056,157.059635 C206.750541,145.959017 205.637806,146.187973 205.637806,144.551978 C205.637806,143.947534 206.119034,142.822736 207.36956,142.822736 C208.78327,142.822736 214.40231,148.136596 222.92953,154.460776 C238.770079,137.735334 243.695169,121.873265 244.291291,116.429108 C242.549131,116.554409 225.487197,119.547904 224.695003,119.547904 C223.594341,119.547904 222.925784,118.672044 222.925784,117.781197 C222.925784,115.18442 226.258577,116.157691 244.993151,112.626773 C245.074743,111.208079 244.998979,111.882042 245.25,110.052476 L245.25,103.114693 C244.672194,100.038774 245.428587,82.1681359 233.669315,68.5985398" id="Fill-1"></path>
                        <path d="M119.218191,192.607755 C115.069476,195.751945 116.135171,198.777494 114.507489,198.777494 C113.938009,198.777494 113.654101,198.440305 113.239479,197.371705 C111.815362,193.702165 109.261026,193.605171 109.261026,192.481622 C109.261026,191.573707 110.686392,191.098727 112.09469,189.325359 C112.208337,188.991084 112.392336,188.760879 112.609637,188.601026 C113.398917,187.357171 113.589577,186.299394 113.811874,185.568816 C114.089537,184.653409 114.468358,184.503963 114.992047,184.503547 C114.992463,184.503547 114.992463,184.503547 114.99288,184.503547 C115.832947,184.503547 116.002792,185.488057 116.011534,185.520944 C117.197119,189.881514 118.485527,189.775778 119.743546,191.403031 C119.744378,191.415103 119.746876,191.462976 119.746876,191.52292 C119.746876,192.143183 119.467964,192.418346 119.218191,192.607755 M144.393973,190.917228 C144.109649,190.434339 142.458239,187.645239 140.322271,183.84457 C139.922635,183.129811 138.453143,180.525957 136.240162,176.422233 C122.333682,150.762513 122.668377,150.563946 120.930379,150.265887 C118.117529,149.782998 114.636538,146.025206 114.597407,146.001478 C113.717793,149.163984 111.770403,154.834183 106.920661,160.434862 C107.653326,160.886113 109.038729,161.510123 109.038729,162.406381 C109.038729,162.871786 108.689464,163.286821 108.212815,163.616518 C99.9499372,168.904568 84.5352506,203.255041 56.8967162,232.067277 C56.8259474,232.187583 56.7572601,232.302893 56.6856587,232.425281 C56.8059656,232.655069 64.6646292,246.711301 70.7653134,252.53261 C81.9854935,238.138357 81.4651349,238.131696 82.7627011,238.131696 L82.7664477,238.131696 C83.3708962,238.131696 84.5231783,238.611671 84.5231783,239.880087 C84.5231783,241.21386 77.4704461,249.276024 73.3604457,255.034059 C88.3446918,268.209018 105.033633,267.385193 113.052567,268.5 L120.365894,268.5 C121.083989,268.294356 134.818126,267.58709 144.766966,262.791919 C133.146318,245.640619 131.93409,245.191449 131.93409,243.842274 C131.93409,242.561786 133.112598,242.083476 133.692902,242.083476 C135.660274,242.083476 140.591608,251.400319 148.081442,261.251254 C161.015475,257.540086 171.702808,238.173324 173.017442,230.661071 C159.738723,216.231849 149.38775,199.377359 144.393973,190.917228" id="Fill-4"></path>
                    </g>
                    <g id="Line" transform="translate(0.000000, 43.500000)">
                        <path d="M264.15154,182.582135 C264.15154,190.553526 258.452556,190.869686 258.174994,190.869686 C251.658718,190.869686 251.690759,179.870231 251.690759,178.254903 C251.690759,171.646328 253.808894,163.803064 254.186745,163.15452 C254.364435,163.219832 264.15154,173.369815 264.15154,182.582135 M155.407689,116.839164 C155.210024,116.839164 148.625502,117.736892 145.169908,110.753501 C145.134537,110.681533 145.122885,110.594173 145.122885,110.503069 C145.122885,110.149053 145.541102,107.644733 145.541102,102.928125 C145.541102,98.8999978 143.941891,63.9235529 139.036062,59.4107853 C137.701098,58.1827534 137.360282,47.1496023 137.360282,47.1104983 C137.360282,46.1183384 137.531314,41.3247708 139.864173,41.3247708 C143.902358,41.3247708 147.422869,69.5611844 150.534319,69.5611844 C151.724468,69.5611844 151.883016,67.7574085 151.883016,67.4179526 C151.883016,64.9843528 149.956722,56.8357455 149.956722,44.5367065 C149.956722,36.2487393 152.322872,33.5792675 153.042371,33.5792675 C155.949914,33.5792675 157.450084,66.3450887 161.84032,66.3450887 C163.519013,66.3450887 163.549807,65.9303367 163.549807,62.927233 C163.549807,57.9106894 162.839879,53.9262417 162.839879,50.681858 C162.839879,40.8630109 165.881002,37.8374431 166.960875,36.7604192 C169.126447,41.2082908 169.646617,54.8210577 173.888292,71.0022083 C174.052666,71.6295362 174.10718,72.2560321 174.10718,72.8841921 C174.10718,79.0168636 150.63544,86.4865589 150.63544,100.984158 C150.63544,103.963133 152.306642,106.864733 155.015272,106.864733 C157.889108,106.864733 159.523691,103.019645 159.523691,100.245758 C159.523691,98.3329899 158.440072,94.9059822 157.993142,94.4047022 C157.756361,94.1392942 157.471724,94.0086703 157.156709,94.0086703 C156.504207,94.0086703 155.947417,94.4854062 155.947417,95.1422702 C155.947417,96.0607981 157.077227,98.1828139 157.077227,100.024862 C157.077227,102.106942 155.986118,104.419485 154.971578,104.419485 C154.294941,104.419485 153.079823,103.384893 153.079823,100.857694 C153.079823,90.6777585 166.311703,85.692415 184.1964,69.5366404 C190.773014,63.5953289 192.781287,63.3457289 193.339742,63.3457289 C194.035938,63.3457289 194.488694,63.7912649 194.488694,64.5379848 C194.488694,69.0827844 183.365792,75.3281919 182.895142,88.2628788 C181.851057,116.973532 157.740131,116.839164 155.407689,116.839164 M134.768587,127.648923 C110.194918,113.145917 102.160995,112.781085 95.1008298,78.8329916 C95.0379932,78.5301436 95.000541,78.2235516 95.000541,77.9107197 C95.000541,77.4398077 95.0858489,76.9555837 95.2989106,76.4534718 C105.055221,82.0965113 105.911213,93.8984303 109.504132,93.8984303 C109.580701,93.8984303 111.911896,93.6912623 111.911896,91.5372145 C111.911896,91.4669105 110.391334,77.5633597 110.391334,64.5159368 C110.391334,57.5778894 112.508635,56.5445455 112.789527,56.5445455 C118.131466,56.5445455 118.263381,80.3717754 118.2742,80.6255354 C118.312485,81.5415673 118.745683,82.0707193 119.39319,82.0707193 C120.052766,82.0707193 120.474312,81.5798393 120.474312,80.6105594 C120.474312,79.7415355 120.349471,66.8135046 120.349471,65.5538567 C120.349471,52.4798099 122.713124,52.0459219 123.230797,52.0459219 C127.7775,52.0459219 129.183624,61.2316171 129.183624,66.6912006 C129.183624,67.7865285 129.164482,68.0065925 129.164482,69.2117444 C129.164482,69.8577924 129.169476,70.5042563 129.169476,71.1507202 C129.169476,73.691648 129.04297,75.5694719 129.04297,78.1316156 C129.04297,83.2600632 128.846138,84.7322871 130.201909,84.7322871 C133.176866,84.7322871 129.375463,66.1886727 135.104409,60.7565451 C135.510974,60.3717452 135.78271,60.1695692 136.049454,60.1695692 C140.966102,60.1695692 143.079657,96.0695341 143.079657,103.007997 C143.079657,110.155709 142.499979,119.201628 134.768587,127.648923 M29.5415013,187.442262 C29.5415013,194.976438 27.3160054,201.330005 23.6365301,201.330005 C21.3253102,201.330005 18.1888925,198.515765 18.1888925,191.542774 C18.1888925,179.568631 26.0813296,169.387864 26.3443276,169.078776 C26.4196483,169.092504 26.4953851,169.105816 26.5707057,169.11996 C27.5665194,173.329463 29.5415013,180.124407 29.5415013,187.442262 M300,90.8391665 C300,90.1286386 299.323779,89.6198706 298.550182,89.6198706 C298.103252,89.6198706 297.674632,89.7937586 297.474886,90.1498546 C297.453247,90.1889586 266.912603,116.951484 253.314524,157.451577 C253.251271,157.640857 253.135585,157.812665 252.935424,158.207033 C242.620659,144.715738 199.57679,123.207292 183.559295,104.758109 C183.245112,104.396605 182.780288,104.166141 182.350004,103.847901 C188.229591,89.1606067 181.924297,86.5522869 189.956139,75.9230718 C192.995181,71.9007682 196.928083,67.6546565 196.928083,64.5679368 C196.928083,62.524129 195.484923,60.8909131 193.405907,60.8909131 C188.828827,60.8909131 181.041672,69.6938884 176.671411,72.7564801 C171.052325,41.4865948 169.977029,33.9045795 167.131907,33.9045795 C166.029978,33.9045795 160.390086,37.4684512 160.390086,50.563714 C160.390086,53.3251218 160.60398,53.9200017 160.839513,57.3877774 C160.770018,57.3960974 160.700523,57.4048334 160.631029,57.4135694 C157.538305,41.7590748 157.740964,31.0870117 153.035713,31.0870117 C150.927567,31.0870117 147.539803,34.0173155 147.539803,44.2841946 C147.539803,47.3617623 147.675048,51.3977939 147.675048,52.6616018 C147.675048,52.8192658 147.673383,52.9773458 147.673383,53.1354258 C146.161561,49.7416981 144.787063,38.874947 139.95281,38.874947 C136.829293,38.874947 134.91798,41.3568028 134.91798,47.7053783 C134.91798,49.6705621 135.145606,52.6973778 135.89049,57.6311374 C133.674981,58.1382414 132.601766,59.8509132 131.354606,61.5935371 C130.273901,55.9625616 128.892745,49.5844501 123.082653,49.5844501 C119.15308,49.5844501 118.4444,56.2570895 118.129385,59.2626893 C116.863499,56.9709455 115.846462,54.0747537 112.615998,54.0747537 C110.121262,54.0747537 107.914492,58.0883214 107.914492,64.0724809 C107.914492,69.5058564 108.437992,81.6118713 109.395521,90.9369265 C106.413489,87.2103988 104.941616,78.4639996 96.3558962,74.264064 C95.8831656,74.032768 95.4387323,73.920864 95.0325835,73.920864 C93.1770326,73.920864 92.5644803,76.1635198 92.5644803,78.0093116 C92.5644803,79.4108155 97.5452132,100.411326 103.660749,108.782077 C103.736902,108.886493 103.763951,109.026685 103.870482,109.291261 C102.905878,108.723837 102.363237,108.326557 101.791466,108.326557 C99.1261142,108.326557 100.912586,115.27334 80.8714722,126.942139 C44.1312327,148.333274 49.7203565,142.312506 27.440014,163.273496 C12.7579003,118.564316 7.67646251,115.809564 7.16960875,115.809564 C6.71643654,115.809564 6.05145107,116.376988 6.05145107,117.1287 C6.05145107,117.167804 25.4446414,155.608281 25.4446414,165.532376 C25.4446414,167.103192 15.7453414,177.079703 15.7453414,191.542358 C15.7453414,199.583637 19.645785,203.775669 23.6436044,203.775669 C30.1723636,203.775669 31.9925428,194.009654 31.9925428,187.418134 C31.9925428,177.710775 28.4100272,167.560792 28.4100272,166.596088 C28.4100272,157.290169 69.0311519,138.372154 95.2031993,119.716636 C102.116468,125.913371 103.750218,128.449723 104.932045,128.449723 C105.546678,128.449723 106.101804,127.953019 106.101804,127.285755 C106.101804,126.190427 103.612061,124.596732 96.9418159,117.92534 C99.1976896,116.010076 100.587168,113.570653 101.962498,111.020989 C113.276406,117.736892 124.485864,124.390812 135.797691,131.106299 C132.965053,133.633083 130.744135,136.569211 128.431666,139.464986 C123.394755,136.610395 121.252903,134.928923 120.459331,134.928923 C119.758142,134.928923 119.267101,135.515483 119.267101,136.122427 C119.267101,137.126651 119.702796,137.002267 126.889882,141.422266 C97.5830816,188.68111 74.5233161,229.86053 1.16809401,241.30261 C0.431949265,241.417841 0,241.914129 0,242.494865 C0,243.419633 0.851830583,243.787377 1.35077776,243.747025 C89.138848,236.66213 122.910789,142.68441 138.228758,132.095131 C138.773897,131.718235 139.054372,131.300571 139.054372,130.885819 C139.054372,130.044667 137.975748,129.555035 136.937072,128.915643 C140.607392,124.6791 143.107538,119.896764 144.611038,114.492092 C144.839912,114.631036 145.810342,116.139868 148.660874,117.719004 C149.393274,118.12502 150.144815,118.617148 150.942132,118.753596 C153.145573,119.13174 153.070668,121.78582 158.780888,131.074267 C166.025817,142.859546 203.731492,227.629107 255.363578,227.629107 C274.009388,227.629107 286.641615,214.014676 286.641615,212.896468 C286.641615,212.138932 285.913793,211.61602 285.294167,211.61602 C283.51893,211.61602 274.745533,225.184691 255.265786,225.184691 C218.685759,225.184691 189.608249,183.544343 159.626476,127.686363 C164.291362,127.352731 169.443543,125.536476 169.443543,123.804668 C169.443543,123.25014 169.018668,122.633628 168.380315,122.633628 C167.493529,122.633628 163.558546,125.338876 160.019725,125.338876 C158.405533,125.338876 158.004378,125.821436 154.840911,119.359292 C165.904721,119.106364 174.924055,115.02166 181.345035,105.671645 C182.331694,106.754909 183.268,107.782429 184.254243,108.865277 C179.717943,115.988444 177.930638,115.7559 177.930638,117.153244 C177.930638,117.717756 178.386307,118.28518 179.044219,118.28518 C179.155743,118.28518 181.203133,118.139996 185.767729,110.647005 C211.629339,132.981211 252.101903,155.078713 252.101903,161.156472 C252.101903,161.463064 249.242216,170.217784 249.242216,178.214967 C249.242216,193.517526 257.634849,193.31743 258.071376,193.31743 C262.387955,193.31743 266.61673,189.428662 266.61673,182.825079 C266.61673,171.069336 255.145107,161.406488 255.145107,159.930937 C255.145107,159.634745 260.035954,133.848571 299.545163,91.8529584 C299.848526,91.5305585 300,91.1748785 300,90.8391665" id="Fill-1" fill="#000000"></path>
                        <g id="Group-5" transform="translate(201.870698, 0.000000)">
                            <mask id="mask-2" fill="white">
                                <use xlink:href="#path-1"></use>
                            </mask>
                            <g id="Clip-4"></g>
                            <path d="M56.830874,69.5979588 C45.0837682,68.3353989 40.9423818,58.8464397 38.6049454,58.8464397 C38.2108645,58.8464397 34.662472,59.7167116 30.9617737,59.7167116 C16.6346242,59.7167116 3.21714814,48.2305366 3.21714814,31.6591781 C3.21714814,16.5292594 15.3358634,3.22391652 31.2447463,3.22391652 C46.2493654,3.22391652 59.0850832,15.3249395 59.0850832,31.3488421 C59.0850832,46.5286808 48.039999,53.2375122 48.039999,54.6806161 C48.039999,54.8124881 49.6254775,61.7497035 56.6032475,69.0475908 C56.7072815,69.1561668 56.7959185,69.2793028 56.8916298,69.3961988 C56.8712392,69.4635908 56.8508485,69.5305668 56.830874,69.5979588 M59.5132872,67.7143109 C53.8022355,61.6065995 52.2496317,56.9020559 51.5122386,55.084552 C55.0947542,52.0997523 62.3068088,43.826345 62.3068088,31.3455141 C62.3068088,15.4118835 49.8077451,-8.31999928e-05 31.2784533,-8.31999928e-05 C13.7982406,-8.31999928e-05 0,14.6248115 0,31.6042661 C0,48.1361046 13.0275565,62.9756553 30.9247376,62.9756553 C34.7960517,62.9756553 37.0914584,62.2484874 37.6744651,62.2484874 C38.9819647,62.2484874 45.6035222,72.6934145 57.6469168,72.6934145 C58.3747389,72.6934145 61.885263,72.9642305 61.885263,70.2502467 C61.885263,69.0475908 60.5956572,68.8716228 59.5132872,67.7143109" id="Fill-3" fill="#000000" mask="url(#mask-2)"></path>
                        </g>
                        <path d="M58.0999642,71.8863746 C41.9584613,71.8863746 38.159971,65.6983751 35.2436893,65.6983751 C34.5662197,65.6983751 35.8766323,65.7183431 30.5729778,65.9866631 L30.5076444,65.8352391 C33.3664994,63.2876553 33.5133954,62.9257354 33.5133954,62.0005514 C33.5133954,61.3653195 33.3685801,60.3669196 33.3685801,59.4567117 C33.3685801,49.2684565 50.2953318,41.4226972 66.8267542,41.4226972 C82.1572079,41.4226972 91.5211023,47.5482967 91.5211023,54.2284241 C91.5211023,63.5763593 75.1199304,71.8863746 58.0999642,71.8863746 M66.813854,38.9633054 C50.6910772,38.9633054 30.8963155,46.7341848 30.8963155,59.4929036 C30.8963155,60.6822475 31.0461245,61.2962635 31.0461245,61.6315595 C31.0461245,62.5696394 30.9641457,62.4144714 25.3866737,66.3115591 C25.2031576,66.439687 24.5240235,66.692615 24.5240235,67.429351 C24.5240235,67.6207109 24.6817391,68.6411589 25.7041855,68.6411589 C27.8077534,68.6411589 32.9378792,68.2630149 34.2944829,68.2630149 C37.8636821,68.2630149 41.5681256,74.2197184 57.120796,74.3386944 C79.3998901,74.2762944 93.9617404,63.9104073 93.9617404,54.2845841 C93.9617404,46.0157528 83.6349072,38.9633054 66.813854,38.9633054" id="Fill-6" fill="#000000"></path>
                        <path d="M58.7018218,108.2892 C57.3302373,106.79576 55.543765,105.975408 53.4601716,105.403408 C54.9520195,103.919537 55.9141262,102.285489 56.2936423,100.151825 C57.9020083,101.751345 59.5886079,102.982289 61.7625028,103.420337 C60.7167528,105.083921 59.7288457,106.655568 58.7018218,108.2892 M58.4296688,98.948337 C56.8674939,97.3970732 56.6165639,96.1865133 55.7052258,96.1865133 C55.4413956,96.1865133 54.3490383,96.4510892 54.2316879,97.6491691 C53.6411908,103.675761 52.0711093,102.737681 49.2243223,105.606 C48.9862925,105.845616 48.8585387,106.117264 48.8585387,106.411376 C48.8585387,106.570704 48.9401014,107.46344 49.8855626,107.46344 C50.1597963,107.46344 50.4053166,107.377744 51.0782086,107.377744 C53.7389828,107.377744 57.8649722,109.463568 58.0068746,112.489136 C58.084692,114.151472 59.6210665,114.288336 59.6951387,114.288336 C60.3913344,114.288336 60.8103834,113.688048 60.8103834,113.187184 C60.8103834,112.832336 60.5199204,112.20792 60.5199204,111.298128 C60.5199204,109.16696 63.5314973,104.964529 65.1673283,103.513937 C65.4498847,103.263089 65.5930355,102.855409 65.7062246,102.673201 C65.7070568,102.646993 65.707473,102.620785 65.707473,102.594993 C65.707473,99.850641 62.1736453,102.665713 58.4296688,98.948337" id="Fill-8" fill="#000000"></path>
                        <path d="M129.09428,14.7005651 C128.087647,13.1963093 127.105149,11.7286614 126.069387,10.1815575 C127.550415,9.74142956 129.046424,9.11077361 130.150017,7.63854974 C130.566153,9.55547757 130.94026,11.2785494 131.328931,13.0694293 C130.603605,13.5989972 129.833337,14.1614292 129.09428,14.7005651 M133.616847,11.9092054 C131.648107,4.53186201 132.448753,2.71269417 130.842884,2.71269417 C129.149626,2.71269417 129.759681,7.77541373 124.29956,7.91227771 C123.691169,7.92766971 123.068213,8.1040537 122.488119,8.30997368 C122.046599,8.46638967 121.807321,8.84037363 121.807321,9.2334936 C121.807321,10.1936215 124.366974,11.6695894 125.083144,12.8110933 C127.182134,16.154901 127.083926,16.9082769 127.083926,17.1562129 C127.083926,17.8954449 126.781395,18.0643408 126.781395,18.4919888 C126.781395,19.0648207 127.326118,19.5265807 127.853362,19.5265807 C129.005643,19.5265807 129.262399,17.3113809 131.545321,15.803381 C131.874901,15.5853971 132.206145,15.3229011 132.612294,15.3229011 C132.708422,15.3229011 132.808294,15.3378771 132.913993,15.3711571 C132.961849,15.3732371 133.008456,15.3744851 133.053399,15.3744851 C133.739607,15.3744851 134.069603,15.1215571 134.417909,14.3681812 C134.531514,14.1231572 134.588525,13.9114132 134.588525,13.7125652 C134.588525,12.9654293 133.811182,12.6376213 133.616847,11.9092054" id="Fill-10" fill="#000000"></path>
                        <path d="M215.589831,105.25473 C214.849109,104.405674 214.05845,103.49921 213.197049,102.512042 C214.729262,101.655914 215.884456,100.382955 216.711734,98.7746986 C217.35841,99.9382505 217.957646,101.016522 218.541901,102.067754 C217.566894,103.12065 216.56359,104.203498 215.589831,105.25473 M218.532746,95.3485229 C218.548559,95.265323 218.556049,95.186283 218.556049,95.110571 C218.556049,94.433739 217.982614,94.256107 217.510716,93.9686511 C217.213594,93.7876911 216.936032,93.6990831 216.691344,93.6990831 C214.809992,93.6990831 216.606036,98.5442347 210.737684,101.05521 C209.997794,101.37137 209.224614,101.721642 209.224614,102.50913 C209.224614,103.919786 210.605769,103.591978 211.172547,104.005898 C214.688064,106.572202 212.944454,107.872202 214.681406,109.731306 C215.011818,110.084906 215.380515,110.257962 215.726324,110.257962 C217.817824,110.257962 216.057568,106.172426 221.042463,103.268746 C221.592594,102.94801 221.86766,102.54865 221.86766,102.129322 C221.86766,100.684554 218.774105,100.452011 218.532746,95.3485229" id="Fill-12" fill="#000000"></path>
                        <path d="M144.405342,163.645234 C143.609273,162.687602 142.814869,161.73205 141.954716,160.697874 C143.104084,159.589234 144.169808,158.35413 144.784858,156.807442 C145.598404,157.97765 146.364926,159.080466 147.079432,160.10757 C146.203049,161.266962 145.307108,162.452146 144.405342,163.645234 M149.755603,159.862962 C148.49804,158.237234 147.209683,158.34165 146.024943,153.984467 C146.016204,153.952019 145.846421,152.967763 145.006658,152.967763 C143.044576,152.967763 144.647949,155.676755 140.93435,159.02805 C140.064626,159.813042 139.27688,160.278546 139.27688,160.940818 C139.27688,162.07317 141.821553,162.13765 143.253477,165.82757 C143.668365,166.895026 143.952169,167.232402 144.521443,167.232402 C146.119822,167.232402 145.375771,163.70389 149.102686,161.15797 C149.448911,160.921266 149.758932,160.645042 149.758932,159.98277 C149.758932,159.944082 149.757684,159.904146 149.755603,159.862962" id="Fill-14" fill="#000000"></path>
                        <path d="M215.496367,23.6297548 C215.496367,23.5240908 215.498448,23.4175948 215.502609,23.3106828 C215.499696,23.2237388 215.498032,23.1367948 215.498032,23.0506828 C215.498032,19.5908111 217.802593,16.8901393 220.525788,16.8901393 C221.854927,16.8901393 223.402121,17.8111633 223.402121,18.7246992 C223.402121,18.9705552 223.181569,19.7526351 222.380507,19.7526351 C221.738409,19.7526351 221.360557,19.2451151 220.425083,19.2451151 C218.421804,19.2451151 217.899553,22.3347469 217.899553,23.3377228 C217.899553,24.6493707 218.532912,27.3708424 220.466697,27.3708424 C221.60358,27.3708424 221.920676,25.3744586 221.920676,25.2063946 C221.920676,24.3465227 220.859529,24.3723147 220.859529,23.3277388 C220.859529,22.7162188 221.376786,22.1500429 222.038443,22.1500429 C222.621865,22.1500429 224.379208,23.0020108 224.379208,25.3203786 C224.379208,26.8624905 223.240244,29.8090182 220.416344,29.8090182 C216.756843,29.8090182 215.496367,25.7351306 215.496367,23.6297548" id="Fill-16" fill="#000000"></path>
                        <path d="M248.600909,23.3374316 C248.600909,22.9384876 248.553885,22.5262316 248.464416,22.1277037 C246.672118,23.5375276 246.40163,23.5774636 246.40163,24.1107755 C246.40163,24.6786155 246.633417,25.4606954 247.122377,25.8804394 C248.14732,25.6932394 248.600909,24.5791915 248.600909,23.3374316 M246.979643,20.6949998 C247.404101,20.6949998 247.8631,20.9412718 248.313359,21.0589998 C248.201418,17.990168 245.511514,16.5054642 245.511514,15.3144563 C245.511514,14.8289843 245.955532,14.3189684 246.533545,14.3189684 C247.827728,14.3189684 251.028647,17.989752 251.028647,23.3087276 C251.028647,27.8972072 247.536849,28.3943271 247.150675,28.3943271 C245.208151,28.3943271 243.952669,26.0697193 243.952669,24.1236715 C243.952669,21.2782318 246.701248,20.6949998 246.979643,20.6949998" id="Fill-18" fill="#000000"></path>
                        <path d="M227.757526,41.554902 C227.757526,47.9384214 223.651927,49.2513173 222.579544,49.2513173 C220.250431,49.2513173 219.682405,47.0444375 219.682405,46.1928856 C219.682405,45.3791897 220.239195,44.1736218 221.244164,44.1736218 C221.680274,44.1736218 222.467604,44.5022617 222.467604,45.3371737 C222.467604,45.8621656 222.269939,45.9395416 222.269939,46.0605976 C222.269939,46.4383256 222.249132,46.7370136 222.704385,46.7370136 C222.995264,46.7370136 225.317304,45.4827737 225.317304,42.010422 C225.317304,39.4940382 224.127155,38.2972063 223.276989,38.2972063 C222.686075,38.2972063 222.398109,38.5879903 221.890839,38.5879903 C221.041505,38.5879903 220.82345,37.8200543 220.82345,37.5234464 C220.82345,36.5350304 222.344011,36.0458145 223.310696,36.0458145 C226.605661,36.0458145 227.757526,39.8805021 227.757526,41.554902" id="Fill-20" fill="#000000"></path>
                        <path d="M235.855326,42.1774875 C235.795819,41.9145756 235.618545,39.9406557 233.884506,39.9406557 C233.77631,39.9406557 231.986925,40.0596317 231.986925,42.1288156 C231.986925,42.9716315 232.591155,44.2911834 233.921126,44.2911834 C235.513678,44.2911834 235.747547,42.5156955 235.855326,42.1774875 M233.9153,46.7493272 C231.532088,46.7493272 229.550864,44.7612633 229.550864,42.0934556 C229.550864,39.4697438 231.469252,37.485424 233.961075,37.485424 C237.25063,37.485424 238.257264,40.7639197 238.257264,42.1354716 C238.257264,44.0507354 236.853637,46.7493272 233.9153,46.7493272" id="Fill-22" fill="#000000"></path>
                        <path d="M243.585928,42.6909979 C243.20558,42.6909979 242.90721,42.9917659 242.586369,43.2567579 C242.788195,44.0159578 242.998344,44.7414617 243.859745,45.1724377 C244.084459,44.7452057 244.409461,44.3400218 244.409461,43.6611098 C244.409461,42.8503259 243.852671,42.6909979 243.585928,42.6909979 M242.503558,40.3905181 C242.929265,40.2673821 243.321682,40.2037341 243.688297,40.2037341 C244.293359,40.2037341 246.850099,40.7927901 246.850099,43.7355738 C246.850099,46.2864856 245.058634,47.6222615 243.742395,47.6222615 C242.314632,47.6222615 239.969289,46.0015256 239.969289,41.712566 C239.969289,38.8375902 241.77532,35.4193185 243.373699,35.4193185 C244.044094,35.4193185 244.506421,35.9430625 244.506421,36.4643104 C244.506421,36.8025184 244.305427,37.1378144 243.899278,37.4485664 C242.979202,38.1520223 242.766556,39.1724702 242.503558,40.3905181" id="Fill-24" fill="#000000"></path>
                        <path d="M231.978228,25.5697706 C231.838822,23.8275627 230.799314,22.8844908 229.894634,22.8844908 C229.029071,22.8844908 228.461878,23.7672427 228.461878,24.7394347 C228.461878,26.1247145 229.461021,27.3531624 230.527161,27.3531624 C231.779731,27.3531624 231.912478,25.8655466 231.978228,25.5697706 M225.985036,24.4682027 C226.077418,24.1054507 226.466921,20.436331 229.884231,20.436331 C232.349421,20.436331 234.403885,22.8125228 234.403885,25.4961386 C234.403885,27.1355945 233.370619,29.8058982 230.516758,29.8058982 C228.806438,29.8058982 226.186029,28.4684583 225.985036,24.4682027" id="Fill-26" fill="#000000"></path>
                        <path d="M240.431616,24.2866603 C240.410393,24.2155243 240.208151,22.7374764 239.337595,22.7374764 C238.650138,22.7374764 237.864057,23.7134123 237.864057,24.9297962 C237.864057,25.7360042 238.266044,26.5526121 238.931446,26.5526121 C239.223157,26.5526121 240.215226,26.3337961 240.431616,24.2866603 M235.39637,25.2180842 C235.526204,20.3246766 239.241883,20.3076206 239.320117,20.3076206 C242.565562,20.3076206 242.867261,23.8735723 242.867261,24.5250283 C242.867261,26.6690921 241.181077,29.0282279 238.938104,29.0282279 C235.895733,29.0282279 235.497907,25.6328362 235.39637,25.2180842" id="Fill-28" fill="#000000"></path>
                        <path d="M62.8030511,54.960168 C62.9699217,55.981032 63.1093273,56.8313359 63.2662106,57.7914638 C64.2553661,57.5031758 64.5079607,57.4058318 64.8088271,57.4058318 C65.3169292,57.4058318 65.6015663,57.7719118 65.6015663,58.1550478 C65.6015663,59.0111757 64.3265253,59.2624397 63.576232,59.4933196 C63.576232,59.6484876 63.5658286,59.8032396 63.5658286,59.9563276 C63.5658286,60.2762316 64.2537015,65.1009992 64.2537015,65.2008392 C64.2537015,65.4529351 63.8171748,66.0781831 63.4364102,66.0781831 C63.1800704,66.0781831 62.8463293,65.9076231 62.6648939,65.7200071 C62.4730552,65.5219911 62.4168768,65.1579912 62.3727664,64.8568072 C61.3082903,57.6050958 61.3935982,59.4188557 61.3935982,58.8880397 C61.3935982,58.7786317 61.4547702,58.4499917 61.4547702,57.8725838 C61.4547702,55.951496 60.8080947,54.97764 60.8080947,54.4297681 C60.8080947,53.3319442 63.0460746,53.2687122 63.2695397,53.2687122 C63.7372766,53.2687122 65.9057618,53.4159762 65.9057618,54.5587281 C65.9057618,54.90692 65.6361056,55.359944 65.1213453,55.359944 C64.5687166,55.359944 64.8708314,55.145704 62.8030511,54.960168" id="Fill-30" fill="#000000"></path>
                        <path d="M46.0464574,57.8989582 C46.4322156,57.4559182 46.6327932,57.1256143 46.6327932,56.8930703 C46.6327932,56.5852303 46.3015489,56.5340623 45.8333958,56.2744783 C45.9199521,56.9350863 45.9773788,57.3718862 46.0464574,57.8989582 M44.9873911,61.5189899 C44.341964,61.4640779 43.5629572,61.4037579 43.5629572,60.481902 C43.5629572,59.939022 44.0598237,59.726446 44.6207752,59.517614 C43.852588,56.1122383 43.8850466,56.5565263 43.8850466,56.1842063 C43.8850466,54.8455185 45.2158498,54.6574865 45.886245,54.6574865 C46.1151199,54.6574865 48.3922166,54.7190545 48.3922166,56.8007183 C48.3922166,59.1328141 46.6773198,59.4414861 46.6773198,60.597966 C46.6773198,60.9894219 47.2578296,62.7436938 47.2578296,63.5249417 C47.2578296,64.1597576 46.8358676,64.4076936 46.4097442,64.4076936 C45.4721896,64.4076936 45.3789751,63.2254217 44.9873911,61.5189899" id="Fill-32" fill="#000000"></path>
                        <path d="M78.6158065,52.5039795 C77.5871181,52.8762994 77.4785066,52.9345394 77.2271604,52.9345394 C76.5950496,52.9345394 76.4414954,52.3259315 76.4414954,52.1008755 C76.4414954,51.2426676 77.5122136,51.0642036 78.5325793,50.7996276 C78.5325793,50.5679156 78.5238404,50.3511796 78.5238404,50.1419317 C78.5238404,49.5462197 78.6012418,48.4600438 79.3948133,48.4600438 C80.2824316,48.4600438 80.2233402,49.2974517 80.2233402,49.6477237 C80.2233402,49.9010677 80.2146014,50.1747957 80.2146014,50.5001076 C82.5283181,50.0337717 82.445507,50.0192117 82.7309763,50.0192117 C83.4417368,50.0192117 83.6547985,50.5970356 83.6547985,50.9647796 C83.6547985,51.8279795 82.867469,51.7980275 80.5633234,52.2568755 C81.4030861,57.178987 81.5399948,56.7908591 81.5399948,57.475595 C81.5399948,58.3916269 80.8429669,58.4739949 80.6573702,58.4739949 C80.2637054,58.4739949 79.6041297,58.7543789 78.6158065,52.5039795" id="Fill-34" fill="#000000"></path>
                        <path d="M55.4647824,61.1217515 C55.4323238,60.9029355 54.7856483,56.6688879 54.7856483,56.1900719 C54.7856483,55.781144 54.9583448,55.468312 55.3977845,55.28236 C56.087322,54.99116 56.6915516,54.5676721 57.3644437,54.5676721 C58.1779897,54.5676721 58.8862534,55.24076 58.8862534,56.0544559 C58.8862534,56.7483439 58.4459814,57.3444718 57.8301,58.4768237 C58.6919178,58.9518957 59.7081221,58.9810157 59.7276805,58.9810157 C59.8250564,58.9810157 59.9245129,58.9564717 60.0218888,58.9564717 C60.2873836,58.9564717 60.9577788,59.0949997 60.9577788,59.8238316 C60.9577788,60.8380395 59.9290904,60.7352875 59.7514003,60.7352875 C58.4131066,60.7352875 57.7930638,60.4636396 57.2287833,60.3155436 C57.4197898,61.0768235 57.5354756,61.4295915 57.5354756,61.7212075 C57.5354756,62.4883114 56.8226345,62.5798314 56.6903032,62.5798314 C55.9616489,62.5798314 55.7465065,61.7636395 55.4344045,61.0868075 L55.4647824,61.1217515 Z" id="Fill-36" fill="#000000"></path>
                        <path d="M68.9857515,57.0365071 C69.2296073,57.845211 69.4518239,58.184667 69.8692084,58.184667 C70.4497183,58.184667 70.8338119,57.716667 71.4076636,57.716667 C71.9290821,57.716667 72.1800122,58.156795 72.1800122,58.5083149 C72.1800122,59.1734989 71.3889374,60.0229708 69.8725375,60.0229708 C69.1967325,60.0229708 68.5126048,59.7979148 68.0615132,59.2092749 C67.8492838,58.9322189 66.6587185,56.7457231 66.6587185,56.1745551 C66.6587185,55.8796112 66.853054,55.7373392 66.853054,55.0521872 C66.853054,54.2738513 66.5521876,53.5183954 66.5521876,53.0083794 C66.5521876,51.9130515 68.4543457,51.7270995 69.0976921,51.7270995 C70.8383894,51.7270995 70.8121728,52.6639314 70.8121728,52.7030354 C70.8121728,52.8315794 70.7418458,53.4876114 69.9724102,53.4876114 C69.9665843,53.4876114 69.7751617,53.4867794 69.4147878,53.4867794 C69.1243248,53.4867794 68.8151357,53.4871954 68.4576748,53.4871954 C68.4851398,54.1066193 68.5105241,54.6707153 68.5396536,55.3184272 C69.9307966,55.1915472 69.861718,55.1944592 69.9957138,55.1944592 C70.1792298,55.1944592 70.9623979,55.2206672 70.9623979,55.9619792 C70.9623979,56.8859151 69.4418367,56.9749391 68.9857515,57.0365071" id="Fill-38" fill="#000000"></path>
                        <path d="M55.4343212,61.0865995 C55.4343212,61.0999115 55.4343212,61.1128075 55.4343212,61.1257035 C55.4343212,62.3878474 54.7268899,63.1316553 53.5325793,63.1316553 C50.5068538,63.1316553 49.4794137,59.9151436 49.4794137,56.8758479 C49.4794137,56.2044239 50.5617837,55.3458 51.9666592,55.3458 C53.6316197,55.3458 53.8172164,56.0130639 53.8172164,56.3446159 C53.8172164,56.3662479 53.8063968,57.1175439 52.9487404,57.1175439 C52.7007232,57.1175439 52.4489609,57.0630479 52.0777675,57.0630479 C51.4930963,57.0630479 51.2400856,57.2273678 51.2400856,57.6745678 C51.2400856,57.9183438 51.3154062,58.2457358 51.4531472,58.6771277 C52.8476193,58.3938317 52.8721713,58.3667917 53.1214368,58.3667917 C53.4543457,58.3667917 54.0111358,58.5144717 54.0111358,59.1538637 C54.0111358,59.9613196 52.917114,60.0961036 52.0923323,60.3328076 C52.427738,60.9588875 52.7872796,61.2713035 53.2183965,61.2713035 C53.8326134,61.2713035 54.051501,60.7829195 54.5920618,60.7829195 C54.8995864,60.7829195 55.1746523,60.9480715 55.4651153,61.1219595 C55.4646992,61.1215435 55.4343212,61.0865995 55.4343212,61.0865995" id="Fill-40" fill="#000000"></path>
                        <path d="M74.221992,53.697941 C74.0430534,54.1601169 73.9506712,54.6343569 73.9506712,55.1131728 C73.9506712,55.2874768 74.0276564,57.3595726 75.2544256,57.3595726 C76.0850332,57.3595726 76.417526,56.5749967 77.0879212,56.5749967 C77.3946135,56.5749967 77.9043802,56.8607887 77.9043802,57.3737166 C77.9043802,57.9723406 76.9327025,59.2012045 75.3838439,59.2012045 C73.09676,59.2012045 72.1754347,57.0929167 72.1754347,55.2662608 C72.1754347,54.0819089 72.742212,51.5838291 74.5515717,51.5838291 C74.9127779,51.5838291 75.6801328,51.8417491 75.6801328,52.671253 C75.6801328,53.545269 74.7425782,53.556501 74.221992,53.697941" id="Fill-42" fill="#000000"></path>
                    </g>
                </g>
            </g>
        </g>
    </g>
</svg>